<svg aria-roledescription="flowchart-v2" role="graphics-document document" viewBox="0 0 1367.448974609375 2400.976806640625" style="max-width: 1367.45px; background-color: transparent;" class="flowchart" xmlns:xlink="http://www.w3.org/1999/xlink" xmlns="http://www.w3.org/2000/svg" width="100%" id="my-svg"><style>#my-svg{font-family:"trebuchet ms",verdana,arial,sans-serif;font-size:16px;fill:#333;}@keyframes edge-animation-frame{from{stroke-dashoffset:0;}}@keyframes dash{to{stroke-dashoffset:0;}}#my-svg .edge-animation-slow{stroke-dasharray:9,5!important;stroke-dashoffset:900;animation:dash 50s linear infinite;stroke-linecap:round;}#my-svg .edge-animation-fast{stroke-dasharray:9,5!important;stroke-dashoffset:900;animation:dash 20s linear infinite;stroke-linecap:round;}#my-svg .error-icon{fill:#552222;}#my-svg .error-text{fill:#552222;stroke:#552222;}#my-svg .edge-thickness-normal{stroke-width:1px;}#my-svg .edge-thickness-thick{stroke-width:3.5px;}#my-svg .edge-pattern-solid{stroke-dasharray:0;}#my-svg .edge-thickness-invisible{stroke-width:0;fill:none;}#my-svg .edge-pattern-dashed{stroke-dasharray:3;}#my-svg .edge-pattern-dotted{stroke-dasharray:2;}#my-svg .marker{fill:#333333;stroke:#333333;}#my-svg .marker.cross{stroke:#333333;}#my-svg svg{font-family:"trebuchet ms",verdana,arial,sans-serif;font-size:16px;}#my-svg p{margin:0;}#my-svg .label{font-family:"trebuchet ms",verdana,arial,sans-serif;color:#333;}#my-svg .cluster-label text{fill:#333;}#my-svg .cluster-label span{color:#333;}#my-svg .cluster-label span p{background-color:transparent;}#my-svg .label text,#my-svg span{fill:#333;color:#333;}#my-svg .node rect,#my-svg .node circle,#my-svg .node ellipse,#my-svg .node polygon,#my-svg .node path{fill:#ECECFF;stroke:#9370DB;stroke-width:1px;}#my-svg .rough-node .label text,#my-svg .node .label text,#my-svg .image-shape .label,#my-svg .icon-shape .label{text-anchor:middle;}#my-svg .node .katex path{fill:#000;stroke:#000;stroke-width:1px;}#my-svg .rough-node .label,#my-svg .node .label,#my-svg .image-shape .label,#my-svg .icon-shape .label{text-align:center;}#my-svg .node.clickable{cursor:pointer;}#my-svg .root .anchor path{fill:#333333!important;stroke-width:0;stroke:#333333;}#my-svg .arrowheadPath{fill:#333333;}#my-svg .edgePath .path{stroke:#333333;stroke-width:2.0px;}#my-svg .flowchart-link{stroke:#333333;fill:none;}#my-svg .edgeLabel{background-color:rgba(232,232,232, 0.8);text-align:center;}#my-svg .edgeLabel p{background-color:rgba(232,232,232, 0.8);}#my-svg .edgeLabel rect{opacity:0.5;background-color:rgba(232,232,232, 0.8);fill:rgba(232,232,232, 0.8);}#my-svg .labelBkg{background-color:rgba(232, 232, 232, 0.5);}#my-svg .cluster rect{fill:#ffffde;stroke:#aaaa33;stroke-width:1px;}#my-svg .cluster text{fill:#333;}#my-svg .cluster span{color:#333;}#my-svg div.mermaidTooltip{position:absolute;text-align:center;max-width:200px;padding:2px;font-family:"trebuchet ms",verdana,arial,sans-serif;font-size:12px;background:hsl(80, 100%, 96.2745098039%);border:1px solid #aaaa33;border-radius:2px;pointer-events:none;z-index:100;}#my-svg .flowchartTitleText{text-anchor:middle;font-size:18px;fill:#333;}#my-svg rect.text{fill:none;stroke-width:0;}#my-svg .icon-shape,#my-svg .image-shape{background-color:rgba(232,232,232, 0.8);text-align:center;}#my-svg .icon-shape p,#my-svg .image-shape p{background-color:rgba(232,232,232, 0.8);padding:2px;}#my-svg .icon-shape rect,#my-svg .image-shape rect{opacity:0.5;background-color:rgba(232,232,232, 0.8);fill:rgba(232,232,232, 0.8);}#my-svg .label-icon{display:inline-block;height:1em;overflow:visible;vertical-align:-0.125em;}#my-svg .node .label-icon path{fill:currentColor;stroke:revert;stroke-width:revert;}#my-svg :root{--mermaid-font-family:"trebuchet ms",verdana,arial,sans-serif;}</style><g><marker orient="auto" markerHeight="8" markerWidth="8" markerUnits="userSpaceOnUse" refY="5" refX="5" viewBox="0 0 10 10" class="marker flowchart-v2" id="my-svg_flowchart-v2-pointEnd"><path style="stroke-width: 1; stroke-dasharray: 1, 0;" class="arrowMarkerPath" d="M 0 0 L 10 5 L 0 10 z"/></marker><marker orient="auto" markerHeight="8" markerWidth="8" markerUnits="userSpaceOnUse" refY="5" refX="4.5" viewBox="0 0 10 10" class="marker flowchart-v2" id="my-svg_flowchart-v2-pointStart"><path style="stroke-width: 1; stroke-dasharray: 1, 0;" class="arrowMarkerPath" d="M 0 5 L 10 10 L 10 0 z"/></marker><marker orient="auto" markerHeight="11" markerWidth="11" markerUnits="userSpaceOnUse" refY="5" refX="11" viewBox="0 0 10 10" class="marker flowchart-v2" id="my-svg_flowchart-v2-circleEnd"><circle style="stroke-width: 1; stroke-dasharray: 1, 0;" class="arrowMarkerPath" r="5" cy="5" cx="5"/></marker><marker orient="auto" markerHeight="11" markerWidth="11" markerUnits="userSpaceOnUse" refY="5" refX="-1" viewBox="0 0 10 10" class="marker flowchart-v2" id="my-svg_flowchart-v2-circleStart"><circle style="stroke-width: 1; stroke-dasharray: 1, 0;" class="arrowMarkerPath" r="5" cy="5" cx="5"/></marker><marker orient="auto" markerHeight="11" markerWidth="11" markerUnits="userSpaceOnUse" refY="5.2" refX="12" viewBox="0 0 11 11" class="marker cross flowchart-v2" id="my-svg_flowchart-v2-crossEnd"><path style="stroke-width: 2; stroke-dasharray: 1, 0;" class="arrowMarkerPath" d="M 1,1 l 9,9 M 10,1 l -9,9"/></marker><marker orient="auto" markerHeight="11" markerWidth="11" markerUnits="userSpaceOnUse" refY="5.2" refX="-1" viewBox="0 0 11 11" class="marker cross flowchart-v2" id="my-svg_flowchart-v2-crossStart"><path style="stroke-width: 2; stroke-dasharray: 1, 0;" class="arrowMarkerPath" d="M 1,1 l 9,9 M 10,1 l -9,9"/></marker><g class="root"><g class="clusters"/><g class="edgePaths"><path marker-end="url(#my-svg_flowchart-v2-pointEnd)" style="" class="edge-thickness-normal edge-pattern-solid edge-thickness-normal edge-pattern-solid flowchart-link" id="L_Start_CheckCache_0" d="M494.438,71L494.438,75.167C494.438,79.333,494.438,87.667,494.508,95.417C494.578,103.167,494.719,110.334,494.789,113.917L494.859,117.501"/><path marker-end="url(#my-svg_flowchart-v2-pointEnd)" style="" class="edge-thickness-normal edge-pattern-solid edge-thickness-normal edge-pattern-solid flowchart-link" id="L_CheckCache_LoadCache_0" d="M549.039,242.008L573.695,257.108C598.351,272.209,647.664,302.409,672.32,323.009C696.977,343.609,696.977,354.609,696.977,360.109L696.977,365.609"/><path marker-end="url(#my-svg_flowchart-v2-pointEnd)" style="" class="edge-thickness-normal edge-pattern-solid edge-thickness-normal edge-pattern-solid flowchart-link" id="L_CheckCache_InitialGen_0" d="M429.106,230.278L376.482,247.333C323.857,264.389,218.608,298.499,165.984,328.221C113.359,357.943,113.359,383.276,113.359,406.609C113.359,429.943,113.359,451.276,113.359,476.609C113.359,501.943,113.359,531.276,113.359,560.609C113.359,589.943,113.359,619.276,113.359,648.609C113.359,677.943,113.359,707.276,113.359,736.609C113.359,765.943,113.359,795.276,113.359,830.898C113.359,866.521,113.359,908.432,113.359,952.344C113.359,996.255,113.359,1042.167,113.359,1077.789C113.359,1113.411,113.359,1138.745,113.359,1164.078C113.359,1189.411,113.359,1214.745,113.359,1241.544C113.359,1268.344,113.359,1296.609,113.359,1310.742L113.359,1324.875"/><path marker-end="url(#my-svg_flowchart-v2-pointEnd)" style="" class="edge-thickness-normal edge-pattern-solid edge-thickness-normal edge-pattern-solid flowchart-link" id="L_InitialGen_PreparePrompt_0" d="M113.359,1382.875L113.359,1397.674C113.359,1412.474,113.359,1442.073,113.359,1462.372C113.359,1482.672,113.359,1493.672,113.359,1499.172L113.359,1504.672"/><path marker-end="url(#my-svg_flowchart-v2-pointEnd)" style="" class="edge-thickness-normal edge-pattern-solid edge-thickness-normal edge-pattern-solid flowchart-link" id="L_PreparePrompt_CallLLM_0" d="M113.359,1634.672L113.359,1638.839C113.359,1643.005,113.359,1651.339,126.486,1665.855C139.612,1680.372,165.865,1701.073,178.991,1711.423L192.117,1721.773"/><path marker-end="url(#my-svg_flowchart-v2-pointEnd)" style="" class="edge-thickness-normal edge-pattern-solid edge-thickness-normal edge-pattern-solid flowchart-link" id="L_CallLLM_ParseResponse_0" d="M244.719,1802.25L244.719,1815.013C244.719,1827.776,244.719,1853.302,244.793,1871.648C244.868,1889.995,245.017,1901.162,245.091,1906.745L245.165,1912.328"/><path marker-end="url(#my-svg_flowchart-v2-pointEnd)" style="" class="edge-thickness-normal edge-pattern-solid edge-thickness-normal edge-pattern-solid flowchart-link" id="L_ParseResponse_ShowError_0" d="M228.407,2064.391L226.026,2073.276C223.645,2082.162,218.883,2099.932,216.502,2120.257C214.121,2140.582,214.121,2163.461,214.121,2174.9L214.121,2186.34"/><path marker-end="url(#my-svg_flowchart-v2-pointEnd)" style="" class="edge-thickness-normal edge-pattern-solid edge-thickness-normal edge-pattern-solid flowchart-link" id="L_ParseResponse_StoreEntities_0" d="M305.229,2021.193L348.408,2037.278C391.588,2053.363,477.946,2085.533,551.281,2115.099C624.616,2144.665,684.928,2171.628,715.083,2185.109L745.239,2198.59"/><path marker-end="url(#my-svg_flowchart-v2-pointEnd)" style="" class="edge-thickness-normal edge-pattern-solid edge-thickness-normal edge-pattern-solid flowchart-link" id="L_StoreEntities_ProcessEntities_0" d="M826.517,2154.94L827.55,2148.734C828.582,2142.528,830.646,2130.115,831.679,2104.003C832.711,2077.891,832.711,2038.078,832.711,1998.266C832.711,1958.453,832.711,1918.641,832.711,1879.471C832.711,1840.302,832.711,1801.776,832.711,1765.25C832.711,1728.724,832.711,1694.198,832.711,1662.268C832.711,1630.339,832.711,1601.005,832.711,1569.672C832.711,1538.339,832.711,1505.005,832.711,1469.039C832.711,1433.073,832.711,1394.474,832.711,1355.875C832.711,1317.276,832.711,1278.677,832.711,1246.711C832.711,1214.745,832.711,1189.411,832.711,1164.078C832.711,1138.745,832.711,1113.411,832.711,1077.789C832.711,1042.167,832.711,996.255,832.711,952.344C832.711,908.432,832.711,866.521,832.711,830.898C832.711,795.276,832.711,765.943,832.711,736.609C832.711,707.276,832.711,677.943,826.844,659.472C820.976,641.001,809.241,633.393,803.374,629.589L797.506,625.785"/><path marker-end="url(#my-svg_flowchart-v2-pointEnd)" style="" class="edge-thickness-normal edge-pattern-solid edge-thickness-normal edge-pattern-solid flowchart-link" id="L_ProcessEntities_DisplayUI_0" d="M643.65,623.609L640.123,627.776C636.596,631.943,629.542,640.276,626.015,647.943C622.488,655.609,622.488,662.609,622.488,666.109L622.488,669.609"/><path marker-end="url(#my-svg_flowchart-v2-pointEnd)" style="" class="edge-thickness-normal edge-pattern-solid edge-thickness-normal edge-pattern-solid flowchart-link" id="L_LoadCache_ProcessEntities_0" d="M696.977,447.609L696.977,451.776C696.977,455.943,696.977,464.276,696.977,471.943C696.977,479.609,696.977,486.609,696.977,490.109L696.977,493.609"/><path marker-end="url(#my-svg_flowchart-v2-pointEnd)" style="" class="edge-thickness-normal edge-pattern-solid edge-thickness-normal edge-pattern-solid flowchart-link" id="L_DisplayUI_CheckMore_0" d="M671.075,799.609L674.288,803.776C677.502,807.943,683.929,816.276,687.212,824.026C690.496,831.776,690.637,838.943,690.707,842.527L690.777,846.11"/><path marker-end="url(#my-svg_flowchart-v2-pointEnd)" style="" class="edge-thickness-normal edge-pattern-solid edge-thickness-normal edge-pattern-solid flowchart-link" id="L_CheckMore_Complete_0" d="M752.958,989.475L779.428,1005.909C805.897,1022.343,858.835,1055.21,885.304,1084.311C911.773,1113.411,911.773,1138.745,911.773,1164.078C911.773,1189.411,911.773,1214.745,911.773,1246.711C911.773,1278.677,911.773,1317.276,911.773,1355.875C911.773,1394.474,911.773,1433.073,936.952,1462.504C962.132,1491.936,1012.49,1512.2,1037.669,1522.332L1062.848,1532.464"/><path marker-end="url(#my-svg_flowchart-v2-pointEnd)" style="" class="edge-thickness-normal edge-pattern-solid edge-thickness-normal edge-pattern-solid flowchart-link" id="L_CheckMore_ShowLoadMore_0" d="M690.855,1051.578L690.772,1057.661C690.689,1063.745,690.522,1075.911,690.439,1087.495C690.355,1099.078,690.355,1110.078,690.355,1115.578L690.355,1121.078"/><path marker-end="url(#my-svg_flowchart-v2-pointEnd)" style="" class="edge-thickness-normal edge-pattern-solid edge-thickness-normal edge-pattern-solid flowchart-link" id="L_ShowLoadMore_UserLoadMore_0" d="M690.355,1203.078L690.355,1209.245C690.355,1215.411,690.355,1227.745,690.43,1239.495C690.504,1251.245,690.653,1262.412,690.728,1267.995L690.802,1273.578"/><path marker-end="url(#my-svg_flowchart-v2-pointEnd)" style="" class="edge-thickness-normal edge-pattern-solid edge-thickness-normal edge-pattern-solid flowchart-link" id="L_UserLoadMore_PrepareMorePrompt_0" d="M633.275,1377.591L590.408,1393.271C547.542,1408.951,461.81,1440.312,418.944,1463.492C376.078,1486.672,376.078,1501.672,376.078,1509.172L376.078,1516.672"/><path marker-end="url(#my-svg_flowchart-v2-pointEnd)" style="" class="edge-thickness-normal edge-pattern-solid edge-thickness-normal edge-pattern-solid flowchart-link" id="L_UserLoadMore_Complete_0" d="M754.456,1371.572L824.544,1388.255C894.632,1404.938,1034.808,1438.305,1103.499,1464.496C1172.189,1490.686,1169.395,1509.7,1167.997,1519.207L1166.6,1528.714"/><path marker-end="url(#my-svg_flowchart-v2-pointEnd)" style="" class="edge-thickness-normal edge-pattern-solid edge-thickness-normal edge-pattern-solid flowchart-link" id="L_PrepareMorePrompt_CallLLM_0" d="M376.078,1622.672L376.078,1628.839C376.078,1635.005,376.078,1647.339,362.952,1663.855C349.825,1680.372,323.573,1701.073,310.446,1711.423L297.32,1721.773"/><path marker-end="url(#my-svg_flowchart-v2-pointEnd)" style="" class="edge-thickness-normal edge-pattern-solid edge-thickness-normal edge-pattern-solid flowchart-link" id="L_Complete_UserInteract_0" d="M1072.019,1610.672L1053.536,1618.839C1035.053,1627.005,998.087,1643.339,979.674,1655.089C961.262,1666.839,961.402,1674.006,961.472,1677.589L961.543,1681.173"/><path marker-end="url(#my-svg_flowchart-v2-pointEnd)" style="" class="edge-thickness-normal edge-pattern-solid edge-thickness-normal edge-pattern-solid flowchart-link" id="L_UserInteract_FilterEntities_0" d="M897.471,1778.179L822.436,1794.953C747.4,1811.728,597.329,1845.278,531.495,1874.917C465.661,1904.556,484.064,1930.284,493.266,1943.148L502.468,1956.012"/><path marker-end="url(#my-svg_flowchart-v2-pointEnd)" style="" class="edge-thickness-normal edge-pattern-solid edge-thickness-normal edge-pattern-solid flowchart-link" id="L_UserInteract_NavigateDoc_0" d="M1015.573,1788.376L1048.699,1803.452C1081.826,1818.527,1148.079,1848.678,1181.206,1876.492C1214.332,1904.307,1214.332,1929.786,1214.332,1942.526L1214.332,1955.266"/><path marker-end="url(#my-svg_flowchart-v2-pointEnd)" style="" class="edge-thickness-normal edge-pattern-solid edge-thickness-normal edge-pattern-solid flowchart-link" id="L_UserInteract_ShowTooltip_0" d="M961.621,1842.328L961.538,1848.411C961.454,1854.495,961.288,1866.661,961.204,1885.484C961.121,1904.307,961.121,1929.786,961.121,1942.526L961.121,1955.266"/><path marker-end="url(#my-svg_flowchart-v2-pointEnd)" style="" class="edge-thickness-normal edge-pattern-solid edge-thickness-normal edge-pattern-solid flowchart-link" id="L_FilterEntities_DisplayUI_0" d="M539.852,1959.266L542.314,1945.859C544.775,1932.453,549.698,1905.641,552.16,1872.971C554.621,1840.302,554.621,1801.776,554.621,1765.25C554.621,1728.724,554.621,1694.198,554.621,1662.268C554.621,1630.339,554.621,1601.005,554.621,1569.672C554.621,1538.339,554.621,1505.005,554.621,1469.039C554.621,1433.073,554.621,1394.474,554.621,1355.875C554.621,1317.276,554.621,1278.677,554.621,1246.711C554.621,1214.745,554.621,1189.411,554.621,1164.078C554.621,1138.745,554.621,1113.411,554.621,1077.789C554.621,1042.167,554.621,996.255,554.621,952.344C554.621,908.432,554.621,866.521,557.427,841.926C560.234,817.332,565.846,810.054,568.652,806.416L571.459,802.777"/><path marker-end="url(#my-svg_flowchart-v2-pointEnd)" style="" class="edge-thickness-normal edge-pattern-solid edge-thickness-normal edge-pattern-solid flowchart-link" id="L_NavigateDoc_HighlightText_0" d="M1214.332,2037.266L1214.332,2050.672C1214.332,2064.078,1214.332,2090.891,1214.332,2113.736C1214.332,2136.582,1214.332,2155.461,1214.332,2164.9L1214.332,2174.34"/><path marker-end="url(#my-svg_flowchart-v2-pointEnd)" style="" class="edge-thickness-normal edge-pattern-solid edge-thickness-normal edge-pattern-solid flowchart-link" id="L_ShowError_End_0" d="M214.121,2268.34L214.121,2278.446C214.121,2288.552,214.121,2308.764,299.796,2325.885C385.471,2343.006,556.82,2357.034,642.495,2364.049L728.17,2371.063"/><path marker-end="url(#my-svg_flowchart-v2-pointEnd)" style="" class="edge-thickness-normal edge-pattern-solid edge-thickness-normal edge-pattern-solid flowchart-link" id="L_Complete_End_0" d="M1248.551,1610.672L1267.034,1618.839C1285.517,1627.005,1322.483,1643.339,1340.966,1668.768C1359.449,1694.198,1359.449,1728.724,1359.449,1765.25C1359.449,1801.776,1359.449,1840.302,1359.449,1879.471C1359.449,1918.641,1359.449,1958.453,1359.449,1998.266C1359.449,2038.078,1359.449,2077.891,1359.449,2116.403C1359.449,2154.915,1359.449,2192.128,1359.449,2227.34C1359.449,2262.552,1359.449,2295.764,1264.063,2319.424C1168.676,2343.083,977.903,2357.19,882.516,2364.243L787.13,2371.297"/></g><g class="edgeLabels"><g class="edgeLabel"><g transform="translate(0, 0)" class="label"><foreignObject height="0" width="0"><div style="display: table-cell; white-space: nowrap; line-height: 1.5; max-width: 200px; text-align: center;" class="labelBkg" xmlns="http://www.w3.org/1999/xhtml"><span class="edgeLabel"></span></div></foreignObject></g></g><g transform="translate(696.9765625, 332.609375)" class="edgeLabel"><g transform="translate(-11.328125, -12)" class="label"><foreignObject height="24" width="22.65625"><div style="display: table-cell; white-space: nowrap; line-height: 1.5; max-width: 200px; text-align: center;" class="labelBkg" xmlns="http://www.w3.org/1999/xhtml"><span class="edgeLabel"><p>Yes</p></span></div></foreignObject></g></g><g transform="translate(113.359375, 736.609375)" class="edgeLabel"><g transform="translate(-9.3984375, -12)" class="label"><foreignObject height="24" width="18.796875"><div style="display: table-cell; white-space: nowrap; line-height: 1.5; max-width: 200px; text-align: center;" class="labelBkg" xmlns="http://www.w3.org/1999/xhtml"><span class="edgeLabel"><p>No</p></span></div></foreignObject></g></g><g class="edgeLabel"><g transform="translate(0, 0)" class="label"><foreignObject height="0" width="0"><div style="display: table-cell; white-space: nowrap; line-height: 1.5; max-width: 200px; text-align: center;" class="labelBkg" xmlns="http://www.w3.org/1999/xhtml"><span class="edgeLabel"></span></div></foreignObject></g></g><g class="edgeLabel"><g transform="translate(0, 0)" class="label"><foreignObject height="0" width="0"><div style="display: table-cell; white-space: nowrap; line-height: 1.5; max-width: 200px; text-align: center;" class="labelBkg" xmlns="http://www.w3.org/1999/xhtml"><span class="edgeLabel"></span></div></foreignObject></g></g><g class="edgeLabel"><g transform="translate(0, 0)" class="label"><foreignObject height="0" width="0"><div style="display: table-cell; white-space: nowrap; line-height: 1.5; max-width: 200px; text-align: center;" class="labelBkg" xmlns="http://www.w3.org/1999/xhtml"><span class="edgeLabel"></span></div></foreignObject></g></g><g transform="translate(214.12109375, 2117.703125)" class="edgeLabel"><g transform="translate(-23.8203125, -12)" class="label"><foreignObject height="24" width="47.640625"><div style="display: table-cell; white-space: nowrap; line-height: 1.5; max-width: 200px; text-align: center;" class="labelBkg" xmlns="http://www.w3.org/1999/xhtml"><span class="edgeLabel"><p>Invalid</p></span></div></foreignObject></g></g><g transform="translate(564.3046875, 2117.703125)" class="edgeLabel"><g transform="translate(-17.375, -12)" class="label"><foreignObject height="24" width="34.75"><div style="display: table-cell; white-space: nowrap; line-height: 1.5; max-width: 200px; text-align: center;" class="labelBkg" xmlns="http://www.w3.org/1999/xhtml"><span class="edgeLabel"><p>Valid</p></span></div></foreignObject></g></g><g class="edgeLabel"><g transform="translate(0, 0)" class="label"><foreignObject height="0" width="0"><div style="display: table-cell; white-space: nowrap; line-height: 1.5; max-width: 200px; text-align: center;" class="labelBkg" xmlns="http://www.w3.org/1999/xhtml"><span class="edgeLabel"></span></div></foreignObject></g></g><g class="edgeLabel"><g transform="translate(0, 0)" class="label"><foreignObject height="0" width="0"><div style="display: table-cell; white-space: nowrap; line-height: 1.5; max-width: 200px; text-align: center;" class="labelBkg" xmlns="http://www.w3.org/1999/xhtml"><span class="edgeLabel"></span></div></foreignObject></g></g><g class="edgeLabel"><g transform="translate(0, 0)" class="label"><foreignObject height="0" width="0"><div style="display: table-cell; white-space: nowrap; line-height: 1.5; max-width: 200px; text-align: center;" class="labelBkg" xmlns="http://www.w3.org/1999/xhtml"><span class="edgeLabel"></span></div></foreignObject></g></g><g class="edgeLabel"><g transform="translate(0, 0)" class="label"><foreignObject height="0" width="0"><div style="display: table-cell; white-space: nowrap; line-height: 1.5; max-width: 200px; text-align: center;" class="labelBkg" xmlns="http://www.w3.org/1999/xhtml"><span class="edgeLabel"></span></div></foreignObject></g></g><g transform="translate(911.7734375, 1240.078125)" class="edgeLabel"><g transform="translate(-9.3984375, -12)" class="label"><foreignObject height="24" width="18.796875"><div style="display: table-cell; white-space: nowrap; line-height: 1.5; max-width: 200px; text-align: center;" class="labelBkg" xmlns="http://www.w3.org/1999/xhtml"><span class="edgeLabel"><p>No</p></span></div></foreignObject></g></g><g transform="translate(690.35546875, 1088.078125)" class="edgeLabel"><g transform="translate(-11.328125, -12)" class="label"><foreignObject height="24" width="22.65625"><div style="display: table-cell; white-space: nowrap; line-height: 1.5; max-width: 200px; text-align: center;" class="labelBkg" xmlns="http://www.w3.org/1999/xhtml"><span class="edgeLabel"><p>Yes</p></span></div></foreignObject></g></g><g class="edgeLabel"><g transform="translate(0, 0)" class="label"><foreignObject height="0" width="0"><div style="display: table-cell; white-space: nowrap; line-height: 1.5; max-width: 200px; text-align: center;" class="labelBkg" xmlns="http://www.w3.org/1999/xhtml"><span class="edgeLabel"></span></div></foreignObject></g></g><g transform="translate(376.078125, 1471.671875)" class="edgeLabel"><g transform="translate(-11.328125, -12)" class="label"><foreignObject height="24" width="22.65625"><div style="display: table-cell; white-space: nowrap; line-height: 1.5; max-width: 200px; text-align: center;" class="labelBkg" xmlns="http://www.w3.org/1999/xhtml"><span class="edgeLabel"><p>Yes</p></span></div></foreignObject></g></g><g transform="translate(1174.984375, 1471.671875)" class="edgeLabel"><g transform="translate(-9.3984375, -12)" class="label"><foreignObject height="24" width="18.796875"><div style="display: table-cell; white-space: nowrap; line-height: 1.5; max-width: 200px; text-align: center;" class="labelBkg" xmlns="http://www.w3.org/1999/xhtml"><span class="edgeLabel"><p>No</p></span></div></foreignObject></g></g><g class="edgeLabel"><g transform="translate(0, 0)" class="label"><foreignObject height="0" width="0"><div style="display: table-cell; white-space: nowrap; line-height: 1.5; max-width: 200px; text-align: center;" class="labelBkg" xmlns="http://www.w3.org/1999/xhtml"><span class="edgeLabel"></span></div></foreignObject></g></g><g class="edgeLabel"><g transform="translate(0, 0)" class="label"><foreignObject height="0" width="0"><div style="display: table-cell; white-space: nowrap; line-height: 1.5; max-width: 200px; text-align: center;" class="labelBkg" xmlns="http://www.w3.org/1999/xhtml"><span class="edgeLabel"></span></div></foreignObject></g></g><g transform="translate(447.2578125, 1878.828125)" class="edgeLabel"><g transform="translate(-23.859375, -12)" class="label"><foreignObject height="24" width="47.71875"><div style="display: table-cell; white-space: nowrap; line-height: 1.5; max-width: 200px; text-align: center;" class="labelBkg" xmlns="http://www.w3.org/1999/xhtml"><span class="edgeLabel"><p>Search</p></span></div></foreignObject></g></g><g transform="translate(1214.33203125, 1878.828125)" class="edgeLabel"><g transform="translate(-41.140625, -12)" class="label"><foreignObject height="24" width="82.28125"><div style="display: table-cell; white-space: nowrap; line-height: 1.5; max-width: 200px; text-align: center;" class="labelBkg" xmlns="http://www.w3.org/1999/xhtml"><span class="edgeLabel"><p>Click entity</p></span></div></foreignObject></g></g><g transform="translate(961.12109375, 1878.828125)" class="edgeLabel"><g transform="translate(-44.6328125, -12)" class="label"><foreignObject height="24" width="89.265625"><div style="display: table-cell; white-space: nowrap; line-height: 1.5; max-width: 200px; text-align: center;" class="labelBkg" xmlns="http://www.w3.org/1999/xhtml"><span class="edgeLabel"><p>Hover entity</p></span></div></foreignObject></g></g><g class="edgeLabel"><g transform="translate(0, 0)" class="label"><foreignObject height="0" width="0"><div style="display: table-cell; white-space: nowrap; line-height: 1.5; max-width: 200px; text-align: center;" class="labelBkg" xmlns="http://www.w3.org/1999/xhtml"><span class="edgeLabel"></span></div></foreignObject></g></g><g class="edgeLabel"><g transform="translate(0, 0)" class="label"><foreignObject height="0" width="0"><div style="display: table-cell; white-space: nowrap; line-height: 1.5; max-width: 200px; text-align: center;" class="labelBkg" xmlns="http://www.w3.org/1999/xhtml"><span class="edgeLabel"></span></div></foreignObject></g></g><g class="edgeLabel"><g transform="translate(0, 0)" class="label"><foreignObject height="0" width="0"><div style="display: table-cell; white-space: nowrap; line-height: 1.5; max-width: 200px; text-align: center;" class="labelBkg" xmlns="http://www.w3.org/1999/xhtml"><span class="edgeLabel"></span></div></foreignObject></g></g><g class="edgeLabel"><g transform="translate(0, 0)" class="label"><foreignObject height="0" width="0"><div style="display: table-cell; white-space: nowrap; line-height: 1.5; max-width: 200px; text-align: center;" class="labelBkg" xmlns="http://www.w3.org/1999/xhtml"><span class="edgeLabel"></span></div></foreignObject></g></g></g><g class="nodes"><g transform="translate(494.4375, 39.5)" id="flowchart-Start-0" class="node default"><rect height="63" width="129.171875" y="-31.5" x="-64.5859375" ry="31.5" rx="31.5" style="fill:#e8f4f8 !important" class="basic label-container"/><g transform="translate(-49.2109375, -24)" style="" class="label"><rect/><foreignObject height="48" width="98.421875"><div style="display: table-cell; white-space: nowrap; line-height: 1.5; max-width: 200px; text-align: center;" xmlns="http://www.w3.org/1999/xhtml"><span class="nodeLabel"><p>User clicks<br />Load Glossary</p></span></div></foreignObject></g></g><g transform="translate(494.4375, 208.3046875)" id="flowchart-CheckCache-1" class="node default"><polygon transform="translate(-87.3046875,87.3046875)" class="label-container" points="87.3046875,0 174.609375,-87.3046875 87.3046875,-174.609375 0,-87.3046875"/><g transform="translate(-36.3046875, -36)" style="" class="label"><rect/><foreignObject height="72" width="72.609375"><div style="display: table-cell; white-space: nowrap; line-height: 1.5; max-width: 200px; text-align: center;" xmlns="http://www.w3.org/1999/xhtml"><span class="nodeLabel"><p>Existing<br />entities in<br />database?</p></span></div></foreignObject></g></g><g transform="translate(696.9765625, 408.609375)" id="flowchart-LoadCache-3" class="node default"><rect height="78" width="163.421875" y="-39" x="-81.7109375" style="" class="basic label-container"/><g transform="translate(-51.7109375, -24)" style="" class="label"><rect/><foreignObject height="48" width="103.421875"><div style="display: table-cell; white-space: nowrap; line-height: 1.5; max-width: 200px; text-align: center;" xmlns="http://www.w3.org/1999/xhtml"><span class="nodeLabel"><p>Load entities<br />from database</p></span></div></foreignObject></g></g><g transform="translate(113.359375, 1355.875)" id="flowchart-InitialGen-5" class="node default"><rect height="54" width="183.703125" y="-27" x="-91.8515625" style="" class="basic label-container"/><g transform="translate(-61.8515625, -12)" style="" class="label"><rect/><foreignObject height="24" width="123.703125"><div style="display: table-cell; white-space: nowrap; line-height: 1.5; max-width: 200px; text-align: center;" xmlns="http://www.w3.org/1999/xhtml"><span class="nodeLabel"><p>Initial generation</p></span></div></foreignObject></g></g><g transform="translate(113.359375, 1571.671875)" id="flowchart-PreparePrompt-7" class="node default"><rect height="126" width="210.71875" y="-63" x="-105.359375" style="" class="basic label-container"/><g transform="translate(-75.359375, -48)" style="" class="label"><rect/><foreignObject height="96" width="150.71875"><div style="display: table-cell; white-space: nowrap; line-height: 1.5; max-width: 200px; text-align: center;" xmlns="http://www.w3.org/1999/xhtml"><span class="nodeLabel"><p>Prepare LLM prompt:<br />HTML content<br />Entity cap = 20<br />Ontology types</p></span></div></foreignObject></g></g><g transform="translate(244.71875, 1763.25)" id="flowchart-CallLLM-9" class="node default"><rect height="78" width="181.296875" y="-39" x="-90.6484375" style="fill:#fff4e6 !important" class="basic label-container"/><g transform="translate(-60.6484375, -24)" style="" class="label"><rect/><foreignObject height="48" width="121.296875"><div style="display: table-cell; white-space: nowrap; line-height: 1.5; max-width: 200px; text-align: center;" xmlns="http://www.w3.org/1999/xhtml"><span class="nodeLabel"><p>Call LLM for<br />entity extraction</p></span></div></foreignObject></g></g><g transform="translate(244.71875, 1998.265625)" id="flowchart-ParseResponse-11" class="node default"><polygon transform="translate(-82.4375,82.4375)" class="label-container" points="82.4375,0 164.875,-82.4375 82.4375,-164.875 0,-82.4375"/><g transform="translate(-31.4375, -36)" style="" class="label"><rect/><foreignObject height="72" width="62.875"><div style="display: table-cell; white-space: nowrap; line-height: 1.5; max-width: 200px; text-align: center;" xmlns="http://www.w3.org/1999/xhtml"><span class="nodeLabel"><p>Parse<br />response<br />valid?</p></span></div></foreignObject></g></g><g transform="translate(214.12109375, 2229.3399047851562)" id="flowchart-ShowError-13" class="node default"><rect height="78" width="137.71875" y="-39" x="-68.859375" style="fill:#fee2e2 !important" class="basic label-container"/><g transform="translate(-38.859375, -24)" style="" class="label"><rect/><foreignObject height="48" width="77.71875"><div style="display: table-cell; white-space: nowrap; line-height: 1.5; max-width: 200px; text-align: center;" xmlns="http://www.w3.org/1999/xhtml"><span class="nodeLabel"><p>Show error<br />to user</p></span></div></foreignObject></g></g><g transform="translate(814.0234375, 2229.3399047851562)" id="flowchart-StoreEntities-15" class="node default"><path transform="translate(-65.1328125, -74.63677541776336)" style="fill:#f0f9ff !important" class="basic label-container" d="M0,12.757850278508906 a65.1328125,12.757850278508906 0,0,0 130.265625,0 a65.1328125,12.757850278508906 0,0,0 -130.265625,0 l0,123.75785027850891 a65.1328125,12.757850278508906 0,0,0 130.265625,0 l0,-123.75785027850891"/><g transform="translate(-57.6328125, -38)" style="" class="label"><rect/><foreignObject height="96" width="115.265625"><div style="display: table-cell; white-space: nowrap; line-height: 1.5; max-width: 200px; text-align: center;" xmlns="http://www.w3.org/1999/xhtml"><span class="nodeLabel"><p>Store individual<br />entities in DB:<br />name, ontology,<br />explanations</p></span></div></foreignObject></g></g><g transform="translate(696.9765625, 560.609375)" id="flowchart-ProcessEntities-17" class="node default"><rect height="126" width="195.015625" y="-63" x="-97.5078125" style="" class="basic label-container"/><g transform="translate(-67.5078125, -48)" style="" class="label"><rect/><foreignObject height="96" width="135.015625"><div style="display: table-cell; white-space: nowrap; line-height: 1.5; max-width: 200px; text-align: center;" xmlns="http://www.w3.org/1999/xhtml"><span class="nodeLabel"><p>Process entities:<br />Track positions<br />Calculate scores<br />Sort by occurrence</p></span></div></foreignObject></g></g><g transform="translate(622.48828125, 736.609375)" id="flowchart-DisplayUI-19" class="node default"><rect height="126" width="227.953125" y="-63" x="-113.9765625" style="" class="basic label-container"/><g transform="translate(-83.9765625, -48)" style="" class="label"><rect/><foreignObject height="96" width="167.953125"><div style="display: table-cell; white-space: nowrap; line-height: 1.5; max-width: 200px; text-align: center;" xmlns="http://www.w3.org/1999/xhtml"><span class="nodeLabel"><p>Display in UI:<br />Name + ontology badge<br />Long explanation<br />Search box</p></span></div></foreignObject></g></g><g transform="translate(690.35546875, 950.34375)" id="flowchart-CheckMore-23" class="node default"><polygon transform="translate(-100.734375,100.734375)" class="label-container" points="100.734375,0 201.46875,-100.734375 100.734375,-201.46875 0,-100.734375"/><g transform="translate(-49.734375, -36)" style="" class="label"><rect/><foreignObject height="72" width="99.46875"><div style="display: table-cell; white-space: nowrap; line-height: 1.5; max-width: 200px; text-align: center;" xmlns="http://www.w3.org/1999/xhtml"><span class="nodeLabel"><p>LLM indicated<br />more entities<br />available?</p></span></div></foreignObject></g></g><g transform="translate(1160.28515625, 1571.671875)" id="flowchart-Complete-25" class="node default"><rect height="78" width="187.453125" y="-39" x="-93.7265625" style="fill:#d1fae5 !important" class="basic label-container"/><g transform="translate(-63.7265625, -24)" style="" class="label"><rect/><foreignObject height="48" width="127.453125"><div style="display: table-cell; white-space: nowrap; line-height: 1.5; max-width: 200px; text-align: center;" xmlns="http://www.w3.org/1999/xhtml"><span class="nodeLabel"><p>Complete:<br />All entities shown</p></span></div></foreignObject></g></g><g transform="translate(690.35546875, 1164.078125)" id="flowchart-ShowLoadMore-27" class="node default"><rect height="78" width="175.46875" y="-39" x="-87.734375" style="fill:#fef3c7 !important" class="basic label-container"/><g transform="translate(-57.734375, -24)" style="" class="label"><rect/><foreignObject height="48" width="115.46875"><div style="display: table-cell; white-space: nowrap; line-height: 1.5; max-width: 200px; text-align: center;" xmlns="http://www.w3.org/1999/xhtml"><span class="nodeLabel"><p>Show Load More<br />button</p></span></div></foreignObject></g></g><g transform="translate(690.35546875, 1355.875)" id="flowchart-UserLoadMore-29" class="node default"><polygon transform="translate(-78.796875,78.796875)" class="label-container" points="78.796875,0 157.59375,-78.796875 78.796875,-157.59375 0,-78.796875"/><g transform="translate(-39.796875, -24)" style="" class="label"><rect/><foreignObject height="48" width="79.59375"><div style="display: table-cell; white-space: nowrap; line-height: 1.5; max-width: 200px; text-align: center;" xmlns="http://www.w3.org/1999/xhtml"><span class="nodeLabel"><p>User clicks<br />Load More?</p></span></div></foreignObject></g></g><g transform="translate(376.078125, 1571.671875)" id="flowchart-PrepareMorePrompt-31" class="node default"><rect height="102" width="214.71875" y="-51" x="-107.359375" style="" class="basic label-container"/><g transform="translate(-77.359375, -36)" style="" class="label"><rect/><foreignObject height="72" width="154.71875"><div style="display: table-cell; white-space: nowrap; line-height: 1.5; max-width: 200px; text-align: center;" xmlns="http://www.w3.org/1999/xhtml"><span class="nodeLabel"><p>Prepare prompt with:<br />Skip count<br />Additional cap = 20</p></span></div></foreignObject></g></g><g transform="translate(961.12109375, 1763.25)" id="flowchart-UserInteract-37" class="node default"><polygon transform="translate(-78.578125,78.578125)" class="label-container" points="78.578125,0 157.15625,-78.578125 78.578125,-157.15625 0,-78.578125"/><g transform="translate(-39.578125, -24)" style="" class="label"><rect/><foreignObject height="48" width="79.15625"><div style="display: table-cell; white-space: nowrap; line-height: 1.5; max-width: 200px; text-align: center;" xmlns="http://www.w3.org/1999/xhtml"><span class="nodeLabel"><p>User<br />interaction</p></span></div></foreignObject></g></g><g transform="translate(532.69140625, 1998.265625)" id="flowchart-FilterEntities-39" class="node default"><rect height="78" width="164.578125" y="-39" x="-82.2890625" style="" class="basic label-container"/><g transform="translate(-52.2890625, -24)" style="" class="label"><rect/><foreignObject height="48" width="104.578125"><div style="display: table-cell; white-space: nowrap; line-height: 1.5; max-width: 200px; text-align: center;" xmlns="http://www.w3.org/1999/xhtml"><span class="nodeLabel"><p>Filter by name<br />and aliases</p></span></div></foreignObject></g></g><g transform="translate(1214.33203125, 1998.265625)" id="flowchart-NavigateDoc-41" class="node default"><rect height="78" width="220.234375" y="-39" x="-110.1171875" style="" class="basic label-container"/><g transform="translate(-80.1171875, -24)" style="" class="label"><rect/><foreignObject height="48" width="160.234375"><div style="display: table-cell; white-space: nowrap; line-height: 1.5; max-width: 200px; text-align: center;" xmlns="http://www.w3.org/1999/xhtml"><span class="nodeLabel"><p>Scroll to first<br />occurrence + highlight</p></span></div></foreignObject></g></g><g transform="translate(961.12109375, 1998.265625)" id="flowchart-ShowTooltip-43" class="node default"><rect height="78" width="186.1875" y="-39" x="-93.09375" style="" class="basic label-container"/><g transform="translate(-63.09375, -24)" style="" class="label"><rect/><foreignObject height="48" width="126.1875"><div style="display: table-cell; white-space: nowrap; line-height: 1.5; max-width: 200px; text-align: center;" xmlns="http://www.w3.org/1999/xhtml"><span class="nodeLabel"><p>Show tooltip with<br />explanation</p></span></div></foreignObject></g></g><g transform="translate(1214.33203125, 2229.3399047851562)" id="flowchart-HighlightText-47" class="node default"><rect height="102" width="182.578125" y="-51" x="-91.2890625" style="" class="basic label-container"/><g transform="translate(-61.2890625, -36)" style="" class="label"><rect/><foreignObject height="72" width="122.578125"><div style="display: table-cell; white-space: nowrap; line-height: 1.5; max-width: 200px; text-align: center;" xmlns="http://www.w3.org/1999/xhtml"><span class="nodeLabel"><p>Highlight all<br />occurrences with<br />orange underline</p></span></div></foreignObject></g></g><g transform="translate(757.6484375, 2373.4766845703125)" id="flowchart-End-49" class="node default"><rect height="39" width="50.984375" y="-19.5" x="-25.4921875" ry="19.5" rx="19.5" style="fill:#e8f4f8 !important" class="basic label-container"/><g transform="translate(-13.1171875, -12)" style="" class="label"><rect/><foreignObject height="24" width="26.234375"><div style="display: table-cell; white-space: nowrap; line-height: 1.5; max-width: 200px; text-align: center;" xmlns="http://www.w3.org/1999/xhtml"><span class="nodeLabel"><p>End</p></span></div></foreignObject></g></g></g></g></g></svg>