<svg aria-roledescription="flowchart-v2" role="graphics-document document" viewBox="0 0 2984.95703125 2146" style="max-width: 2984.96px; background-color: transparent;" class="flowchart" xmlns:xlink="http://www.w3.org/1999/xlink" xmlns="http://www.w3.org/2000/svg" width="100%" id="my-svg"><style>#my-svg{font-family:"trebuchet ms",verdana,arial,sans-serif;font-size:16px;fill:#333;}@keyframes edge-animation-frame{from{stroke-dashoffset:0;}}@keyframes dash{to{stroke-dashoffset:0;}}#my-svg .edge-animation-slow{stroke-dasharray:9,5!important;stroke-dashoffset:900;animation:dash 50s linear infinite;stroke-linecap:round;}#my-svg .edge-animation-fast{stroke-dasharray:9,5!important;stroke-dashoffset:900;animation:dash 20s linear infinite;stroke-linecap:round;}#my-svg .error-icon{fill:#552222;}#my-svg .error-text{fill:#552222;stroke:#552222;}#my-svg .edge-thickness-normal{stroke-width:1px;}#my-svg .edge-thickness-thick{stroke-width:3.5px;}#my-svg .edge-pattern-solid{stroke-dasharray:0;}#my-svg .edge-thickness-invisible{stroke-width:0;fill:none;}#my-svg .edge-pattern-dashed{stroke-dasharray:3;}#my-svg .edge-pattern-dotted{stroke-dasharray:2;}#my-svg .marker{fill:#333333;stroke:#333333;}#my-svg .marker.cross{stroke:#333333;}#my-svg svg{font-family:"trebuchet ms",verdana,arial,sans-serif;font-size:16px;}#my-svg p{margin:0;}#my-svg .label{font-family:"trebuchet ms",verdana,arial,sans-serif;color:#333;}#my-svg .cluster-label text{fill:#333;}#my-svg .cluster-label span{color:#333;}#my-svg .cluster-label span p{background-color:transparent;}#my-svg .label text,#my-svg span{fill:#333;color:#333;}#my-svg .node rect,#my-svg .node circle,#my-svg .node ellipse,#my-svg .node polygon,#my-svg .node path{fill:#ECECFF;stroke:#9370DB;stroke-width:1px;}#my-svg .rough-node .label text,#my-svg .node .label text,#my-svg .image-shape .label,#my-svg .icon-shape .label{text-anchor:middle;}#my-svg .node .katex path{fill:#000;stroke:#000;stroke-width:1px;}#my-svg .rough-node .label,#my-svg .node .label,#my-svg .image-shape .label,#my-svg .icon-shape .label{text-align:center;}#my-svg .node.clickable{cursor:pointer;}#my-svg .root .anchor path{fill:#333333!important;stroke-width:0;stroke:#333333;}#my-svg .arrowheadPath{fill:#333333;}#my-svg .edgePath .path{stroke:#333333;stroke-width:2.0px;}#my-svg .flowchart-link{stroke:#333333;fill:none;}#my-svg .edgeLabel{background-color:rgba(232,232,232, 0.8);text-align:center;}#my-svg .edgeLabel p{background-color:rgba(232,232,232, 0.8);}#my-svg .edgeLabel rect{opacity:0.5;background-color:rgba(232,232,232, 0.8);fill:rgba(232,232,232, 0.8);}#my-svg .labelBkg{background-color:rgba(232, 232, 232, 0.5);}#my-svg .cluster rect{fill:#ffffde;stroke:#aaaa33;stroke-width:1px;}#my-svg .cluster text{fill:#333;}#my-svg .cluster span{color:#333;}#my-svg div.mermaidTooltip{position:absolute;text-align:center;max-width:200px;padding:2px;font-family:"trebuchet ms",verdana,arial,sans-serif;font-size:12px;background:hsl(80, 100%, 96.2745098039%);border:1px solid #aaaa33;border-radius:2px;pointer-events:none;z-index:100;}#my-svg .flowchartTitleText{text-anchor:middle;font-size:18px;fill:#333;}#my-svg rect.text{fill:none;stroke-width:0;}#my-svg .icon-shape,#my-svg .image-shape{background-color:rgba(232,232,232, 0.8);text-align:center;}#my-svg .icon-shape p,#my-svg .image-shape p{background-color:rgba(232,232,232, 0.8);padding:2px;}#my-svg .icon-shape rect,#my-svg .image-shape rect{opacity:0.5;background-color:rgba(232,232,232, 0.8);fill:rgba(232,232,232, 0.8);}#my-svg .label-icon{display:inline-block;height:1em;overflow:visible;vertical-align:-0.125em;}#my-svg .node .label-icon path{fill:currentColor;stroke:revert;stroke-width:revert;}#my-svg :root{--mermaid-font-family:"trebuchet ms",verdana,arial,sans-serif;}#my-svg .browser&gt;*{fill:#e0f2fe!important;}#my-svg .browser span{fill:#e0f2fe!important;}#my-svg .react&gt;*{fill:#d1fae5!important;}#my-svg .react span{fill:#d1fae5!important;}#my-svg .ui&gt;*{fill:#fef3c7!important;}#my-svg .ui span{fill:#fef3c7!important;}#my-svg .backend&gt;*{fill:#e9d5ff!important;}#my-svg .backend span{fill:#e9d5ff!important;}#my-svg .context&gt;*{fill:#fed7aa!important;}#my-svg .context span{fill:#fed7aa!important;}#my-svg .data&gt;*{fill:#f3f4f6!important;}#my-svg .data span{fill:#f3f4f6!important;}</style><g><marker orient="auto" markerHeight="8" markerWidth="8" markerUnits="userSpaceOnUse" refY="5" refX="5" viewBox="0 0 10 10" class="marker flowchart-v2" id="my-svg_flowchart-v2-pointEnd"><path style="stroke-width: 1; stroke-dasharray: 1, 0;" class="arrowMarkerPath" d="M 0 0 L 10 5 L 0 10 z"/></marker><marker orient="auto" markerHeight="8" markerWidth="8" markerUnits="userSpaceOnUse" refY="5" refX="4.5" viewBox="0 0 10 10" class="marker flowchart-v2" id="my-svg_flowchart-v2-pointStart"><path style="stroke-width: 1; stroke-dasharray: 1, 0;" class="arrowMarkerPath" d="M 0 5 L 10 10 L 10 0 z"/></marker><marker orient="auto" markerHeight="11" markerWidth="11" markerUnits="userSpaceOnUse" refY="5" refX="11" viewBox="0 0 10 10" class="marker flowchart-v2" id="my-svg_flowchart-v2-circleEnd"><circle style="stroke-width: 1; stroke-dasharray: 1, 0;" class="arrowMarkerPath" r="5" cy="5" cx="5"/></marker><marker orient="auto" markerHeight="11" markerWidth="11" markerUnits="userSpaceOnUse" refY="5" refX="-1" viewBox="0 0 10 10" class="marker flowchart-v2" id="my-svg_flowchart-v2-circleStart"><circle style="stroke-width: 1; stroke-dasharray: 1, 0;" class="arrowMarkerPath" r="5" cy="5" cx="5"/></marker><marker orient="auto" markerHeight="11" markerWidth="11" markerUnits="userSpaceOnUse" refY="5.2" refX="12" viewBox="0 0 11 11" class="marker cross flowchart-v2" id="my-svg_flowchart-v2-crossEnd"><path style="stroke-width: 2; stroke-dasharray: 1, 0;" class="arrowMarkerPath" d="M 1,1 l 9,9 M 10,1 l -9,9"/></marker><marker orient="auto" markerHeight="11" markerWidth="11" markerUnits="userSpaceOnUse" refY="5.2" refX="-1" viewBox="0 0 11 11" class="marker cross flowchart-v2" id="my-svg_flowchart-v2-crossStart"><path style="stroke-width: 2; stroke-dasharray: 1, 0;" class="arrowMarkerPath" d="M 1,1 l 9,9 M 10,1 l -9,9"/></marker><g class="root"><g class="clusters"><g data-look="classic" id="Context" class="cluster context"><rect height="176" width="381.0625" y="1246" x="358" style="fill:#fed7aa !important"/><g transform="translate(448.53125, 1246)" class="cluster-label"><foreignObject height="48" width="200"><div style="display: table; white-space: break-spaces; line-height: 1.5; max-width: 200px; text-align: center; width: 200px;" xmlns="http://www.w3.org/1999/xhtml"><span class="nodeLabel"><p>📡 Cross-Pane Communication</p></span></div></foreignObject></g></g><g data-look="classic" id="CSSSystem" class="cluster ui"><rect height="892" width="330" y="1246" x="8" style="fill:#fef3c7 !important"/><g transform="translate(86.9375, 1246)" class="cluster-label"><foreignObject height="24" width="172.125"><div style="display: table-cell; white-space: nowrap; line-height: 1.5; max-width: 200px; text-align: center;" xmlns="http://www.w3.org/1999/xhtml"><span class="nodeLabel"><p>🎨 CSS Intensity System</p></span></div></foreignObject></g></g><g data-look="classic" id="Backend" class="cluster backend"><rect height="448" width="486.703125" y="700" x="129.6796875" style="fill:#e9d5ff !important"/><g transform="translate(299.2109375, 700)" class="cluster-label"><foreignObject height="24" width="147.640625"><div style="display: table-cell; white-space: nowrap; line-height: 1.5; max-width: 200px; text-align: center;" xmlns="http://www.w3.org/1999/xhtml"><span class="nodeLabel"><p>☁️ Backend Services</p></span></div></foreignObject></g></g><g data-look="classic" id="UIComponents" class="cluster ui"><rect height="1295" width="1543.28125" y="402" x="759.0625" style="fill:#fef3c7 !important"/><g transform="translate(1464.484375, 402)" class="cluster-label"><foreignObject height="24" width="132.4375"><div style="display: table-cell; white-space: nowrap; line-height: 1.5; max-width: 200px; text-align: center;" xmlns="http://www.w3.org/1999/xhtml"><span class="nodeLabel"><p>🎨 UI Components</p></span></div></foreignObject></g></g><g data-look="classic" id="ReactState" class="cluster react"><rect height="448" width="359.61328125" y="700" x="2322.34375" style="fill:#d1fae5 !important"/><g transform="translate(2402.150390625, 700)" class="cluster-label"><foreignObject height="48" width="200"><div style="display: table; white-space: break-spaces; line-height: 1.5; max-width: 200px; text-align: center; width: 200px;" xmlns="http://www.w3.org/1999/xhtml"><span class="nodeLabel"><p>⚛️ React State Management</p></span></div></foreignObject></g></g><g data-look="classic" id="Browser" class="cluster browser"><rect height="296" width="325.6875" y="8" x="1227.79296875" style="fill:#e0f2fe !important"/><g transform="translate(1327.55078125, 8)" class="cluster-label"><foreignObject height="24" width="126.171875"><div style="display: table-cell; white-space: nowrap; line-height: 1.5; max-width: 200px; text-align: center;" xmlns="http://www.w3.org/1999/xhtml"><span class="nodeLabel"><p>🖥️ Browser Layer</p></span></div></foreignObject></g></g><g data-look="classic" id="DocView" class="cluster ui"><rect height="176" width="307.84375" y="1496" x="807.79296875" style="fill:#fef3c7 !important"/><g transform="translate(906.07421875, 1496)" class="cluster-label"><foreignObject height="24" width="111.28125"><div style="display: table-cell; white-space: nowrap; line-height: 1.5; max-width: 200px; text-align: center;" xmlns="http://www.w3.org/1999/xhtml"><span class="nodeLabel"><p>Document View</p></span></div></foreignObject></g></g><g data-look="classic" id="LeftPane" class="cluster ui"><rect height="1245" width="926.70703125" y="427" x="1135.63671875" style="fill:#fef3c7 !important"/><g transform="translate(1565.013671875, 427)" class="cluster-label"><foreignObject height="24" width="67.953125"><div style="display: table-cell; white-space: nowrap; line-height: 1.5; max-width: 200px; text-align: center;" xmlns="http://www.w3.org/1999/xhtml"><span class="nodeLabel"><p>Left Pane</p></span></div></foreignObject></g></g></g><g class="edgePaths"><path marker-end="url(#my-svg_flowchart-v2-pointEnd)" style="" class="edge-thickness-normal edge-pattern-solid edge-thickness-normal edge-pattern-solid flowchart-link" id="L_User_HighlightMgmt_0" d="M1381.143,175.5L1365.226,196.917C1349.308,218.333,1317.472,261.167,1301.555,290.75C1285.637,320.333,1285.637,336.667,1285.637,353C1285.637,369.333,1285.637,385.667,1285.637,398C1285.637,410.333,1285.637,418.667,1310.004,432.19C1334.371,445.714,1383.106,464.428,1407.473,473.786L1431.84,483.143"/><path marker-end="url(#my-svg_flowchart-v2-pointEnd)" style="" class="edge-thickness-normal edge-pattern-solid edge-thickness-normal edge-pattern-solid flowchart-link" id="L_User_HighlightMgmt_2" d="M1410.13,175.5L1426.048,196.917C1441.966,218.333,1473.801,261.167,1489.719,290.75C1505.637,320.333,1505.637,336.667,1505.637,353C1505.637,369.333,1505.637,385.667,1505.637,398C1505.637,410.333,1505.637,418.667,1507.071,426.382C1508.505,434.097,1511.373,441.194,1512.807,444.743L1514.241,448.291"/><path marker-end="url(#my-svg_flowchart-v2-pointEnd)" style="" class="edge-thickness-normal edge-pattern-solid edge-thickness-normal edge-pattern-solid flowchart-link" id="L_HighlightMgmt_API_0" d="M1435.574,574.171L1405.585,586.976C1375.595,599.781,1315.616,625.39,1285.626,646.362C1255.637,667.333,1255.637,683.667,1133.429,708.016C1011.222,732.365,766.806,764.729,644.599,780.912L522.391,797.094"/><path marker-end="url(#my-svg_flowchart-v2-pointEnd)" style="" class="edge-thickness-normal edge-pattern-solid edge-thickness-normal edge-pattern-solid flowchart-link" id="L_API_LLM_0" d="M326.399,887L315.09,897.167C303.782,907.333,281.164,927.667,269.856,949.333C258.547,971,258.547,994,258.547,1005.5L258.547,1017"/><path marker-end="url(#my-svg_flowchart-v2-pointEnd)" style="" class="edge-thickness-normal edge-pattern-solid edge-thickness-normal edge-pattern-solid flowchart-link" id="L_API_Cache_0" d="M428.143,887L430.627,897.167C433.11,907.333,438.076,927.667,444.43,947.674C450.784,967.681,458.525,987.361,462.396,997.201L466.266,1007.042"/><path marker-end="url(#my-svg_flowchart-v2-pointEnd)" style="" class="edge-thickness-normal edge-pattern-solid edge-thickness-normal edge-pattern-solid flowchart-link" id="L_Cache_API_0" d="M511.727,1011.106L516.732,1000.589C521.736,990.071,531.745,969.035,527.351,948.83C522.958,928.624,504.161,909.247,494.763,899.559L485.365,889.871"/><path marker-end="url(#my-svg_flowchart-v2-pointEnd)" style="" class="edge-thickness-normal edge-pattern-solid edge-thickness-normal edge-pattern-solid flowchart-link" id="L_API_HighlightMgmt_0" d="M518.426,800.588L677.961,783.823C837.496,767.058,1156.566,733.529,1316.102,708.598C1475.637,683.667,1475.637,667.333,1479.945,651.58C1484.253,635.826,1492.87,620.652,1497.178,613.065L1501.486,605.478"/><path marker-end="url(#my-svg_flowchart-v2-pointEnd)" style="" class="edge-thickness-normal edge-pattern-solid edge-thickness-normal edge-pattern-solid flowchart-link" id="L_HighlightMgmt_PropsFlow_0" d="M1656.527,561.568L1704.163,576.473C1751.799,591.379,1847.072,621.189,1894.708,644.261C1942.344,667.333,1942.344,683.667,2010.857,705.837C2079.371,728.008,2216.398,756.016,2284.911,770.02L2353.425,784.024"/><path marker-end="url(#my-svg_flowchart-v2-pointEnd)" style="" class="edge-thickness-normal edge-pattern-solid edge-thickness-normal edge-pattern-solid flowchart-link" id="L_PropsFlow_PageClient_0" d="M2490.297,875L2490.297,887.167C2490.297,899.333,2490.297,923.667,2492.086,943.351C2493.876,963.036,2497.455,978.072,2499.245,985.591L2501.034,993.109"/><path marker-end="url(#my-svg_flowchart-v2-pointEnd)" style="" class="edge-thickness-normal edge-pattern-solid edge-thickness-normal edge-pattern-solid flowchart-link" id="L_PageClient_ResizableLayout_0" d="M2516.957,1123L2516.957,1127.167C2516.957,1131.333,2516.957,1139.667,2461.188,1152C2405.419,1164.333,2293.882,1180.667,2238.113,1197C2182.344,1213.333,2182.344,1229.667,1995.368,1250.949C1808.391,1272.232,1434.439,1298.464,1247.463,1311.58L1060.486,1324.696"/><path marker-end="url(#my-svg_flowchart-v2-pointEnd)" style="" class="edge-thickness-normal edge-pattern-solid edge-thickness-normal edge-pattern-solid flowchart-link" id="L_ResizableLayout_UnifiedLeft_0" d="M1056.496,1352.033L1139.686,1363.694C1222.876,1375.355,1389.257,1398.678,1472.447,1416.506C1555.637,1434.333,1555.637,1446.667,1555.637,1459C1555.637,1471.333,1555.637,1483.667,1555.637,1497.333C1555.637,1511,1555.637,1526,1555.637,1533.5L1555.637,1541"/><path marker-end="url(#my-svg_flowchart-v2-pointEnd)" style="" class="edge-thickness-normal edge-pattern-solid edge-thickness-normal edge-pattern-solid flowchart-link" id="L_ResizableLayout_SimpleDoc_0" d="M927.848,1373L927.848,1381.167C927.848,1389.333,927.848,1405.667,927.848,1420C927.848,1434.333,927.848,1446.667,927.848,1459C927.848,1471.333,927.848,1483.667,929.212,1493.378C930.576,1503.089,933.304,1510.178,934.668,1513.722L936.032,1517.267"/><path marker-end="url(#my-svg_flowchart-v2-pointEnd)" style="" class="edge-thickness-normal edge-pattern-solid edge-thickness-normal edge-pattern-solid flowchart-link" id="L_SimpleDoc_CSS_0" d="M961.715,1647L961.715,1651.167C961.715,1655.333,961.715,1663.667,961.715,1672C961.715,1680.333,961.715,1688.667,830.262,1701C698.81,1713.333,435.905,1729.667,304.452,1745.333C173,1761,173,1776,173,1783.5L173,1791"/><path marker-end="url(#my-svg_flowchart-v2-pointEnd)" style="" class="edge-thickness-normal edge-pattern-solid edge-thickness-normal edge-pattern-solid flowchart-link" id="L_Utils_SimpleDoc_0" d="M173,1385L173,1391.167C173,1397.333,173,1409.667,173,1422C173,1434.333,173,1446.667,173,1459C173,1471.333,173,1483.667,283.97,1502.215C394.939,1520.763,616.878,1545.525,727.848,1557.907L838.818,1570.288"/><path marker-end="url(#my-svg_flowchart-v2-pointEnd)" style="" class="edge-thickness-normal edge-pattern-solid edge-thickness-normal edge-pattern-solid flowchart-link" id="L_HighlightMgmt_DocContext_0" d="M1656.527,576.582L1684.163,588.985C1711.799,601.388,1767.072,626.194,1794.708,646.764C1822.344,667.333,1822.344,683.667,1822.344,710.5C1822.344,737.333,1822.344,774.667,1822.344,816C1822.344,857.333,1822.344,902.667,1822.344,944C1822.344,985.333,1822.344,1022.667,1822.344,1056C1822.344,1089.333,1822.344,1118.667,1822.344,1141.5C1822.344,1164.333,1822.344,1180.667,1822.344,1197C1822.344,1213.333,1822.344,1229.667,1636.629,1250.663C1450.913,1271.66,1079.483,1297.32,893.768,1310.15L708.053,1322.98"/><path marker-end="url(#my-svg_flowchart-v2-pointEnd)" style="" class="edge-thickness-normal edge-pattern-solid edge-thickness-normal edge-pattern-solid flowchart-link" id="L_DocContext_SimpleDoc_0" d="M548.531,1397L548.531,1401.167C548.531,1405.333,548.531,1413.667,626.244,1424C703.957,1434.333,859.383,1446.667,937.096,1459C1014.809,1471.333,1014.809,1483.667,1012.639,1493.429C1010.47,1503.192,1006.131,1510.383,1003.961,1513.979L1001.792,1517.575"/><path marker-end="url(#my-svg_flowchart-v2-pointEnd)" style="" class="edge-thickness-normal edge-pattern-dotted edge-thickness-normal edge-pattern-solid flowchart-link" id="L_note1_HighlightMgmt_0" d="M2042.344,279L2042.344,283.167C2042.344,287.333,2042.344,295.667,2042.344,308C2042.344,320.333,2042.344,336.667,2042.344,353C2042.344,369.333,2042.344,385.667,2042.344,398C2042.344,410.333,2042.344,418.667,1978.695,435.658C1915.045,452.65,1787.747,478.3,1724.098,491.125L1660.449,503.95"/><path marker-end="url(#my-svg_flowchart-v2-pointEnd)" style="" class="edge-thickness-normal edge-pattern-dotted edge-thickness-normal edge-pattern-solid flowchart-link" id="L_note2_PageClient_0" d="M2716.957,880.66L2695.707,891.883C2674.457,903.107,2631.957,925.553,2605.783,944.384C2579.609,963.214,2569.76,978.428,2564.836,986.035L2559.912,993.642"/></g><g class="edgeLabels"><g transform="translate(1285.63671875, 353)" class="edgeLabel"><g transform="translate(-100, -24)" class="label"><foreignObject height="48" width="200"><div style="display: table; white-space: break-spaces; line-height: 1.5; max-width: 200px; text-align: center; width: 200px;" class="labelBkg" xmlns="http://www.w3.org/1999/xhtml"><span class="edgeLabel">Unsupported markdown: list</span></div></foreignObject></g></g><g transform="translate(1505.63671875, 353)" class="edgeLabel"><g transform="translate(-100, -24)" class="label"><foreignObject height="48" width="200"><div style="display: table; white-space: break-spaces; line-height: 1.5; max-width: 200px; text-align: center; width: 200px;" class="labelBkg" xmlns="http://www.w3.org/1999/xhtml"><span class="edgeLabel">Unsupported markdown: list</span></div></foreignObject></g></g><g transform="translate(1255.63671875, 651)" class="edgeLabel"><g transform="translate(-100, -24)" class="label"><foreignObject height="48" width="200"><div style="display: table; white-space: break-spaces; line-height: 1.5; max-width: 200px; text-align: center; width: 200px;" class="labelBkg" xmlns="http://www.w3.org/1999/xhtml"><span class="edgeLabel">Unsupported markdown: list</span></div></foreignObject></g></g><g transform="translate(258.546875, 948)" class="edgeLabel"><g transform="translate(-100, -24)" class="label"><foreignObject height="48" width="200"><div style="display: table; white-space: break-spaces; line-height: 1.5; max-width: 200px; text-align: center; width: 200px;" class="labelBkg" xmlns="http://www.w3.org/1999/xhtml"><span class="edgeLabel">Unsupported markdown: list</span></div></foreignObject></g></g><g transform="translate(443.04296875, 948)" class="edgeLabel"><g transform="translate(-44.7890625, -12)" class="label"><foreignObject height="24" width="89.578125"><div style="display: table-cell; white-space: nowrap; line-height: 1.5; max-width: 200px; text-align: center;" class="labelBkg" xmlns="http://www.w3.org/1999/xhtml"><span class="edgeLabel"><p>Check cache</p></span></div></foreignObject></g></g><g transform="translate(541.75390625, 948)" class="edgeLabel"><g transform="translate(-33.921875, -12)" class="label"><foreignObject height="24" width="67.84375"><div style="display: table-cell; white-space: nowrap; line-height: 1.5; max-width: 200px; text-align: center;" class="labelBkg" xmlns="http://www.w3.org/1999/xhtml"><span class="edgeLabel"><p>Cache hit</p></span></div></foreignObject></g></g><g transform="translate(1475.63671875, 651)" class="edgeLabel"><g transform="translate(-100, -24)" class="label"><foreignObject height="48" width="200"><div style="display: table; white-space: break-spaces; line-height: 1.5; max-width: 200px; text-align: center; width: 200px;" class="labelBkg" xmlns="http://www.w3.org/1999/xhtml"><span class="edgeLabel">Unsupported markdown: list</span></div></foreignObject></g></g><g transform="translate(1942.34375, 651)" class="edgeLabel"><g transform="translate(-100, -24)" class="label"><foreignObject height="48" width="200"><div style="display: table; white-space: break-spaces; line-height: 1.5; max-width: 200px; text-align: center; width: 200px;" class="labelBkg" xmlns="http://www.w3.org/1999/xhtml"><span class="edgeLabel">Unsupported markdown: list</span></div></foreignObject></g></g><g transform="translate(2490.296875, 948)" class="edgeLabel"><g transform="translate(-30.3671875, -12)" class="label"><foreignObject height="24" width="60.734375"><div style="display: table-cell; white-space: nowrap; line-height: 1.5; max-width: 200px; text-align: center;" class="labelBkg" xmlns="http://www.w3.org/1999/xhtml"><span class="edgeLabel"><p>Callback</p></span></div></foreignObject></g></g><g transform="translate(2182.34375, 1197)" class="edgeLabel"><g transform="translate(-100, -24)" class="label"><foreignObject height="48" width="200"><div style="display: table; white-space: break-spaces; line-height: 1.5; max-width: 200px; text-align: center; width: 200px;" class="labelBkg" xmlns="http://www.w3.org/1999/xhtml"><span class="edgeLabel">Unsupported markdown: list</span></div></foreignObject></g></g><g class="edgeLabel"><g transform="translate(0, 0)" class="label"><foreignObject height="0" width="0"><div style="display: table-cell; white-space: nowrap; line-height: 1.5; max-width: 200px; text-align: center;" class="labelBkg" xmlns="http://www.w3.org/1999/xhtml"><span class="edgeLabel"></span></div></foreignObject></g></g><g class="edgeLabel"><g transform="translate(0, 0)" class="label"><foreignObject height="0" width="0"><div style="display: table-cell; white-space: nowrap; line-height: 1.5; max-width: 200px; text-align: center;" class="labelBkg" xmlns="http://www.w3.org/1999/xhtml"><span class="edgeLabel"></span></div></foreignObject></g></g><g transform="translate(173, 1746)" class="edgeLabel"><g transform="translate(-100, -24)" class="label"><foreignObject height="48" width="200"><div style="display: table; white-space: break-spaces; line-height: 1.5; max-width: 200px; text-align: center; width: 200px;" class="labelBkg" xmlns="http://www.w3.org/1999/xhtml"><span class="edgeLabel">Unsupported markdown: list</span></div></foreignObject></g></g><g class="edgeLabel"><g transform="translate(0, 0)" class="label"><foreignObject height="0" width="0"><div style="display: table-cell; white-space: nowrap; line-height: 1.5; max-width: 200px; text-align: center;" class="labelBkg" xmlns="http://www.w3.org/1999/xhtml"><span class="edgeLabel"></span></div></foreignObject></g></g><g transform="translate(1822.34375, 948)" class="edgeLabel"><g transform="translate(-100, -24)" class="label"><foreignObject height="48" width="200"><div style="display: table; white-space: break-spaces; line-height: 1.5; max-width: 200px; text-align: center; width: 200px;" class="labelBkg" xmlns="http://www.w3.org/1999/xhtml"><span class="edgeLabel">Unsupported markdown: list</span></div></foreignObject></g></g><g transform="translate(1014.80859375, 1459)" class="edgeLabel"><g transform="translate(-47.734375, -12)" class="label"><foreignObject height="24" width="95.46875"><div style="display: table-cell; white-space: nowrap; line-height: 1.5; max-width: 200px; text-align: center;" class="labelBkg" xmlns="http://www.w3.org/1999/xhtml"><span class="edgeLabel"><p>Scroll + pulse</p></span></div></foreignObject></g></g><g class="edgeLabel"><g transform="translate(0, 0)" class="label"><foreignObject height="0" width="0"><div style="display: table-cell; white-space: nowrap; line-height: 1.5; max-width: 200px; text-align: center;" class="labelBkg" xmlns="http://www.w3.org/1999/xhtml"><span class="edgeLabel"></span></div></foreignObject></g></g><g class="edgeLabel"><g transform="translate(0, 0)" class="label"><foreignObject height="0" width="0"><div style="display: table-cell; white-space: nowrap; line-height: 1.5; max-width: 200px; text-align: center;" class="labelBkg" xmlns="http://www.w3.org/1999/xhtml"><span class="edgeLabel"></span></div></foreignObject></g></g></g><g class="nodes"><g transform="translate(1395.63671875, 156)" id="flowchart-User-0" class="node default browser"><rect height="39" width="81.375" y="-19.5" x="-40.6875" ry="19.5" rx="19.5" style="fill:#e0f2fe !important" class="basic label-container"/><g transform="translate(-28.3125, -12)" style="" class="label"><rect/><foreignObject height="24" width="56.625"><div style="display: table-cell; white-space: nowrap; line-height: 1.5; max-width: 200px; text-align: center;" xmlns="http://www.w3.org/1999/xhtml"><span class="nodeLabel"><p>👤 User</p></span></div></foreignObject></g></g><g transform="translate(2516.95703125, 1060)" id="flowchart-PageClient-1" class="node default react"><rect height="126" width="260" y="-63" x="-130" style="fill:#d1fae5 !important" class="basic label-container"/><g transform="translate(-100, -48)" style="" class="label"><rect/><foreignObject height="96" width="200"><div style="display: table; white-space: break-spaces; line-height: 1.5; max-width: 200px; text-align: center; width: 200px;" xmlns="http://www.w3.org/1999/xhtml"><span class="nodeLabel"><p><b>page-client.tsx</b><br /><i>State Owner</i><br />semanticHighlights: SemanticHighlight[]</p></span></div></foreignObject></g></g><g transform="translate(2490.296875, 812)" id="flowchart-PropsFlow-2" class="node default react"><rect height="126" width="265.90625" y="-63" x="-132.953125" style="fill:#d1fae5 !important" class="basic label-container"/><g transform="translate(-102.953125, -48)" style="" class="label"><rect/><foreignObject height="96" width="205.90625"><div style="display: table; white-space: break-spaces; line-height: 1.5; max-width: 200px; text-align: center; width: 200px;" xmlns="http://www.w3.org/1999/xhtml"><span class="nodeLabel"><p><b>Props Threading</b><br />↓ semanticHighlights<br />↑ onSemanticHighlightsChange</p></span></div></foreignObject></g></g><g transform="translate(927.84765625, 1334)" id="flowchart-ResizableLayout-3" class="node default ui"><rect height="78" width="257.296875" y="-39" x="-128.6484375" style="fill:#fef3c7 !important" class="basic label-container"/><g transform="translate(-98.6484375, -24)" style="" class="label"><rect/><foreignObject height="48" width="197.296875"><div style="display: table-cell; white-space: nowrap; line-height: 1.5; max-width: 200px; text-align: center;" xmlns="http://www.w3.org/1999/xhtml"><span class="nodeLabel"><p><b>ResizableDocumentLayout</b><br /><i>Props passthrough</i></p></span></div></foreignObject></g></g><g transform="translate(1555.63671875, 1584)" id="flowchart-UnifiedLeft-4" class="node default ui"><rect height="78" width="180.34375" y="-39" x="-90.171875" style="fill:#fef3c7 !important" class="basic label-container"/><g transform="translate(-60.171875, -24)" style="" class="label"><rect/><foreignObject height="48" width="120.34375"><div style="display: table-cell; white-space: nowrap; line-height: 1.5; max-width: 200px; text-align: center;" xmlns="http://www.w3.org/1999/xhtml"><span class="nodeLabel"><p><b>UnifiedLeftPane</b><br /><i>Tab container</i></p></span></div></foreignObject></g></g><g transform="translate(1546.05078125, 527)" id="flowchart-HighlightMgmt-5" class="node default ui"><rect height="150" width="220.953125" y="-75" x="-110.4765625" style="fill:#fef3c7 !important" class="basic label-container"/><g transform="translate(-80.4765625, -60)" style="" class="label"><rect/><foreignObject height="120" width="160.953125"><div style="display: table-cell; white-space: nowrap; line-height: 1.5; max-width: 200px; text-align: center;" xmlns="http://www.w3.org/1999/xhtml"><span class="nodeLabel"><p><b>HighlightManagement</b><br /><i>Creation UI</i><br />• Criterion input<br />• Query history<br />• Results list</p></span></div></foreignObject></g></g><g transform="translate(961.71484375, 1584)" id="flowchart-SimpleDoc-6" class="node default ui"><rect height="126" width="237.84375" y="-63" x="-118.921875" style="fill:#fef3c7 !important" class="basic label-container"/><g transform="translate(-88.921875, -48)" style="" class="label"><rect/><foreignObject height="96" width="177.84375"><div style="display: table-cell; white-space: nowrap; line-height: 1.5; max-width: 200px; text-align: center;" xmlns="http://www.w3.org/1999/xhtml"><span class="nodeLabel"><p><b>SimpleDocumentViewer</b><br /><i>Display renderer</i><br />• Apply CSS classes<br />• Handle interactions</p></span></div></foreignObject></g></g><g transform="translate(409.82421875, 812)" id="flowchart-API-7" class="node default backend"><rect height="150" width="217.203125" y="-75" x="-108.6015625" style="fill:#e9d5ff !important" class="basic label-container"/><g transform="translate(-78.6015625, -60)" style="" class="label"><rect/><foreignObject height="120" width="157.203125"><div style="display: table-cell; white-space: nowrap; line-height: 1.5; max-width: 200px; text-align: center;" xmlns="http://www.w3.org/1999/xhtml"><span class="nodeLabel"><p><b>/api/semantic-search</b><br /><i>LLM Analysis</i><br />• Element matching<br />• Confidence scoring<br />• Result caching</p></span></div></foreignObject></g></g><g transform="translate(258.546875, 1060)" id="flowchart-LLM-8" class="node default backend"><rect height="78" width="187.734375" y="-39" x="-93.8671875" style="fill:#e9d5ff !important" class="basic label-container"/><g transform="translate(-63.8671875, -24)" style="" class="label"><rect/><foreignObject height="48" width="127.734375"><div style="display: table-cell; white-space: nowrap; line-height: 1.5; max-width: 200px; text-align: center;" xmlns="http://www.w3.org/1999/xhtml"><span class="nodeLabel"><p><b>LLM Provider</b><br /><i>Semantic Analysis</i></p></span></div></foreignObject></g></g><g transform="translate(487.58203125, 1060)" id="flowchart-Cache-9" class="node default backend"><path transform="translate(-60.3359375, -49.919671818355276)" style="fill:#e9d5ff !important" class="basic label-container" d="M0,12.279781212236848 a60.3359375,12.279781212236848 0,0,0 120.671875,0 a60.3359375,12.279781212236848 0,0,0 -120.671875,0 l0,75.27978121223686 a60.3359375,12.279781212236848 0,0,0 120.671875,0 l0,-75.27978121223686"/><g transform="translate(-52.8359375, -14)" style="" class="label"><rect/><foreignObject height="48" width="105.671875"><div style="display: table-cell; white-space: nowrap; line-height: 1.5; max-width: 200px; text-align: center;" xmlns="http://www.w3.org/1999/xhtml"><span class="nodeLabel"><p><b>Cache Storage</b><br /><i>Query results</i></p></span></div></foreignObject></g></g><g transform="translate(173, 1954)" id="flowchart-CSS-10" class="node default ui"><rect height="318" width="260" y="-159" x="-130" style="fill:#fef3c7 !important" class="basic label-container"/><g transform="translate(-100, -144)" style="" class="label"><rect/><foreignObject height="288" width="200"><div style="display: table; white-space: break-spaces; line-height: 1.5; max-width: 200px; text-align: center; width: 200px;" xmlns="http://www.w3.org/1999/xhtml"><span class="nodeLabel"><p><b>app/globals.css</b><br /><i>5 Confidence Levels</i><br />.semantic-highlight-very-low (0-19%)<br />.semantic-highlight-low (20-39%)<br />.semantic-highlight-medium (40-59%)<br />.semantic-highlight-high (60-79%)<br />.semantic-highlight-very-high (80-100%)</p></span></div></foreignObject></g></g><g transform="translate(173, 1334)" id="flowchart-Utils-11" class="node default ui"><rect height="102" width="242.671875" y="-51" x="-121.3359375" style="fill:#fef3c7 !important" class="basic label-container"/><g transform="translate(-91.3359375, -36)" style="" class="label"><rect/><foreignObject height="72" width="182.671875"><div style="display: table-cell; white-space: nowrap; line-height: 1.5; max-width: 200px; text-align: center;" xmlns="http://www.w3.org/1999/xhtml"><span class="nodeLabel"><p><b>semantic-highlighting.ts</b><br /><i>Utility Functions</i><br />confidenceToClassName()</p></span></div></foreignObject></g></g><g transform="translate(548.53125, 1334)" id="flowchart-DocContext-12" class="node default context"><rect height="126" width="311.0625" y="-63" x="-155.53125" style="fill:#fed7aa !important" class="basic label-container"/><g transform="translate(-125.53125, -48)" style="" class="label"><rect/><foreignObject height="96" width="251.0625"><div style="display: table; white-space: break-spaces; line-height: 1.5; max-width: 200px; text-align: center; width: 200px;" xmlns="http://www.w3.org/1999/xhtml"><span class="nodeLabel"><p><b>DocumentCommunicationContext</b><br /><i>UI Coordination</i><br />• scrollToElement()<br />• Temp highlight pulse</p></span></div></foreignObject></g></g><g transform="translate(2042.34375, 156)" id="flowchart-note1-45" class="node default data"><rect height="246" width="204.078125" y="-123" x="-102.0390625" style="fill:#f3f4f6 !important" class="basic label-container"/><g transform="translate(-72.0390625, -108)" style="" class="label"><rect/><foreignObject height="216" width="144.078125"><div style="display: table-cell; white-space: nowrap; line-height: 1.5; max-width: 200px; text-align: center;" xmlns="http://www.w3.org/1999/xhtml"><span class="nodeLabel"><p><b>Highlight (Internal)</b><br />{<br />  id: string<br />  criterion: string<br />  elementId: string<br />  confidence: number<br />  reasoning: string<br />  textExcerpt: string<br />}</p></span></div></foreignObject></g></g><g transform="translate(2846.95703125, 812)" id="flowchart-note2-46" class="node default data"><rect height="174" width="260" y="-87" x="-130" style="fill:#f3f4f6 !important" class="basic label-container"/><g transform="translate(-100, -72)" style="" class="label"><rect/><foreignObject height="144" width="200"><div style="display: table; white-space: break-spaces; line-height: 1.5; max-width: 200px; text-align: center; width: 200px;" xmlns="http://www.w3.org/1999/xhtml"><span class="nodeLabel"><p><b>SemanticHighlight (Display)</b><br />{<br />  elementId: string<br />  confidence: number<br />}</p></span></div></foreignObject></g></g><g transform="translate(1764.9609375, 156)" id="flowchart-ColorKey-51" class="node default data"><rect height="174" width="250.6875" y="-87" x="-125.34375" style="fill:#f3f4f6 !important" class="basic label-container"/><g transform="translate(-95.34375, -72)" style="" class="label"><rect/><foreignObject height="144" width="190.6875"><div style="display: table-cell; white-space: nowrap; line-height: 1.5; max-width: 200px; text-align: center;" xmlns="http://www.w3.org/1999/xhtml"><span class="nodeLabel"><p><b>Color Key:</b><br />🖥️ Browser = Light Blue<br />⚛️ React = Light Green<br />🎨 UI = Light Yellow<br />☁️ Backend = Light Purple<br />📡 Context = Light Orange</p></span></div></foreignObject></g></g></g></g></g></svg>