<svg aria-roledescription="flowchart-v2" role="graphics-document document" viewBox="0 0 1143.765625 2810.691650390625" style="max-width: 1143.77px; background-color: transparent;" class="flowchart" xmlns:xlink="http://www.w3.org/1999/xlink" xmlns="http://www.w3.org/2000/svg" width="100%" id="my-svg"><style>#my-svg{font-family:"trebuchet ms",verdana,arial,sans-serif;font-size:16px;fill:#333;}@keyframes edge-animation-frame{from{stroke-dashoffset:0;}}@keyframes dash{to{stroke-dashoffset:0;}}#my-svg .edge-animation-slow{stroke-dasharray:9,5!important;stroke-dashoffset:900;animation:dash 50s linear infinite;stroke-linecap:round;}#my-svg .edge-animation-fast{stroke-dasharray:9,5!important;stroke-dashoffset:900;animation:dash 20s linear infinite;stroke-linecap:round;}#my-svg .error-icon{fill:#552222;}#my-svg .error-text{fill:#552222;stroke:#552222;}#my-svg .edge-thickness-normal{stroke-width:1px;}#my-svg .edge-thickness-thick{stroke-width:3.5px;}#my-svg .edge-pattern-solid{stroke-dasharray:0;}#my-svg .edge-thickness-invisible{stroke-width:0;fill:none;}#my-svg .edge-pattern-dashed{stroke-dasharray:3;}#my-svg .edge-pattern-dotted{stroke-dasharray:2;}#my-svg .marker{fill:#333333;stroke:#333333;}#my-svg .marker.cross{stroke:#333333;}#my-svg svg{font-family:"trebuchet ms",verdana,arial,sans-serif;font-size:16px;}#my-svg p{margin:0;}#my-svg .label{font-family:"trebuchet ms",verdana,arial,sans-serif;color:#333;}#my-svg .cluster-label text{fill:#333;}#my-svg .cluster-label span{color:#333;}#my-svg .cluster-label span p{background-color:transparent;}#my-svg .label text,#my-svg span{fill:#333;color:#333;}#my-svg .node rect,#my-svg .node circle,#my-svg .node ellipse,#my-svg .node polygon,#my-svg .node path{fill:#ECECFF;stroke:#9370DB;stroke-width:1px;}#my-svg .rough-node .label text,#my-svg .node .label text,#my-svg .image-shape .label,#my-svg .icon-shape .label{text-anchor:middle;}#my-svg .node .katex path{fill:#000;stroke:#000;stroke-width:1px;}#my-svg .rough-node .label,#my-svg .node .label,#my-svg .image-shape .label,#my-svg .icon-shape .label{text-align:center;}#my-svg .node.clickable{cursor:pointer;}#my-svg .root .anchor path{fill:#333333!important;stroke-width:0;stroke:#333333;}#my-svg .arrowheadPath{fill:#333333;}#my-svg .edgePath .path{stroke:#333333;stroke-width:2.0px;}#my-svg .flowchart-link{stroke:#333333;fill:none;}#my-svg .edgeLabel{background-color:rgba(232,232,232, 0.8);text-align:center;}#my-svg .edgeLabel p{background-color:rgba(232,232,232, 0.8);}#my-svg .edgeLabel rect{opacity:0.5;background-color:rgba(232,232,232, 0.8);fill:rgba(232,232,232, 0.8);}#my-svg .labelBkg{background-color:rgba(232, 232, 232, 0.5);}#my-svg .cluster rect{fill:#ffffde;stroke:#aaaa33;stroke-width:1px;}#my-svg .cluster text{fill:#333;}#my-svg .cluster span{color:#333;}#my-svg div.mermaidTooltip{position:absolute;text-align:center;max-width:200px;padding:2px;font-family:"trebuchet ms",verdana,arial,sans-serif;font-size:12px;background:hsl(80, 100%, 96.2745098039%);border:1px solid #aaaa33;border-radius:2px;pointer-events:none;z-index:100;}#my-svg .flowchartTitleText{text-anchor:middle;font-size:18px;fill:#333;}#my-svg rect.text{fill:none;stroke-width:0;}#my-svg .icon-shape,#my-svg .image-shape{background-color:rgba(232,232,232, 0.8);text-align:center;}#my-svg .icon-shape p,#my-svg .image-shape p{background-color:rgba(232,232,232, 0.8);padding:2px;}#my-svg .icon-shape rect,#my-svg .image-shape rect{opacity:0.5;background-color:rgba(232,232,232, 0.8);fill:rgba(232,232,232, 0.8);}#my-svg .label-icon{display:inline-block;height:1em;overflow:visible;vertical-align:-0.125em;}#my-svg .node .label-icon path{fill:currentColor;stroke:revert;stroke-width:revert;}#my-svg :root{--mermaid-font-family:"trebuchet ms",verdana,arial,sans-serif;}</style><g><marker orient="auto" markerHeight="8" markerWidth="8" markerUnits="userSpaceOnUse" refY="5" refX="5" viewBox="0 0 10 10" class="marker flowchart-v2" id="my-svg_flowchart-v2-pointEnd"><path style="stroke-width: 1; stroke-dasharray: 1, 0;" class="arrowMarkerPath" d="M 0 0 L 10 5 L 0 10 z"/></marker><marker orient="auto" markerHeight="8" markerWidth="8" markerUnits="userSpaceOnUse" refY="5" refX="4.5" viewBox="0 0 10 10" class="marker flowchart-v2" id="my-svg_flowchart-v2-pointStart"><path style="stroke-width: 1; stroke-dasharray: 1, 0;" class="arrowMarkerPath" d="M 0 5 L 10 10 L 10 0 z"/></marker><marker orient="auto" markerHeight="11" markerWidth="11" markerUnits="userSpaceOnUse" refY="5" refX="11" viewBox="0 0 10 10" class="marker flowchart-v2" id="my-svg_flowchart-v2-circleEnd"><circle style="stroke-width: 1; stroke-dasharray: 1, 0;" class="arrowMarkerPath" r="5" cy="5" cx="5"/></marker><marker orient="auto" markerHeight="11" markerWidth="11" markerUnits="userSpaceOnUse" refY="5" refX="-1" viewBox="0 0 10 10" class="marker flowchart-v2" id="my-svg_flowchart-v2-circleStart"><circle style="stroke-width: 1; stroke-dasharray: 1, 0;" class="arrowMarkerPath" r="5" cy="5" cx="5"/></marker><marker orient="auto" markerHeight="11" markerWidth="11" markerUnits="userSpaceOnUse" refY="5.2" refX="12" viewBox="0 0 11 11" class="marker cross flowchart-v2" id="my-svg_flowchart-v2-crossEnd"><path style="stroke-width: 2; stroke-dasharray: 1, 0;" class="arrowMarkerPath" d="M 1,1 l 9,9 M 10,1 l -9,9"/></marker><marker orient="auto" markerHeight="11" markerWidth="11" markerUnits="userSpaceOnUse" refY="5.2" refX="-1" viewBox="0 0 11 11" class="marker cross flowchart-v2" id="my-svg_flowchart-v2-crossStart"><path style="stroke-width: 2; stroke-dasharray: 1, 0;" class="arrowMarkerPath" d="M 1,1 l 9,9 M 10,1 l -9,9"/></marker><g class="root"><g class="clusters"/><g class="edgePaths"><path marker-end="url(#my-svg_flowchart-v2-pointEnd)" style="" class="edge-thickness-normal edge-pattern-solid edge-thickness-normal edge-pattern-solid flowchart-link" id="L_Start_InitCheck_0" d="M604.777,71L604.777,75.167C604.777,79.333,604.777,87.667,604.848,95.417C604.918,103.167,605.058,110.334,605.129,113.917L605.199,117.501"/><path marker-end="url(#my-svg_flowchart-v2-pointEnd)" style="" class="edge-thickness-normal edge-pattern-solid edge-thickness-normal edge-pattern-solid flowchart-link" id="L_InitCheck_FirstIter_0" d="M576.422,239.02L569.195,249.912C561.968,260.805,547.513,282.59,540.286,298.982C533.059,315.375,533.059,326.375,533.059,331.875L533.059,337.375"/><path marker-end="url(#my-svg_flowchart-v2-pointEnd)" style="" class="edge-thickness-normal edge-pattern-solid edge-thickness-normal edge-pattern-solid flowchart-link" id="L_InitCheck_ContinueIter_0" d="M665.7,207.452L742.478,223.606C819.256,239.76,972.812,272.067,1049.589,304.888C1126.367,337.708,1126.367,371.042,1126.367,402.375C1126.367,433.708,1126.367,463.042,1126.367,494.375C1126.367,525.708,1126.367,559.042,1126.367,592.375C1126.367,625.708,1126.367,659.042,1126.367,693.161C1126.367,727.281,1126.367,762.188,1126.367,799.094C1126.367,836,1126.367,874.906,1126.367,911.026C1126.367,947.146,1126.367,980.479,1126.367,1011.813C1126.367,1043.146,1126.367,1072.479,1126.367,1104.103C1126.367,1135.727,1126.367,1169.642,1126.367,1205.557C1126.367,1241.471,1126.367,1279.386,1126.367,1315.01C1126.367,1350.634,1126.367,1383.968,1126.367,1415.301C1126.367,1446.634,1126.367,1475.968,1126.367,1508.595C1126.367,1541.223,1126.367,1577.145,1126.367,1615.067C1126.367,1652.988,1126.367,1692.91,1126.367,1740.334C1126.367,1787.757,1126.367,1842.681,1126.367,1897.606C1126.367,1952.53,1126.367,2007.455,1126.367,2054.943C1126.367,2102.431,1126.367,2142.483,1126.367,2182.535C1126.367,2222.587,1126.367,2262.64,1126.367,2297.332C1126.367,2332.025,1126.367,2361.358,1126.367,2390.692C1126.367,2420.025,1126.367,2449.358,1120.01,2469.746C1113.653,2490.133,1100.939,2501.574,1094.582,2507.295L1088.225,2513.016"/><path marker-end="url(#my-svg_flowchart-v2-pointEnd)" style="" class="edge-thickness-normal edge-pattern-solid edge-thickness-normal edge-pattern-solid flowchart-link" id="L_FirstIter_CallLLM_0" d="M533.059,467.375L533.059,471.542C533.059,475.708,533.059,484.042,533.059,491.708C533.059,499.375,533.059,506.375,533.059,509.875L533.059,513.375"/><path marker-end="url(#my-svg_flowchart-v2-pointEnd)" style="" class="edge-thickness-normal edge-pattern-solid edge-thickness-normal edge-pattern-solid flowchart-link" id="L_ContinueIter_CallLLM_0" d="M1022.344,2515.692L1025.278,2509.525C1028.212,2503.358,1034.081,2491.025,1037.015,2470.192C1039.949,2449.358,1039.949,2420.025,1039.949,2390.692C1039.949,2361.358,1039.949,2332.025,1039.949,2297.332C1039.949,2262.64,1039.949,2222.587,1039.949,2182.535C1039.949,2142.483,1039.949,2102.431,1039.949,2054.943C1039.949,2007.455,1039.949,1952.53,1039.949,1897.606C1039.949,1842.681,1039.949,1787.757,1039.949,1740.334C1039.949,1692.91,1039.949,1652.988,1039.949,1615.067C1039.949,1577.145,1039.949,1541.223,1039.949,1508.595C1039.949,1475.968,1039.949,1446.634,1039.949,1415.301C1039.949,1383.968,1039.949,1350.634,1039.949,1315.01C1039.949,1279.386,1039.949,1241.471,1039.949,1205.557C1039.949,1169.642,1039.949,1135.727,1039.949,1104.103C1039.949,1072.479,1039.949,1043.146,1039.949,1011.813C1039.949,980.479,1039.949,947.146,1039.949,911.026C1039.949,874.906,1039.949,836,1039.949,799.094C1039.949,762.188,1039.949,727.281,974.194,696.856C908.44,666.431,776.93,640.486,711.175,627.514L645.42,614.542"/><path marker-end="url(#my-svg_flowchart-v2-pointEnd)" style="" class="edge-thickness-normal edge-pattern-solid edge-thickness-normal edge-pattern-solid flowchart-link" id="L_CallLLM_Validate_0" d="M472.019,667.375L468.627,671.542C465.236,675.708,458.454,684.042,455.133,691.792C451.812,699.542,451.953,706.709,452.023,710.292L452.093,713.876"/><path marker-end="url(#my-svg_flowchart-v2-pointEnd)" style="" class="edge-thickness-normal edge-pattern-solid edge-thickness-normal edge-pattern-solid flowchart-link" id="L_Validate_Error_0" d="M391.383,816.524L338.962,832.739C286.542,848.953,181.701,881.383,129.28,914.264C76.859,947.146,76.859,980.479,76.859,1011.813C76.859,1043.146,76.859,1072.479,76.859,1104.103C76.859,1135.727,76.859,1169.642,76.859,1205.557C76.859,1241.471,76.859,1279.386,76.859,1315.01C76.859,1350.634,76.859,1383.968,76.859,1415.301C76.859,1446.634,76.859,1475.968,76.859,1508.595C76.859,1541.223,76.859,1577.145,76.859,1615.067C76.859,1652.988,76.859,1692.91,76.859,1740.334C76.859,1787.757,76.859,1842.681,76.859,1897.606C76.859,1952.53,76.859,2007.455,76.859,2054.943C76.859,2102.431,76.859,2142.483,76.859,2182.535C76.859,2222.587,76.859,2262.64,76.859,2297.332C76.859,2332.025,76.859,2361.358,76.859,2390.692C76.859,2420.025,76.859,2449.358,76.859,2479.525C76.859,2509.692,76.859,2540.692,76.859,2556.192L76.859,2571.692"/><path marker-end="url(#my-svg_flowchart-v2-pointEnd)" style="" class="edge-thickness-normal edge-pattern-solid edge-thickness-normal edge-pattern-solid flowchart-link" id="L_Validate_ApplyOps_0" d="M492.249,837.236L505.153,849.998C518.057,862.761,543.864,888.287,556.768,906.55C569.672,924.813,569.672,935.813,569.672,941.313L569.672,946.813"/><path marker-end="url(#my-svg_flowchart-v2-pointEnd)" style="" class="edge-thickness-normal edge-pattern-solid edge-thickness-normal edge-pattern-solid flowchart-link" id="L_ApplyOps_SaveDB_0" d="M569.672,1076.813L569.672,1080.979C569.672,1085.146,569.672,1093.479,569.672,1101.146C569.672,1108.813,569.672,1115.813,569.672,1119.313L569.672,1122.813"/><path marker-end="url(#my-svg_flowchart-v2-pointEnd)" style="" class="edge-thickness-normal edge-pattern-solid edge-thickness-normal edge-pattern-solid flowchart-link" id="L_SaveDB_UpdateUI_0" d="M569.672,1280.301L569.672,1286.468C569.672,1292.634,569.672,1304.968,569.672,1316.634C569.672,1328.301,569.672,1339.301,569.672,1344.801L569.672,1350.301"/><path marker-end="url(#my-svg_flowchart-v2-pointEnd)" style="" class="edge-thickness-normal edge-pattern-solid edge-thickness-normal edge-pattern-solid flowchart-link" id="L_UpdateUI_CheckLimits_0" d="M569.672,1480.301L569.672,1484.468C569.672,1488.634,569.672,1496.968,569.742,1504.718C569.812,1512.468,569.953,1519.635,570.023,1523.218L570.093,1526.802"/><path marker-end="url(#my-svg_flowchart-v2-pointEnd)" style="" class="edge-thickness-normal edge-pattern-solid edge-thickness-normal edge-pattern-solid flowchart-link" id="L_CheckLimits_ForceStop_0" d="M513.729,1639.889L480.251,1655.38C446.772,1670.87,379.816,1701.851,346.338,1744.804C312.859,1787.757,312.859,1842.681,312.859,1897.606C312.859,1952.53,312.859,2007.455,312.859,2054.943C312.859,2102.431,312.859,2142.483,312.859,2182.535C312.859,2222.587,312.859,2262.64,312.859,2297.332C312.859,2332.025,312.859,2361.358,312.859,2390.692C312.859,2420.025,312.859,2449.358,312.859,2475.525C312.859,2501.692,312.859,2524.692,312.859,2536.192L312.859,2547.692"/><path marker-end="url(#my-svg_flowchart-v2-pointEnd)" style="" class="edge-thickness-normal edge-pattern-solid edge-thickness-normal edge-pattern-solid flowchart-link" id="L_CheckLimits_CheckMore_0" d="M613.989,1652.515L629.058,1665.902C644.128,1679.288,674.267,1706.06,689.411,1725.029C704.555,1743.999,704.704,1755.166,704.778,1760.749L704.853,1766.333"/><path marker-end="url(#my-svg_flowchart-v2-pointEnd)" style="" class="edge-thickness-normal edge-pattern-solid edge-thickness-normal edge-pattern-solid flowchart-link" id="L_CheckMore_Complete_0" d="M628.999,1949.972L601.376,1968.706C573.752,1987.441,518.505,2024.91,490.881,2063.671C463.258,2102.431,463.258,2142.483,463.258,2182.535C463.258,2222.587,463.258,2262.64,463.258,2297.332C463.258,2332.025,463.258,2361.358,463.258,2390.692C463.258,2420.025,463.258,2449.358,476.973,2479.69C490.688,2510.022,518.118,2541.352,531.833,2557.017L545.548,2572.682"/><path marker-end="url(#my-svg_flowchart-v2-pointEnd)" style="" class="edge-thickness-normal edge-pattern-solid edge-thickness-normal edge-pattern-solid flowchart-link" id="L_CheckMore_AutoMode_0" d="M757.628,1973.157L768.05,1988.027C778.471,2002.898,799.314,2032.638,809.809,2053.092C820.305,2073.546,820.454,2084.713,820.528,2090.296L820.603,2095.879"/><path marker-end="url(#my-svg_flowchart-v2-pointEnd)" style="" class="edge-thickness-normal edge-pattern-solid edge-thickness-normal edge-pattern-solid flowchart-link" id="L_AutoMode_UserChoice_0" d="M771.881,2217.416L751.517,2231.629C731.153,2245.842,690.424,2274.267,670.06,2293.979C649.695,2313.692,649.695,2324.692,649.695,2330.192L649.695,2335.692"/><path marker-end="url(#my-svg_flowchart-v2-pointEnd)" style="" class="edge-thickness-normal edge-pattern-solid edge-thickness-normal edge-pattern-solid flowchart-link" id="L_AutoMode_AutoContinue_0" d="M852.269,2234.579L859.2,2245.931C866.13,2257.283,879.991,2279.987,886.921,2298.839C893.852,2317.692,893.852,2332.692,893.852,2340.192L893.852,2347.692"/><path marker-end="url(#my-svg_flowchart-v2-pointEnd)" style="" class="edge-thickness-normal edge-pattern-solid edge-thickness-normal edge-pattern-solid flowchart-link" id="L_UserChoice_ContinueIter_0" d="M595.759,2441.692L589.237,2447.858C582.716,2454.025,569.672,2466.358,610.316,2487.848C650.96,2509.338,745.291,2539.985,792.456,2555.308L839.622,2570.632"/><path marker-end="url(#my-svg_flowchart-v2-pointEnd)" style="" class="edge-thickness-normal edge-pattern-solid edge-thickness-normal edge-pattern-solid flowchart-link" id="L_UserChoice_Complete_0" d="M708.639,2441.692L715.766,2447.858C722.894,2454.025,737.148,2466.358,724.696,2488.274C712.245,2510.189,673.087,2541.687,653.508,2557.436L633.929,2573.185"/><path marker-end="url(#my-svg_flowchart-v2-pointEnd)" style="" class="edge-thickness-normal edge-pattern-solid edge-thickness-normal edge-pattern-solid flowchart-link" id="L_AutoContinue_ContinueIter_0" d="M893.852,2429.692L893.852,2437.858C893.852,2446.025,893.852,2462.358,897.2,2476.12C900.548,2489.881,907.244,2501.07,910.592,2506.665L913.94,2512.259"/><path marker-end="url(#my-svg_flowchart-v2-pointEnd)" style="" class="edge-thickness-normal edge-pattern-solid edge-thickness-normal edge-pattern-solid flowchart-link" id="L_Error_End_0" d="M76.859,2653.692L76.859,2667.858C76.859,2682.025,76.859,2710.358,111.289,2731.017C145.718,2751.676,214.577,2764.66,249.007,2771.152L283.436,2777.644"/><path marker-end="url(#my-svg_flowchart-v2-pointEnd)" style="" class="edge-thickness-normal edge-pattern-solid edge-thickness-normal edge-pattern-solid flowchart-link" id="L_ForceStop_End_0" d="M312.859,2677.692L312.859,2687.858C312.859,2698.025,312.859,2718.358,312.859,2732.025C312.859,2745.692,312.859,2752.692,312.859,2756.192L312.859,2759.692"/><path marker-end="url(#my-svg_flowchart-v2-pointEnd)" style="" class="edge-thickness-normal edge-pattern-solid edge-thickness-normal edge-pattern-solid flowchart-link" id="L_Complete_End_0" d="M582.328,2653.692L582.328,2667.858C582.328,2682.025,582.328,2710.358,542.323,2731.131C502.318,2751.904,422.308,2765.117,382.303,2771.724L342.298,2778.33"/></g><g class="edgeLabels"><g class="edgeLabel"><g transform="translate(0, 0)" class="label"><foreignObject height="0" width="0"><div style="display: table-cell; white-space: nowrap; line-height: 1.5; max-width: 200px; text-align: center;" class="labelBkg" xmlns="http://www.w3.org/1999/xhtml"><span class="edgeLabel"></span></div></foreignObject></g></g><g transform="translate(533.05859375, 304.375)" class="edgeLabel"><g transform="translate(-11.328125, -12)" class="label"><foreignObject height="24" width="22.65625"><div style="display: table-cell; white-space: nowrap; line-height: 1.5; max-width: 200px; text-align: center;" class="labelBkg" xmlns="http://www.w3.org/1999/xhtml"><span class="edgeLabel"><p>Yes</p></span></div></foreignObject></g></g><g transform="translate(1126.3671875, 1317.3009796142578)" class="edgeLabel"><g transform="translate(-9.3984375, -12)" class="label"><foreignObject height="24" width="18.796875"><div style="display: table-cell; white-space: nowrap; line-height: 1.5; max-width: 200px; text-align: center;" class="labelBkg" xmlns="http://www.w3.org/1999/xhtml"><span class="edgeLabel"><p>No</p></span></div></foreignObject></g></g><g class="edgeLabel"><g transform="translate(0, 0)" class="label"><foreignObject height="0" width="0"><div style="display: table-cell; white-space: nowrap; line-height: 1.5; max-width: 200px; text-align: center;" class="labelBkg" xmlns="http://www.w3.org/1999/xhtml"><span class="edgeLabel"></span></div></foreignObject></g></g><g class="edgeLabel"><g transform="translate(0, 0)" class="label"><foreignObject height="0" width="0"><div style="display: table-cell; white-space: nowrap; line-height: 1.5; max-width: 200px; text-align: center;" class="labelBkg" xmlns="http://www.w3.org/1999/xhtml"><span class="edgeLabel"></span></div></foreignObject></g></g><g class="edgeLabel"><g transform="translate(0, 0)" class="label"><foreignObject height="0" width="0"><div style="display: table-cell; white-space: nowrap; line-height: 1.5; max-width: 200px; text-align: center;" class="labelBkg" xmlns="http://www.w3.org/1999/xhtml"><span class="edgeLabel"></span></div></foreignObject></g></g><g transform="translate(76.859375, 1613.0666046142578)" class="edgeLabel"><g transform="translate(-23.8203125, -12)" class="label"><foreignObject height="24" width="47.640625"><div style="display: table-cell; white-space: nowrap; line-height: 1.5; max-width: 200px; text-align: center;" class="labelBkg" xmlns="http://www.w3.org/1999/xhtml"><span class="edgeLabel"><p>Invalid</p></span></div></foreignObject></g></g><g transform="translate(569.671875, 913.8125)" class="edgeLabel"><g transform="translate(-17.375, -12)" class="label"><foreignObject height="24" width="34.75"><div style="display: table-cell; white-space: nowrap; line-height: 1.5; max-width: 200px; text-align: center;" class="labelBkg" xmlns="http://www.w3.org/1999/xhtml"><span class="edgeLabel"><p>Valid</p></span></div></foreignObject></g></g><g class="edgeLabel"><g transform="translate(0, 0)" class="label"><foreignObject height="0" width="0"><div style="display: table-cell; white-space: nowrap; line-height: 1.5; max-width: 200px; text-align: center;" class="labelBkg" xmlns="http://www.w3.org/1999/xhtml"><span class="edgeLabel"></span></div></foreignObject></g></g><g class="edgeLabel"><g transform="translate(0, 0)" class="label"><foreignObject height="0" width="0"><div style="display: table-cell; white-space: nowrap; line-height: 1.5; max-width: 200px; text-align: center;" class="labelBkg" xmlns="http://www.w3.org/1999/xhtml"><span class="edgeLabel"></span></div></foreignObject></g></g><g class="edgeLabel"><g transform="translate(0, 0)" class="label"><foreignObject height="0" width="0"><div style="display: table-cell; white-space: nowrap; line-height: 1.5; max-width: 200px; text-align: center;" class="labelBkg" xmlns="http://www.w3.org/1999/xhtml"><span class="edgeLabel"></span></div></foreignObject></g></g><g transform="translate(312.859375, 2182.535354614258)" class="edgeLabel"><g transform="translate(-11.328125, -12)" class="label"><foreignObject height="24" width="22.65625"><div style="display: table-cell; white-space: nowrap; line-height: 1.5; max-width: 200px; text-align: center;" class="labelBkg" xmlns="http://www.w3.org/1999/xhtml"><span class="edgeLabel"><p>Yes</p></span></div></foreignObject></g></g><g transform="translate(704.40625, 1732.8322296142578)" class="edgeLabel"><g transform="translate(-9.3984375, -12)" class="label"><foreignObject height="24" width="18.796875"><div style="display: table-cell; white-space: nowrap; line-height: 1.5; max-width: 200px; text-align: center;" class="labelBkg" xmlns="http://www.w3.org/1999/xhtml"><span class="edgeLabel"><p>No</p></span></div></foreignObject></g></g><g transform="translate(463.2578125, 2302.691604614258)" class="edgeLabel"><g transform="translate(-9.3984375, -12)" class="label"><foreignObject height="24" width="18.796875"><div style="display: table-cell; white-space: nowrap; line-height: 1.5; max-width: 200px; text-align: center;" class="labelBkg" xmlns="http://www.w3.org/1999/xhtml"><span class="edgeLabel"><p>No</p></span></div></foreignObject></g></g><g transform="translate(820.15625, 2062.379104614258)" class="edgeLabel"><g transform="translate(-11.328125, -12)" class="label"><foreignObject height="24" width="22.65625"><div style="display: table-cell; white-space: nowrap; line-height: 1.5; max-width: 200px; text-align: center;" class="labelBkg" xmlns="http://www.w3.org/1999/xhtml"><span class="edgeLabel"><p>Yes</p></span></div></foreignObject></g></g><g transform="translate(649.6953125, 2302.691604614258)" class="edgeLabel"><g transform="translate(-9.3984375, -12)" class="label"><foreignObject height="24" width="18.796875"><div style="display: table-cell; white-space: nowrap; line-height: 1.5; max-width: 200px; text-align: center;" class="labelBkg" xmlns="http://www.w3.org/1999/xhtml"><span class="edgeLabel"><p>No</p></span></div></foreignObject></g></g><g transform="translate(893.8515625, 2302.691604614258)" class="edgeLabel"><g transform="translate(-11.328125, -12)" class="label"><foreignObject height="24" width="22.65625"><div style="display: table-cell; white-space: nowrap; line-height: 1.5; max-width: 200px; text-align: center;" class="labelBkg" xmlns="http://www.w3.org/1999/xhtml"><span class="edgeLabel"><p>Yes</p></span></div></foreignObject></g></g><g transform="translate(556.62890625, 2478.691604614258)" class="edgeLabel"><g transform="translate(-32.0078125, -12)" class="label"><foreignObject height="24" width="64.015625"><div style="display: table-cell; white-space: nowrap; line-height: 1.5; max-width: 200px; text-align: center;" class="labelBkg" xmlns="http://www.w3.org/1999/xhtml"><span class="edgeLabel"><p>Continue</p></span></div></foreignObject></g></g><g transform="translate(751.40234375, 2478.691604614258)" class="edgeLabel"><g transform="translate(-20.7421875, -12)" class="label"><foreignObject height="24" width="41.484375"><div style="display: table-cell; white-space: nowrap; line-height: 1.5; max-width: 200px; text-align: center;" class="labelBkg" xmlns="http://www.w3.org/1999/xhtml"><span class="edgeLabel"><p>Finish</p></span></div></foreignObject></g></g><g class="edgeLabel"><g transform="translate(0, 0)" class="label"><foreignObject height="0" width="0"><div style="display: table-cell; white-space: nowrap; line-height: 1.5; max-width: 200px; text-align: center;" class="labelBkg" xmlns="http://www.w3.org/1999/xhtml"><span class="edgeLabel"></span></div></foreignObject></g></g><g class="edgeLabel"><g transform="translate(0, 0)" class="label"><foreignObject height="0" width="0"><div style="display: table-cell; white-space: nowrap; line-height: 1.5; max-width: 200px; text-align: center;" class="labelBkg" xmlns="http://www.w3.org/1999/xhtml"><span class="edgeLabel"></span></div></foreignObject></g></g><g class="edgeLabel"><g transform="translate(0, 0)" class="label"><foreignObject height="0" width="0"><div style="display: table-cell; white-space: nowrap; line-height: 1.5; max-width: 200px; text-align: center;" class="labelBkg" xmlns="http://www.w3.org/1999/xhtml"><span class="edgeLabel"></span></div></foreignObject></g></g><g class="edgeLabel"><g transform="translate(0, 0)" class="label"><foreignObject height="0" width="0"><div style="display: table-cell; white-space: nowrap; line-height: 1.5; max-width: 200px; text-align: center;" class="labelBkg" xmlns="http://www.w3.org/1999/xhtml"><span class="edgeLabel"></span></div></foreignObject></g></g></g><g class="nodes"><g transform="translate(604.77734375, 39.5)" id="flowchart-Start-0" class="node default"><rect height="63" width="157.921875" y="-31.5" x="-78.9609375" ry="31.5" rx="31.5" style="fill:#e8f4f8 !important" class="basic label-container"/><g transform="translate(-63.5859375, -24)" style="" class="label"><rect/><foreignObject height="48" width="127.171875"><div style="display: table-cell; white-space: nowrap; line-height: 1.5; max-width: 200px; text-align: center;" xmlns="http://www.w3.org/1999/xhtml"><span class="nodeLabel"><p>User clicks<br />Improve Headings</p></span></div></foreignObject></g></g><g transform="translate(604.77734375, 194.1875)" id="flowchart-InitCheck-1" class="node default"><polygon transform="translate(-73.1875,73.1875)" class="label-container" points="73.1875,0 146.375,-73.1875 73.1875,-146.375 0,-73.1875"/><g transform="translate(-34.1875, -24)" style="" class="label"><rect/><foreignObject height="48" width="68.375"><div style="display: table-cell; white-space: nowrap; line-height: 1.5; max-width: 200px; text-align: center;" xmlns="http://www.w3.org/1999/xhtml"><span class="nodeLabel"><p>First<br />iteration?</p></span></div></foreignObject></g></g><g transform="translate(533.05859375, 404.375)" id="flowchart-FirstIter-3" class="node default"><rect height="126" width="203.1875" y="-63" x="-101.59375" style="" class="basic label-container"/><g transform="translate(-71.59375, -48)" style="" class="label"><rect/><foreignObject height="96" width="143.1875"><div style="display: table-cell; white-space: nowrap; line-height: 1.5; max-width: 200px; text-align: center;" xmlns="http://www.w3.org/1999/xhtml"><span class="nodeLabel"><p>Initialize:<br />iteration_count = 0<br />operations = empty<br />No previous context</p></span></div></foreignObject></g></g><g transform="translate(975.23828125, 2614.691604614258)" id="flowchart-ContinueIter-5" class="node default"><rect height="198" width="263.625" y="-99" x="-131.8125" style="" class="basic label-container"/><g transform="translate(-101.8125, -84)" style="" class="label"><rect/><foreignObject height="168" width="203.625"><div style="display: table; white-space: break-spaces; line-height: 1.5; max-width: 200px; text-align: center; width: 200px;" xmlns="http://www.w3.org/1999/xhtml"><span class="nodeLabel"><p>Continue:<br />Increment iteration_count<br />Pass previous_iteration_summary<br />Pass previous_iteration_plan<br />Include existing_operations</p></span></div></foreignObject></g></g><g transform="translate(533.05859375, 592.375)" id="flowchart-CallLLM-7" class="node default"><rect height="150" width="216.875" y="-75" x="-108.4375" style="fill:#fff4e6 !important" class="basic label-container"/><g transform="translate(-78.4375, -60)" style="" class="label"><rect/><foreignObject height="120" width="156.875"><div style="display: table-cell; white-space: nowrap; line-height: 1.5; max-width: 200px; text-align: center;" xmlns="http://www.w3.org/1999/xhtml"><span class="nodeLabel"><p>Call LLM with:<br />HTML content<br />Iteration context<br />Operation limit = 10<br />Hierarchical priorities</p></span></div></foreignObject></g></g><g transform="translate(451.671875, 797.09375)" id="flowchart-Validate-11" class="node default"><polygon transform="translate(-79.71875,79.71875)" class="label-container" points="79.71875,0 159.4375,-79.71875 79.71875,-159.4375 0,-79.71875"/><g transform="translate(-40.71875, -24)" style="" class="label"><rect/><foreignObject height="48" width="81.4375"><div style="display: table-cell; white-space: nowrap; line-height: 1.5; max-width: 200px; text-align: center;" xmlns="http://www.w3.org/1999/xhtml"><span class="nodeLabel"><p>Validate<br />operations?</p></span></div></foreignObject></g></g><g transform="translate(76.859375, 2614.691604614258)" id="flowchart-Error-13" class="node default"><rect height="78" width="137.71875" y="-39" x="-68.859375" style="fill:#fee2e2 !important" class="basic label-container"/><g transform="translate(-38.859375, -24)" style="" class="label"><rect/><foreignObject height="48" width="77.71875"><div style="display: table-cell; white-space: nowrap; line-height: 1.5; max-width: 200px; text-align: center;" xmlns="http://www.w3.org/1999/xhtml"><span class="nodeLabel"><p>Show error<br />to user</p></span></div></foreignObject></g></g><g transform="translate(569.671875, 1013.8125)" id="flowchart-ApplyOps-15" class="node default"><rect height="126" width="186.140625" y="-63" x="-93.0703125" style="" class="basic label-container"/><g transform="translate(-63.0703125, -48)" style="" class="label"><rect/><foreignObject height="96" width="126.140625"><div style="display: table-cell; white-space: nowrap; line-height: 1.5; max-width: 200px; text-align: center;" xmlns="http://www.w3.org/1999/xhtml"><span class="nodeLabel"><p>Apply operations:<br />Insert headings<br />Replace headings<br />Remove headings</p></span></div></foreignObject></g></g><g transform="translate(569.671875, 1203.556739807129)" id="flowchart-SaveDB-17" class="node default"><path transform="translate(-81.6796875, -76.74424275264155)" style="fill:#f0f9ff !important" class="basic label-container" d="M0,14.16282850176104 a81.6796875,14.16282850176104 0,0,0 163.359375,0 a81.6796875,14.16282850176104 0,0,0 -163.359375,0 l0,125.16282850176104 a81.6796875,14.16282850176104 0,0,0 163.359375,0 l0,-125.16282850176104"/><g transform="translate(-74.1796875, -38)" style="" class="label"><rect/><foreignObject height="96" width="148.359375"><div style="display: table-cell; white-space: nowrap; line-height: 1.5; max-width: 200px; text-align: center;" xmlns="http://www.w3.org/1999/xhtml"><span class="nodeLabel"><p>Save to database:<br />Operations array<br />Iteration metadata<br />Enhancement record</p></span></div></foreignObject></g></g><g transform="translate(569.671875, 1417.3009796142578)" id="flowchart-UpdateUI-19" class="node default"><rect height="126" width="233.359375" y="-63" x="-116.6796875" style="" class="basic label-container"/><g transform="translate(-86.6796875, -48)" style="" class="label"><rect/><foreignObject height="96" width="173.359375"><div style="display: table-cell; white-space: nowrap; line-height: 1.5; max-width: 200px; text-align: center;" xmlns="http://www.w3.org/1999/xhtml"><span class="nodeLabel"><p>Update UI:<br />Show new structure<br />Display operation count<br />Show iteration summary</p></span></div></foreignObject></g></g><g transform="translate(569.671875, 1613.0666046142578)" id="flowchart-CheckLimits-21" class="node default"><polygon transform="translate(-82.765625,82.765625)" class="label-container" points="82.765625,0 165.53125,-82.765625 82.765625,-165.53125 0,-82.765625"/><g transform="translate(-31.765625, -36)" style="" class="label"><rect/><foreignObject height="72" width="63.53125"><div style="display: table-cell; white-space: nowrap; line-height: 1.5; max-width: 200px; text-align: center;" xmlns="http://www.w3.org/1999/xhtml"><span class="nodeLabel"><p>Safety<br />limits<br />reached?</p></span></div></foreignObject></g></g><g transform="translate(312.859375, 2614.691604614258)" id="flowchart-ForceStop-23" class="node default"><rect height="126" width="234.28125" y="-63" x="-117.140625" style="fill:#fee2e2 !important" class="basic label-container"/><g transform="translate(-87.140625, -48)" style="" class="label"><rect/><foreignObject height="96" width="174.28125"><div style="display: table-cell; white-space: nowrap; line-height: 1.5; max-width: 200px; text-align: center;" xmlns="http://www.w3.org/1999/xhtml"><span class="nodeLabel"><p>Force stop:<br />Disable buttons<br />Show limit message<br />≥5 iterations OR ≥50 ops</p></span></div></foreignObject></g></g><g transform="translate(704.40625, 1897.6056671142578)" id="flowchart-CheckMore-25" class="node default"><polygon transform="translate(-127.7734375,127.7734375)" class="label-container" points="127.7734375,0 255.546875,-127.7734375 127.7734375,-255.546875 0,-127.7734375"/><g transform="translate(-88.7734375, -24)" style="" class="label"><rect/><foreignObject height="48" width="177.546875"><div style="display: table-cell; white-space: nowrap; line-height: 1.5; max-width: 200px; text-align: center;" xmlns="http://www.w3.org/1999/xhtml"><span class="nodeLabel"><p>LLM says<br />more_changes_required?</p></span></div></foreignObject></g></g><g transform="translate(582.328125, 2614.691604614258)" id="flowchart-Complete-27" class="node default"><rect height="78" width="204.65625" y="-39" x="-102.328125" style="fill:#d1fae5 !important" class="basic label-container"/><g transform="translate(-72.328125, -24)" style="" class="label"><rect/><foreignObject height="48" width="144.65625"><div style="display: table-cell; white-space: nowrap; line-height: 1.5; max-width: 200px; text-align: center;" xmlns="http://www.w3.org/1999/xhtml"><span class="nodeLabel"><p>Complete:<br />Show final structure</p></span></div></foreignObject></g></g><g transform="translate(820.15625, 2182.535354614258)" id="flowchart-AutoMode-29" class="node default"><polygon transform="translate(-83.15625,83.15625)" class="label-container" points="83.15625,0 166.3125,-83.15625 83.15625,-166.3125 0,-83.15625"/><g transform="translate(-44.15625, -24)" style="" class="label"><rect/><foreignObject height="48" width="88.3125"><div style="display: table-cell; white-space: nowrap; line-height: 1.5; max-width: 200px; text-align: center;" xmlns="http://www.w3.org/1999/xhtml"><span class="nodeLabel"><p>Auto-iterate<br />enabled?</p></span></div></foreignObject></g></g><g transform="translate(649.6953125, 2390.691604614258)" id="flowchart-UserChoice-31" class="node default"><rect height="102" width="199.46875" y="-51" x="-99.734375" style="" class="basic label-container"/><g transform="translate(-69.734375, -36)" style="" class="label"><rect/><foreignObject height="72" width="139.46875"><div style="display: table-cell; white-space: nowrap; line-height: 1.5; max-width: 200px; text-align: center;" xmlns="http://www.w3.org/1999/xhtml"><span class="nodeLabel"><p>Show buttons:<br />Continue Improving<br />Finish</p></span></div></foreignObject></g></g><g transform="translate(893.8515625, 2390.691604614258)" id="flowchart-AutoContinue-33" class="node default"><rect height="78" width="188.84375" y="-39" x="-94.421875" style="" class="basic label-container"/><g transform="translate(-64.421875, -24)" style="" class="label"><rect/><foreignObject height="48" width="128.84375"><div style="display: table-cell; white-space: nowrap; line-height: 1.5; max-width: 200px; text-align: center;" xmlns="http://www.w3.org/1999/xhtml"><span class="nodeLabel"><p>Auto-continue<br />after 500ms delay</p></span></div></foreignObject></g></g><g transform="translate(312.859375, 2783.191604614258)" id="flowchart-End-41" class="node default"><rect height="39" width="50.984375" y="-19.5" x="-25.4921875" ry="19.5" rx="19.5" style="fill:#e8f4f8 !important" class="basic label-container"/><g transform="translate(-13.1171875, -12)" style="" class="label"><rect/><foreignObject height="24" width="26.234375"><div style="display: table-cell; white-space: nowrap; line-height: 1.5; max-width: 200px; text-align: center;" xmlns="http://www.w3.org/1999/xhtml"><span class="nodeLabel"><p>End</p></span></div></foreignObject></g></g></g></g></g></svg>