<svg aria-roledescription="flowchart-v2" role="graphics-document document" viewBox="0 0 1975.23828125 2411" style="max-width: 1975.24px; background-color: transparent;" class="flowchart" xmlns:xlink="http://www.w3.org/1999/xlink" xmlns="http://www.w3.org/2000/svg" width="100%" id="my-svg"><style>#my-svg{font-family:"trebuchet ms",verdana,arial,sans-serif;font-size:16px;fill:#333;}@keyframes edge-animation-frame{from{stroke-dashoffset:0;}}@keyframes dash{to{stroke-dashoffset:0;}}#my-svg .edge-animation-slow{stroke-dasharray:9,5!important;stroke-dashoffset:900;animation:dash 50s linear infinite;stroke-linecap:round;}#my-svg .edge-animation-fast{stroke-dasharray:9,5!important;stroke-dashoffset:900;animation:dash 20s linear infinite;stroke-linecap:round;}#my-svg .error-icon{fill:#552222;}#my-svg .error-text{fill:#552222;stroke:#552222;}#my-svg .edge-thickness-normal{stroke-width:1px;}#my-svg .edge-thickness-thick{stroke-width:3.5px;}#my-svg .edge-pattern-solid{stroke-dasharray:0;}#my-svg .edge-thickness-invisible{stroke-width:0;fill:none;}#my-svg .edge-pattern-dashed{stroke-dasharray:3;}#my-svg .edge-pattern-dotted{stroke-dasharray:2;}#my-svg .marker{fill:#333333;stroke:#333333;}#my-svg .marker.cross{stroke:#333333;}#my-svg svg{font-family:"trebuchet ms",verdana,arial,sans-serif;font-size:16px;}#my-svg p{margin:0;}#my-svg .label{font-family:"trebuchet ms",verdana,arial,sans-serif;color:#333;}#my-svg .cluster-label text{fill:#333;}#my-svg .cluster-label span{color:#333;}#my-svg .cluster-label span p{background-color:transparent;}#my-svg .label text,#my-svg span{fill:#333;color:#333;}#my-svg .node rect,#my-svg .node circle,#my-svg .node ellipse,#my-svg .node polygon,#my-svg .node path{fill:#ECECFF;stroke:#9370DB;stroke-width:1px;}#my-svg .rough-node .label text,#my-svg .node .label text,#my-svg .image-shape .label,#my-svg .icon-shape .label{text-anchor:middle;}#my-svg .node .katex path{fill:#000;stroke:#000;stroke-width:1px;}#my-svg .rough-node .label,#my-svg .node .label,#my-svg .image-shape .label,#my-svg .icon-shape .label{text-align:center;}#my-svg .node.clickable{cursor:pointer;}#my-svg .root .anchor path{fill:#333333!important;stroke-width:0;stroke:#333333;}#my-svg .arrowheadPath{fill:#333333;}#my-svg .edgePath .path{stroke:#333333;stroke-width:2.0px;}#my-svg .flowchart-link{stroke:#333333;fill:none;}#my-svg .edgeLabel{background-color:rgba(232,232,232, 0.8);text-align:center;}#my-svg .edgeLabel p{background-color:rgba(232,232,232, 0.8);}#my-svg .edgeLabel rect{opacity:0.5;background-color:rgba(232,232,232, 0.8);fill:rgba(232,232,232, 0.8);}#my-svg .labelBkg{background-color:rgba(232, 232, 232, 0.5);}#my-svg .cluster rect{fill:#ffffde;stroke:#aaaa33;stroke-width:1px;}#my-svg .cluster text{fill:#333;}#my-svg .cluster span{color:#333;}#my-svg div.mermaidTooltip{position:absolute;text-align:center;max-width:200px;padding:2px;font-family:"trebuchet ms",verdana,arial,sans-serif;font-size:12px;background:hsl(80, 100%, 96.2745098039%);border:1px solid #aaaa33;border-radius:2px;pointer-events:none;z-index:100;}#my-svg .flowchartTitleText{text-anchor:middle;font-size:18px;fill:#333;}#my-svg rect.text{fill:none;stroke-width:0;}#my-svg .icon-shape,#my-svg .image-shape{background-color:rgba(232,232,232, 0.8);text-align:center;}#my-svg .icon-shape p,#my-svg .image-shape p{background-color:rgba(232,232,232, 0.8);padding:2px;}#my-svg .icon-shape rect,#my-svg .image-shape rect{opacity:0.5;background-color:rgba(232,232,232, 0.8);fill:rgba(232,232,232, 0.8);}#my-svg .label-icon{display:inline-block;height:1em;overflow:visible;vertical-align:-0.125em;}#my-svg .node .label-icon path{fill:currentColor;stroke:revert;stroke-width:revert;}#my-svg :root{--mermaid-font-family:"trebuchet ms",verdana,arial,sans-serif;}#my-svg .newComponent&gt;*{fill:#ffeb3b!important;stroke:#ff9800!important;stroke-width:2px!important;}#my-svg .newComponent span{fill:#ffeb3b!important;stroke:#ff9800!important;stroke-width:2px!important;}#my-svg .enhanced&gt;*{fill:#4caf50!important;stroke:#2e7d32!important;stroke-width:2px!important;}#my-svg .enhanced span{fill:#4caf50!important;stroke:#2e7d32!important;stroke-width:2px!important;}#my-svg .existing&gt;*{fill:#e0e0e0!important;stroke:#757575!important;stroke-width:1px!important;}#my-svg .existing span{fill:#e0e0e0!important;stroke:#757575!important;stroke-width:1px!important;}</style><g><marker orient="auto" markerHeight="8" markerWidth="8" markerUnits="userSpaceOnUse" refY="5" refX="5" viewBox="0 0 10 10" class="marker flowchart-v2" id="my-svg_flowchart-v2-pointEnd"><path style="stroke-width: 1; stroke-dasharray: 1, 0;" class="arrowMarkerPath" d="M 0 0 L 10 5 L 0 10 z"/></marker><marker orient="auto" markerHeight="8" markerWidth="8" markerUnits="userSpaceOnUse" refY="5" refX="4.5" viewBox="0 0 10 10" class="marker flowchart-v2" id="my-svg_flowchart-v2-pointStart"><path style="stroke-width: 1; stroke-dasharray: 1, 0;" class="arrowMarkerPath" d="M 0 5 L 10 10 L 10 0 z"/></marker><marker orient="auto" markerHeight="11" markerWidth="11" markerUnits="userSpaceOnUse" refY="5" refX="11" viewBox="0 0 10 10" class="marker flowchart-v2" id="my-svg_flowchart-v2-circleEnd"><circle style="stroke-width: 1; stroke-dasharray: 1, 0;" class="arrowMarkerPath" r="5" cy="5" cx="5"/></marker><marker orient="auto" markerHeight="11" markerWidth="11" markerUnits="userSpaceOnUse" refY="5" refX="-1" viewBox="0 0 10 10" class="marker flowchart-v2" id="my-svg_flowchart-v2-circleStart"><circle style="stroke-width: 1; stroke-dasharray: 1, 0;" class="arrowMarkerPath" r="5" cy="5" cx="5"/></marker><marker orient="auto" markerHeight="11" markerWidth="11" markerUnits="userSpaceOnUse" refY="5.2" refX="12" viewBox="0 0 11 11" class="marker cross flowchart-v2" id="my-svg_flowchart-v2-crossEnd"><path style="stroke-width: 2; stroke-dasharray: 1, 0;" class="arrowMarkerPath" d="M 1,1 l 9,9 M 10,1 l -9,9"/></marker><marker orient="auto" markerHeight="11" markerWidth="11" markerUnits="userSpaceOnUse" refY="5.2" refX="-1" viewBox="0 0 11 11" class="marker cross flowchart-v2" id="my-svg_flowchart-v2-crossStart"><path style="stroke-width: 2; stroke-dasharray: 1, 0;" class="arrowMarkerPath" d="M 1,1 l 9,9 M 10,1 l -9,9"/></marker><g class="root"><g class="clusters"><g data-look="classic" id="subGraph6" class="cluster"><rect height="256" width="775.05078125" y="2147" x="8" style=""/><g transform="translate(332.931640625, 2147)" class="cluster-label"><foreignObject height="24" width="125.1875"><div style="display: table-cell; white-space: nowrap; line-height: 1.5; max-width: 200px; text-align: center;" xmlns="http://www.w3.org/1999/xhtml"><span class="nodeLabel"><p>Execution Results</p></span></div></foreignObject></g></g><g data-look="classic" id="subGraph5" class="cluster"><rect height="1068" width="302.328125" y="876" x="1560.23046875" style=""/><g transform="translate(1636.18359375, 876)" class="cluster-label"><foreignObject height="24" width="150.421875"><div style="display: table-cell; white-space: nowrap; line-height: 1.5; max-width: 200px; text-align: center;" xmlns="http://www.w3.org/1999/xhtml"><span class="nodeLabel"><p>Security &amp; Validation</p></span></div></foreignObject></g></g><g data-look="classic" id="subGraph4" class="cluster"><rect height="432" width="330" y="1512" x="110.9140625" style=""/><g transform="translate(183.7421875, 1512)" class="cluster-label"><foreignObject height="24" width="184.34375"><div style="display: table-cell; white-space: nowrap; line-height: 1.5; max-width: 200px; text-align: center;" xmlns="http://www.w3.org/1999/xhtml"><span class="nodeLabel"><p>Enhanced Tool Definitions</p></span></div></foreignObject></g></g><g data-look="classic" id="subGraph3" class="cluster"><rect height="762" width="599.734375" y="1335" x="480.9140625" style=""/><g transform="translate(738.5703125, 1335)" class="cluster-label"><foreignObject height="24" width="84.421875"><div style="display: table-cell; white-space: nowrap; line-height: 1.5; max-width: 200px; text-align: center;" xmlns="http://www.w3.org/1999/xhtml"><span class="nodeLabel"><p>Tool System</p></span></div></foreignObject></g></g><g data-look="classic" id="subGraph2" class="cluster"><rect height="384" width="551.265625" y="442" x="1415.97265625" style=""/><g transform="translate(1638.45703125, 442)" class="cluster-label"><foreignObject height="24" width="106.296875"><div style="display: table-cell; white-space: nowrap; line-height: 1.5; max-width: 200px; text-align: center;" xmlns="http://www.w3.org/1999/xhtml"><span class="nodeLabel"><p>LLM Processing</p></span></div></foreignObject></g></g><g data-look="classic" id="subGraph1" class="cluster"><rect height="1020" width="1067.703125" y="265" x="8" style=""/><g transform="translate(489.859375, 265)" class="cluster-label"><foreignObject height="24" width="103.984375"><div style="display: table-cell; white-space: nowrap; line-height: 1.5; max-width: 200px; text-align: center;" xmlns="http://www.w3.org/1999/xhtml"><span class="nodeLabel"><p>Chat API Layer</p></span></div></foreignObject></g></g><g data-look="classic" id="subGraph0" class="cluster"><rect height="1124" width="300.26953125" y="8" x="1095.703125" style=""/><g transform="translate(1194.798828125, 8)" class="cluster-label"><foreignObject height="24" width="102.078125"><div style="display: table-cell; white-space: nowrap; line-height: 1.5; max-width: 200px; text-align: center;" xmlns="http://www.w3.org/1999/xhtml"><span class="nodeLabel"><p>User Interface</p></span></div></foreignObject></g></g></g><g class="edgePaths"><path marker-end="url(#my-svg_flowchart-v2-pointEnd)" style="" class="edge-thickness-normal edge-pattern-solid edge-thickness-normal edge-pattern-solid flowchart-link" id="L_User_ChatUI_0" d="M1236.715,87L1236.715,91.167C1236.715,95.333,1236.715,103.667,1236.715,111.333C1236.715,119,1236.715,126,1236.715,129.5L1236.715,133"/><path marker-end="url(#my-svg_flowchart-v2-pointEnd)" style="" class="edge-thickness-normal edge-pattern-solid edge-thickness-normal edge-pattern-solid flowchart-link" id="L_ChatUI_ChatAPI_0" d="M1197.974,215L1193.835,219.167C1189.696,223.333,1181.419,231.667,1177.28,240C1173.141,248.333,1173.141,256.667,1103.778,270.416C1034.415,284.165,895.688,303.329,826.325,312.911L756.962,322.494"/><path marker-end="url(#my-svg_flowchart-v2-pointEnd)" style="" class="edge-thickness-normal edge-pattern-solid edge-thickness-normal edge-pattern-solid flowchart-link" id="L_ChatAPI_SchemaGen_0" d="M638.377,392L639.633,396.167C640.889,400.333,643.402,408.667,644.658,417C645.914,425.333,645.914,433.667,645.914,448.5C645.914,463.333,645.914,484.667,645.914,506C645.914,527.333,645.914,548.667,645.914,570C645.914,591.333,645.914,612.667,645.914,634C645.914,655.333,645.914,676.667,645.914,698C645.914,719.333,645.914,740.667,645.914,762C645.914,783.333,645.914,804.667,645.914,819.5C645.914,834.333,645.914,842.667,645.914,851C645.914,859.333,645.914,867.667,645.914,882.5C645.914,897.333,645.914,918.667,645.914,940C645.914,961.333,645.914,982.667,645.914,1004C645.914,1025.333,645.914,1046.667,645.914,1068C645.914,1089.333,645.914,1110.667,645.914,1125.5C645.914,1140.333,645.914,1148.667,645.914,1156.333C645.914,1164,645.914,1171,645.914,1174.5L645.914,1178"/><path marker-end="url(#my-svg_flowchart-v2-pointEnd)" style="" class="edge-thickness-normal edge-pattern-solid edge-thickness-normal edge-pattern-solid flowchart-link" id="L_SchemaGen_Registry_0" d="M645.914,1260L645.914,1264.167C645.914,1268.333,645.914,1276.667,645.914,1285C645.914,1293.333,645.914,1301.667,645.914,1310C645.914,1318.333,645.914,1326.667,645.914,1334.333C645.914,1342,645.914,1349,645.914,1352.5L645.914,1356"/><path marker-end="url(#my-svg_flowchart-v2-pointEnd)" style="" class="edge-thickness-normal edge-pattern-solid edge-thickness-normal edge-pattern-solid flowchart-link" id="L_Registry_ToolDefs_0" d="M645.914,1462L645.914,1466.167C645.914,1470.333,645.914,1478.667,645.914,1487C645.914,1495.333,645.914,1503.667,602.376,1516.776C558.837,1529.886,471.761,1547.772,428.222,1556.715L384.684,1565.658"/><path marker-end="url(#my-svg_flowchart-v2-pointEnd)" style="" class="edge-thickness-normal edge-pattern-solid edge-thickness-normal edge-pattern-solid flowchart-link" id="L_ToolDefs_ZodSchemas_0" d="M275.914,1639L275.914,1643.167C275.914,1647.333,275.914,1655.667,275.914,1663.333C275.914,1671,275.914,1678,275.914,1681.5L275.914,1685"/><path marker-end="url(#my-svg_flowchart-v2-pointEnd)" style="" class="edge-thickness-normal edge-pattern-solid edge-thickness-normal edge-pattern-solid flowchart-link" id="L_ZodSchemas_SafetyLevels_0" d="M275.914,1767L275.914,1771.167C275.914,1775.333,275.914,1783.667,275.914,1791.333C275.914,1799,275.914,1806,275.914,1809.5L275.914,1813"/><path marker-end="url(#my-svg_flowchart-v2-pointEnd)" style="" class="edge-thickness-normal edge-pattern-solid edge-thickness-normal edge-pattern-solid flowchart-link" id="L_ChatAPI_LLMCall_0" d="M753,380.869L772.635,386.891C792.27,392.913,831.539,404.956,851.174,415.145C870.809,425.333,870.809,433.667,990.376,446.937C1109.943,460.207,1349.077,478.414,1468.644,487.518L1588.211,496.621"/><path marker-end="url(#my-svg_flowchart-v2-pointEnd)" style="" class="edge-thickness-normal edge-pattern-solid edge-thickness-normal edge-pattern-solid flowchart-link" id="L_LLMCall_Claude_0" d="M1778.083,545L1785.208,549.167C1792.333,553.333,1806.582,561.667,1813.707,569.333C1820.832,577,1820.832,584,1820.832,587.5L1820.832,591"/><path marker-end="url(#my-svg_flowchart-v2-pointEnd)" style="" class="edge-thickness-normal edge-pattern-solid edge-thickness-normal edge-pattern-solid flowchart-link" id="L_LLMCall_Gemini_0" d="M1620.836,545L1611.161,549.167C1601.486,553.333,1582.135,561.667,1572.46,569.333C1562.785,577,1562.785,584,1562.785,587.5L1562.785,591"/><path marker-end="url(#my-svg_flowchart-v2-pointEnd)" style="" class="edge-thickness-normal edge-pattern-solid edge-thickness-normal edge-pattern-solid flowchart-link" id="L_Claude_ResponseParser_0" d="M1820.832,673L1820.832,677.167C1820.832,681.333,1820.832,689.667,1814.283,697.663C1807.733,705.66,1794.635,713.32,1788.085,717.151L1781.536,720.981"/><path marker-end="url(#my-svg_flowchart-v2-pointEnd)" style="" class="edge-thickness-normal edge-pattern-solid edge-thickness-normal edge-pattern-solid flowchart-link" id="L_Gemini_ResponseParser_0" d="M1562.785,673L1562.785,677.167C1562.785,681.333,1562.785,689.667,1571.848,697.736C1580.911,705.806,1599.036,713.612,1608.099,717.515L1617.162,721.418"/><path marker-end="url(#my-svg_flowchart-v2-pointEnd)" style="" class="edge-thickness-normal edge-pattern-solid edge-thickness-normal edge-pattern-solid flowchart-link" id="L_ResponseParser_FunctionVal_0" d="M1711.395,801L1711.395,805.167C1711.395,809.333,1711.395,817.667,1711.395,826C1711.395,834.333,1711.395,842.667,1711.395,851C1711.395,859.333,1711.395,867.667,1711.395,875.333C1711.395,883,1711.395,890,1711.395,893.5L1711.395,897"/><path marker-end="url(#my-svg_flowchart-v2-pointEnd)" style="" class="edge-thickness-normal edge-pattern-solid edge-thickness-normal edge-pattern-solid flowchart-link" id="L_FunctionVal_ConsentUI_0" d="M1711.395,979L1711.395,983.167C1711.395,987.333,1711.395,995.667,1653.651,1007.786C1595.908,1019.906,1480.422,1035.812,1422.678,1043.765L1364.935,1051.718"/><path marker-end="url(#my-svg_flowchart-v2-pointEnd)" style="" class="edge-thickness-normal edge-pattern-solid edge-thickness-normal edge-pattern-solid flowchart-link" id="L_ConsentUI_FunctionExec_0" d="M1246.715,1107L1246.715,1111.167C1246.715,1115.333,1246.715,1123.667,1194.167,1132C1141.62,1140.333,1036.525,1148.667,983.977,1156.333C931.43,1164,931.43,1171,931.43,1174.5L931.43,1178"/><path marker-end="url(#my-svg_flowchart-v2-pointEnd)" style="" class="edge-thickness-normal edge-pattern-solid edge-thickness-normal edge-pattern-solid flowchart-link" id="L_FunctionExec_ToolExec_0" d="M931.43,1260L931.43,1264.167C931.43,1268.333,931.43,1276.667,931.43,1285C931.43,1293.333,931.43,1301.667,931.43,1310C931.43,1318.333,931.43,1326.667,931.43,1336.333C931.43,1346,931.43,1357,931.43,1362.5L931.43,1368"/><path marker-end="url(#my-svg_flowchart-v2-pointEnd)" style="" class="edge-thickness-normal edge-pattern-solid edge-thickness-normal edge-pattern-solid flowchart-link" id="L_ToolExec_Validator_0" d="M931.43,1450L931.43,1456.167C931.43,1462.333,931.43,1474.667,931.43,1485C931.43,1495.333,931.43,1503.667,931.43,1513.333C931.43,1523,931.43,1534,931.43,1539.5L931.43,1545"/><path marker-end="url(#my-svg_flowchart-v2-pointEnd)" style="" class="edge-thickness-normal edge-pattern-solid edge-thickness-normal edge-pattern-solid flowchart-link" id="L_Validator_AuthCheck_0" d="M931.43,1627L931.43,1633.167C931.43,1639.333,931.43,1651.667,1044.914,1667.145C1158.399,1682.624,1385.368,1701.248,1498.853,1710.56L1612.338,1719.872"/><path marker-end="url(#my-svg_flowchart-v2-pointEnd)" style="" class="edge-thickness-normal edge-pattern-solid edge-thickness-normal edge-pattern-solid flowchart-link" id="L_AuthCheck_CircuitBreaker_0" d="M1711.395,1767L1711.395,1771.167C1711.395,1775.333,1711.395,1783.667,1711.395,1793.333C1711.395,1803,1711.395,1814,1711.395,1819.5L1711.395,1825"/><path marker-end="url(#my-svg_flowchart-v2-pointEnd)" style="" class="edge-thickness-normal edge-pattern-solid edge-thickness-normal edge-pattern-solid flowchart-link" id="L_CircuitBreaker_ToolHandlers_0" d="M1711.395,1907L1711.395,1913.167C1711.395,1919.333,1711.395,1931.667,1540.639,1942C1369.883,1952.333,1028.371,1960.667,857.615,1968.333C686.859,1976,686.859,1983,686.859,1986.5L686.859,1990"/><path marker-end="url(#my-svg_flowchart-v2-pointEnd)" style="" class="edge-thickness-normal edge-pattern-solid edge-thickness-normal edge-pattern-solid flowchart-link" id="L_ToolHandlers_ToolResults_0" d="M696.302,2072L697.311,2076.167C698.32,2080.333,700.338,2088.667,701.347,2097C702.355,2105.333,702.355,2113.667,702.355,2122C702.355,2130.333,702.355,2138.667,699.335,2146.486C696.315,2154.306,690.275,2161.611,687.255,2165.264L684.235,2168.917"/><path marker-end="url(#my-svg_flowchart-v2-pointEnd)" style="" class="edge-thickness-normal edge-pattern-solid edge-thickness-normal edge-pattern-solid flowchart-link" id="L_ToolHandlers_ErrorHandler_0" d="M617.255,2072L609.819,2076.167C602.382,2080.333,587.509,2088.667,564.786,2097C542.063,2105.333,511.488,2113.667,496.201,2122C480.914,2130.333,480.914,2138.667,442.123,2150.414C403.332,2162.161,325.75,2177.322,286.959,2184.903L248.168,2192.483"/><path marker-end="url(#my-svg_flowchart-v2-pointEnd)" style="" class="edge-thickness-normal edge-pattern-solid edge-thickness-normal edge-pattern-solid flowchart-link" id="L_ToolResults_AuditLog_0" d="M649.441,2250L649.441,2254.167C649.441,2258.333,649.441,2266.667,617.879,2278.254C586.317,2289.841,523.194,2304.682,491.632,2312.102L460.07,2319.522"/><path marker-end="url(#my-svg_flowchart-v2-pointEnd)" style="" class="edge-thickness-normal edge-pattern-solid edge-thickness-normal edge-pattern-solid flowchart-link" id="L_ErrorHandler_AuditLog_0" d="M153.414,2250L153.414,2254.167C153.414,2258.333,153.414,2266.667,176.916,2277.554C200.417,2288.441,247.42,2301.882,270.922,2308.602L294.424,2315.323"/><path marker-end="url(#my-svg_flowchart-v2-pointEnd)" style="" class="edge-thickness-normal edge-pattern-solid edge-thickness-normal edge-pattern-solid flowchart-link" id="L_ToolResults_ChatAPI_0" d="M558.933,2172L549.263,2167.833C539.593,2163.667,520.254,2155.333,510.584,2147C500.914,2138.667,500.914,2130.333,494.247,2122C487.581,2113.667,474.247,2105.333,467.581,2090.5C460.914,2075.667,460.914,2054.333,460.914,2033C460.914,2011.667,460.914,1990.333,460.914,1975.5C460.914,1960.667,460.914,1952.333,460.914,1935.5C460.914,1918.667,460.914,1893.333,460.914,1868C460.914,1842.667,460.914,1817.333,460.914,1794C460.914,1770.667,460.914,1749.333,460.914,1728C460.914,1706.667,460.914,1685.333,460.914,1662C460.914,1638.667,460.914,1613.333,460.914,1588C460.914,1562.667,460.914,1537.333,460.914,1520.5C460.914,1503.667,460.914,1495.333,460.914,1478.5C460.914,1461.667,460.914,1436.333,460.914,1411C460.914,1385.667,460.914,1360.333,460.914,1343.5C460.914,1326.667,460.914,1318.333,460.914,1310C460.914,1301.667,460.914,1293.333,460.914,1278.5C460.914,1263.667,460.914,1242.333,460.914,1221C460.914,1199.667,460.914,1178.333,460.914,1163.5C460.914,1148.667,460.914,1140.333,460.914,1125.5C460.914,1110.667,460.914,1089.333,460.914,1068C460.914,1046.667,460.914,1025.333,460.914,1004C460.914,982.667,460.914,961.333,460.914,940C460.914,918.667,460.914,897.333,460.914,882.5C460.914,867.667,460.914,859.333,460.914,851C460.914,842.667,460.914,834.333,460.914,819.5C460.914,804.667,460.914,783.333,460.914,762C460.914,740.667,460.914,719.333,460.914,698C460.914,676.667,460.914,655.333,460.914,634C460.914,612.667,460.914,591.333,460.914,570C460.914,548.667,460.914,527.333,460.914,506C460.914,484.667,460.914,463.333,460.914,448.5C460.914,433.667,460.914,425.333,469.197,417.283C477.479,409.233,494.045,401.465,502.327,397.582L510.61,393.698"/><path marker-end="url(#my-svg_flowchart-v2-pointEnd)" style="" class="edge-thickness-normal edge-pattern-solid edge-thickness-normal edge-pattern-solid flowchart-link" id="L_ErrorHandler_ChatAPI_0" d="M115.328,2172L111.259,2167.833C107.19,2163.667,99.052,2155.333,94.983,2147C90.914,2138.667,90.914,2130.333,90.914,2122C90.914,2113.667,90.914,2105.333,90.914,2090.5C90.914,2075.667,90.914,2054.333,90.914,2033C90.914,2011.667,90.914,1990.333,90.914,1975.5C90.914,1960.667,90.914,1952.333,90.914,1935.5C90.914,1918.667,90.914,1893.333,90.914,1868C90.914,1842.667,90.914,1817.333,90.914,1794C90.914,1770.667,90.914,1749.333,90.914,1728C90.914,1706.667,90.914,1685.333,90.914,1662C90.914,1638.667,90.914,1613.333,90.914,1588C90.914,1562.667,90.914,1537.333,90.914,1520.5C90.914,1503.667,90.914,1495.333,90.914,1478.5C90.914,1461.667,90.914,1436.333,90.914,1411C90.914,1385.667,90.914,1360.333,90.914,1343.5C90.914,1326.667,90.914,1318.333,90.914,1310C90.914,1301.667,90.914,1293.333,90.914,1278.5C90.914,1263.667,90.914,1242.333,90.914,1221C90.914,1199.667,90.914,1178.333,90.914,1163.5C90.914,1148.667,90.914,1140.333,90.914,1125.5C90.914,1110.667,90.914,1089.333,90.914,1068C90.914,1046.667,90.914,1025.333,90.914,1004C90.914,982.667,90.914,961.333,90.914,940C90.914,918.667,90.914,897.333,90.914,882.5C90.914,867.667,90.914,859.333,90.914,851C90.914,842.667,90.914,834.333,90.914,819.5C90.914,804.667,90.914,783.333,90.914,762C90.914,740.667,90.914,719.333,90.914,698C90.914,676.667,90.914,655.333,90.914,634C90.914,612.667,90.914,591.333,90.914,570C90.914,548.667,90.914,527.333,90.914,506C90.914,484.667,90.914,463.333,90.914,448.5C90.914,433.667,90.914,425.333,157.268,411.689C223.623,398.045,356.331,379.089,422.686,369.612L489.04,360.134"/><path marker-end="url(#my-svg_flowchart-v2-pointEnd)" style="" class="edge-thickness-normal edge-pattern-solid edge-thickness-normal edge-pattern-solid flowchart-link" id="L_ChatAPI_ResultUI_0" d="M753,384.37L769.301,389.808C785.603,395.246,818.206,406.123,834.507,415.728C850.809,425.333,850.809,433.667,897.443,445.372C944.078,457.077,1037.348,472.155,1083.983,479.694L1130.618,487.232"/><path marker-end="url(#my-svg_flowchart-v2-pointEnd)" style="" class="edge-thickness-normal edge-pattern-solid edge-thickness-normal edge-pattern-solid flowchart-link" id="L_ResultUI_ChatUI_0" d="M1246.715,467L1246.715,462.833C1246.715,458.667,1246.715,450.333,1246.715,442C1246.715,433.667,1246.715,425.333,1246.715,408.5C1246.715,391.667,1246.715,366.333,1246.715,341C1246.715,315.667,1246.715,290.333,1246.715,273.5C1246.715,256.667,1246.715,248.333,1246.167,240.659C1245.619,232.984,1244.522,225.968,1243.974,222.46L1243.426,218.952"/></g><g class="edgeLabels"><g class="edgeLabel"><g transform="translate(0, 0)" class="label"><foreignObject height="0" width="0"><div style="display: table-cell; white-space: nowrap; line-height: 1.5; max-width: 200px; text-align: center;" class="labelBkg" xmlns="http://www.w3.org/1999/xhtml"><span class="edgeLabel"></span></div></foreignObject></g></g><g class="edgeLabel"><g transform="translate(0, 0)" class="label"><foreignObject height="0" width="0"><div style="display: table-cell; white-space: nowrap; line-height: 1.5; max-width: 200px; text-align: center;" class="labelBkg" xmlns="http://www.w3.org/1999/xhtml"><span class="edgeLabel"></span></div></foreignObject></g></g><g class="edgeLabel"><g transform="translate(0, 0)" class="label"><foreignObject height="0" width="0"><div style="display: table-cell; white-space: nowrap; line-height: 1.5; max-width: 200px; text-align: center;" class="labelBkg" xmlns="http://www.w3.org/1999/xhtml"><span class="edgeLabel"></span></div></foreignObject></g></g><g class="edgeLabel"><g transform="translate(0, 0)" class="label"><foreignObject height="0" width="0"><div style="display: table-cell; white-space: nowrap; line-height: 1.5; max-width: 200px; text-align: center;" class="labelBkg" xmlns="http://www.w3.org/1999/xhtml"><span class="edgeLabel"></span></div></foreignObject></g></g><g class="edgeLabel"><g transform="translate(0, 0)" class="label"><foreignObject height="0" width="0"><div style="display: table-cell; white-space: nowrap; line-height: 1.5; max-width: 200px; text-align: center;" class="labelBkg" xmlns="http://www.w3.org/1999/xhtml"><span class="edgeLabel"></span></div></foreignObject></g></g><g class="edgeLabel"><g transform="translate(0, 0)" class="label"><foreignObject height="0" width="0"><div style="display: table-cell; white-space: nowrap; line-height: 1.5; max-width: 200px; text-align: center;" class="labelBkg" xmlns="http://www.w3.org/1999/xhtml"><span class="edgeLabel"></span></div></foreignObject></g></g><g class="edgeLabel"><g transform="translate(0, 0)" class="label"><foreignObject height="0" width="0"><div style="display: table-cell; white-space: nowrap; line-height: 1.5; max-width: 200px; text-align: center;" class="labelBkg" xmlns="http://www.w3.org/1999/xhtml"><span class="edgeLabel"></span></div></foreignObject></g></g><g class="edgeLabel"><g transform="translate(0, 0)" class="label"><foreignObject height="0" width="0"><div style="display: table-cell; white-space: nowrap; line-height: 1.5; max-width: 200px; text-align: center;" class="labelBkg" xmlns="http://www.w3.org/1999/xhtml"><span class="edgeLabel"></span></div></foreignObject></g></g><g class="edgeLabel"><g transform="translate(0, 0)" class="label"><foreignObject height="0" width="0"><div style="display: table-cell; white-space: nowrap; line-height: 1.5; max-width: 200px; text-align: center;" class="labelBkg" xmlns="http://www.w3.org/1999/xhtml"><span class="edgeLabel"></span></div></foreignObject></g></g><g class="edgeLabel"><g transform="translate(0, 0)" class="label"><foreignObject height="0" width="0"><div style="display: table-cell; white-space: nowrap; line-height: 1.5; max-width: 200px; text-align: center;" class="labelBkg" xmlns="http://www.w3.org/1999/xhtml"><span class="edgeLabel"></span></div></foreignObject></g></g><g class="edgeLabel"><g transform="translate(0, 0)" class="label"><foreignObject height="0" width="0"><div style="display: table-cell; white-space: nowrap; line-height: 1.5; max-width: 200px; text-align: center;" class="labelBkg" xmlns="http://www.w3.org/1999/xhtml"><span class="edgeLabel"></span></div></foreignObject></g></g><g class="edgeLabel"><g transform="translate(0, 0)" class="label"><foreignObject height="0" width="0"><div style="display: table-cell; white-space: nowrap; line-height: 1.5; max-width: 200px; text-align: center;" class="labelBkg" xmlns="http://www.w3.org/1999/xhtml"><span class="edgeLabel"></span></div></foreignObject></g></g><g class="edgeLabel"><g transform="translate(0, 0)" class="label"><foreignObject height="0" width="0"><div style="display: table-cell; white-space: nowrap; line-height: 1.5; max-width: 200px; text-align: center;" class="labelBkg" xmlns="http://www.w3.org/1999/xhtml"><span class="edgeLabel"></span></div></foreignObject></g></g><g class="edgeLabel"><g transform="translate(0, 0)" class="label"><foreignObject height="0" width="0"><div style="display: table-cell; white-space: nowrap; line-height: 1.5; max-width: 200px; text-align: center;" class="labelBkg" xmlns="http://www.w3.org/1999/xhtml"><span class="edgeLabel"></span></div></foreignObject></g></g><g class="edgeLabel"><g transform="translate(0, 0)" class="label"><foreignObject height="0" width="0"><div style="display: table-cell; white-space: nowrap; line-height: 1.5; max-width: 200px; text-align: center;" class="labelBkg" xmlns="http://www.w3.org/1999/xhtml"><span class="edgeLabel"></span></div></foreignObject></g></g><g class="edgeLabel"><g transform="translate(0, 0)" class="label"><foreignObject height="0" width="0"><div style="display: table-cell; white-space: nowrap; line-height: 1.5; max-width: 200px; text-align: center;" class="labelBkg" xmlns="http://www.w3.org/1999/xhtml"><span class="edgeLabel"></span></div></foreignObject></g></g><g class="edgeLabel"><g transform="translate(0, 0)" class="label"><foreignObject height="0" width="0"><div style="display: table-cell; white-space: nowrap; line-height: 1.5; max-width: 200px; text-align: center;" class="labelBkg" xmlns="http://www.w3.org/1999/xhtml"><span class="edgeLabel"></span></div></foreignObject></g></g><g class="edgeLabel"><g transform="translate(0, 0)" class="label"><foreignObject height="0" width="0"><div style="display: table-cell; white-space: nowrap; line-height: 1.5; max-width: 200px; text-align: center;" class="labelBkg" xmlns="http://www.w3.org/1999/xhtml"><span class="edgeLabel"></span></div></foreignObject></g></g><g class="edgeLabel"><g transform="translate(0, 0)" class="label"><foreignObject height="0" width="0"><div style="display: table-cell; white-space: nowrap; line-height: 1.5; max-width: 200px; text-align: center;" class="labelBkg" xmlns="http://www.w3.org/1999/xhtml"><span class="edgeLabel"></span></div></foreignObject></g></g><g class="edgeLabel"><g transform="translate(0, 0)" class="label"><foreignObject height="0" width="0"><div style="display: table-cell; white-space: nowrap; line-height: 1.5; max-width: 200px; text-align: center;" class="labelBkg" xmlns="http://www.w3.org/1999/xhtml"><span class="edgeLabel"></span></div></foreignObject></g></g><g class="edgeLabel"><g transform="translate(0, 0)" class="label"><foreignObject height="0" width="0"><div style="display: table-cell; white-space: nowrap; line-height: 1.5; max-width: 200px; text-align: center;" class="labelBkg" xmlns="http://www.w3.org/1999/xhtml"><span class="edgeLabel"></span></div></foreignObject></g></g><g class="edgeLabel"><g transform="translate(0, 0)" class="label"><foreignObject height="0" width="0"><div style="display: table-cell; white-space: nowrap; line-height: 1.5; max-width: 200px; text-align: center;" class="labelBkg" xmlns="http://www.w3.org/1999/xhtml"><span class="edgeLabel"></span></div></foreignObject></g></g><g class="edgeLabel"><g transform="translate(0, 0)" class="label"><foreignObject height="0" width="0"><div style="display: table-cell; white-space: nowrap; line-height: 1.5; max-width: 200px; text-align: center;" class="labelBkg" xmlns="http://www.w3.org/1999/xhtml"><span class="edgeLabel"></span></div></foreignObject></g></g><g class="edgeLabel"><g transform="translate(0, 0)" class="label"><foreignObject height="0" width="0"><div style="display: table-cell; white-space: nowrap; line-height: 1.5; max-width: 200px; text-align: center;" class="labelBkg" xmlns="http://www.w3.org/1999/xhtml"><span class="edgeLabel"></span></div></foreignObject></g></g><g class="edgeLabel"><g transform="translate(0, 0)" class="label"><foreignObject height="0" width="0"><div style="display: table-cell; white-space: nowrap; line-height: 1.5; max-width: 200px; text-align: center;" class="labelBkg" xmlns="http://www.w3.org/1999/xhtml"><span class="edgeLabel"></span></div></foreignObject></g></g><g class="edgeLabel"><g transform="translate(0, 0)" class="label"><foreignObject height="0" width="0"><div style="display: table-cell; white-space: nowrap; line-height: 1.5; max-width: 200px; text-align: center;" class="labelBkg" xmlns="http://www.w3.org/1999/xhtml"><span class="edgeLabel"></span></div></foreignObject></g></g><g class="edgeLabel"><g transform="translate(0, 0)" class="label"><foreignObject height="0" width="0"><div style="display: table-cell; white-space: nowrap; line-height: 1.5; max-width: 200px; text-align: center;" class="labelBkg" xmlns="http://www.w3.org/1999/xhtml"><span class="edgeLabel"></span></div></foreignObject></g></g><g class="edgeLabel"><g transform="translate(0, 0)" class="label"><foreignObject height="0" width="0"><div style="display: table-cell; white-space: nowrap; line-height: 1.5; max-width: 200px; text-align: center;" class="labelBkg" xmlns="http://www.w3.org/1999/xhtml"><span class="edgeLabel"></span></div></foreignObject></g></g></g><g class="nodes"><g transform="translate(1236.71484375, 60)" id="flowchart-User-0" class="node default"><rect height="54" width="116.625" y="-27" x="-58.3125" style="fill:#e3f2fd !important" class="basic label-container"/><g transform="translate(-28.3125, -12)" style="" class="label"><rect/><foreignObject height="24" width="56.625"><div style="display: table-cell; white-space: nowrap; line-height: 1.5; max-width: 200px; text-align: center;" xmlns="http://www.w3.org/1999/xhtml"><span class="nodeLabel"><p>👤 User</p></span></div></foreignObject></g></g><g transform="translate(1236.71484375, 176)" id="flowchart-ChatUI-1" class="node default"><rect height="78" width="199.75" y="-39" x="-99.875" style="fill:#e8f5e8 !important" class="basic label-container"/><g transform="translate(-69.875, -24)" style="" class="label"><rect/><foreignObject height="48" width="139.75"><div style="display: table-cell; white-space: nowrap; line-height: 1.5; max-width: 200px; text-align: center;" xmlns="http://www.w3.org/1999/xhtml"><span class="nodeLabel"><p>💬 Chat Interface<br />@assistant-ui/react</p></span></div></foreignObject></g></g><g transform="translate(1246.71484375, 1068)" id="flowchart-ConsentUI-2" class="node default newComponent"><rect height="78" width="228.515625" y="-39" x="-114.2578125" style="fill:#fff8e1 !important;stroke:#ff9800 !important;stroke-width:2px !important" class="basic label-container"/><g transform="translate(-84.2578125, -24)" style="" class="label"><rect/><foreignObject height="48" width="168.515625"><div style="display: table-cell; white-space: nowrap; line-height: 1.5; max-width: 200px; text-align: center;" xmlns="http://www.w3.org/1999/xhtml"><span class="nodeLabel"><p>🔒 Function Consent UI<br />Safety-based approval</p></span></div></foreignObject></g></g><g transform="translate(1246.71484375, 506)" id="flowchart-ResultUI-3" class="node default"><rect height="78" width="224.296875" y="-39" x="-112.1484375" style="" class="basic label-container"/><g transform="translate(-82.1484375, -24)" style="" class="label"><rect/><foreignObject height="48" width="164.296875"><div style="display: table-cell; white-space: nowrap; line-height: 1.5; max-width: 200px; text-align: center;" xmlns="http://www.w3.org/1999/xhtml"><span class="nodeLabel"><p>📊 Tool Results Display<br />Inline in chat</p></span></div></foreignObject></g></g><g transform="translate(623, 341)" id="flowchart-ChatAPI-4" class="node default enhanced"><rect height="102" width="260" y="-51" x="-130" style="fill:#4caf50 !important;stroke:#2e7d32 !important;stroke-width:2px !important" class="basic label-container"/><g transform="translate(-100, -36)" style="" class="label"><rect/><foreignObject height="72" width="200"><div style="display: table; white-space: break-spaces; line-height: 1.5; max-width: 200px; text-align: center; width: 200px;" xmlns="http://www.w3.org/1999/xhtml"><span class="nodeLabel"><p>🌐 /api/chat<br />Enhanced with function calling</p></span></div></foreignObject></g></g><g transform="translate(645.9140625, 1221)" id="flowchart-SchemaGen-5" class="node default newComponent"><rect height="78" width="252.484375" y="-39" x="-126.2421875" style="fill:#ffeb3b !important;stroke:#ff9800 !important;stroke-width:2px !important" class="basic label-container"/><g transform="translate(-96.2421875, -24)" style="" class="label"><rect/><foreignObject height="48" width="192.484375"><div style="display: table-cell; white-space: nowrap; line-height: 1.5; max-width: 200px; text-align: center;" xmlns="http://www.w3.org/1999/xhtml"><span class="nodeLabel"><p>📋 Schema Generator<br />generateFunctionSchema()</p></span></div></foreignObject></g></g><g transform="translate(931.4296875, 1221)" id="flowchart-FunctionExec-6" class="node default newComponent"><rect height="78" width="218.546875" y="-39" x="-109.2734375" style="fill:#ffeb3b !important;stroke:#ff9800 !important;stroke-width:2px !important" class="basic label-container"/><g transform="translate(-79.2734375, -24)" style="" class="label"><rect/><foreignObject height="48" width="158.546875"><div style="display: table-cell; white-space: nowrap; line-height: 1.5; max-width: 200px; text-align: center;" xmlns="http://www.w3.org/1999/xhtml"><span class="nodeLabel"><p>⚡ Function Executor<br />executeLLMFunction()</p></span></div></foreignObject></g></g><g transform="translate(1711.39453125, 506)" id="flowchart-LLMCall-7" class="node default"><rect height="78" width="238.390625" y="-39" x="-119.1953125" style="fill:#fff3e0 !important" class="basic label-container"/><g transform="translate(-89.1953125, -24)" style="" class="label"><rect/><foreignObject height="48" width="178.390625"><div style="display: table-cell; white-space: nowrap; line-height: 1.5; max-width: 200px; text-align: center;" xmlns="http://www.w3.org/1999/xhtml"><span class="nodeLabel"><p>🤖 LLM Request<br />With function definitions</p></span></div></foreignObject></g></g><g transform="translate(1820.83203125, 634)" id="flowchart-Claude-8" class="node default"><rect height="78" width="207.234375" y="-39" x="-103.6171875" style="fill:#e1f5fe !important" class="basic label-container"/><g transform="translate(-73.6171875, -24)" style="" class="label"><rect/><foreignObject height="48" width="147.234375"><div style="display: table-cell; white-space: nowrap; line-height: 1.5; max-width: 200px; text-align: center;" xmlns="http://www.w3.org/1999/xhtml"><span class="nodeLabel"><p>🔵 Claude Functions<br />Anthropic format</p></span></div></foreignObject></g></g><g transform="translate(1562.78515625, 634)" id="flowchart-Gemini-9" class="node default"><rect height="78" width="208.859375" y="-39" x="-104.4296875" style="fill:#fce4ec !important" class="basic label-container"/><g transform="translate(-74.4296875, -24)" style="" class="label"><rect/><foreignObject height="48" width="148.859375"><div style="display: table-cell; white-space: nowrap; line-height: 1.5; max-width: 200px; text-align: center;" xmlns="http://www.w3.org/1999/xhtml"><span class="nodeLabel"><p>🔴 Gemini Functions<br />Google format</p></span></div></foreignObject></g></g><g transform="translate(1711.39453125, 762)" id="flowchart-ResponseParser-10" class="node default"><rect height="78" width="213.265625" y="-39" x="-106.6328125" style="" class="basic label-container"/><g transform="translate(-76.6328125, -24)" style="" class="label"><rect/><foreignObject height="48" width="153.265625"><div style="display: table-cell; white-space: nowrap; line-height: 1.5; max-width: 200px; text-align: center;" xmlns="http://www.w3.org/1999/xhtml"><span class="nodeLabel"><p>🔍 Response Parser<br />Extract function calls</p></span></div></foreignObject></g></g><g transform="translate(645.9140625, 1411)" id="flowchart-Registry-11" class="node default enhanced"><rect height="102" width="260" y="-51" x="-130" style="fill:#4caf50 !important;stroke:#2e7d32 !important;stroke-width:2px !important" class="basic label-container"/><g transform="translate(-100, -36)" style="" class="label"><rect/><foreignObject height="72" width="200"><div style="display: table; white-space: break-spaces; line-height: 1.5; max-width: 200px; text-align: center; width: 200px;" xmlns="http://www.w3.org/1999/xhtml"><span class="nodeLabel"><p>📚 Tool Registry<br />Enhanced with Zod schemas</p></span></div></foreignObject></g></g><g transform="translate(931.4296875, 1411)" id="flowchart-ToolExec-12" class="node default enhanced"><rect height="78" width="181.671875" y="-39" x="-90.8359375" style="fill:#f3e5f5 !important;stroke:#2e7d32 !important;stroke-width:2px !important" class="basic label-container"/><g transform="translate(-60.8359375, -24)" style="" class="label"><rect/><foreignObject height="48" width="121.671875"><div style="display: table-cell; white-space: nowrap; line-height: 1.5; max-width: 200px; text-align: center;" xmlns="http://www.w3.org/1999/xhtml"><span class="nodeLabel"><p>⚙️ Tool Executor<br />executeTool()</p></span></div></foreignObject></g></g><g transform="translate(931.4296875, 1588)" id="flowchart-Validator-13" class="node default"><rect height="78" width="228.4375" y="-39" x="-114.21875" style="" class="basic label-container"/><g transform="translate(-84.21875, -24)" style="" class="label"><rect/><foreignObject height="48" width="168.4375"><div style="display: table-cell; white-space: nowrap; line-height: 1.5; max-width: 200px; text-align: center;" xmlns="http://www.w3.org/1999/xhtml"><span class="nodeLabel"><p>✅ Parameter Validator<br />Zod validation</p></span></div></foreignObject></g></g><g transform="translate(686.859375, 2033)" id="flowchart-ToolHandlers-14" class="node default existing"><rect height="78" width="216.890625" y="-39" x="-108.4453125" style="fill:#e0e0e0 !important;stroke:#757575 !important;stroke-width:1px !important" class="basic label-container"/><g transform="translate(-78.4453125, -24)" style="" class="label"><rect/><foreignObject height="48" width="156.890625"><div style="display: table-cell; white-space: nowrap; line-height: 1.5; max-width: 200px; text-align: center;" xmlns="http://www.w3.org/1999/xhtml"><span class="nodeLabel"><p>🔧 Tool Handlers<br />Existing API endpoints</p></span></div></foreignObject></g></g><g transform="translate(275.9140625, 1588)" id="flowchart-ToolDefs-15" class="node default enhanced"><rect height="102" width="209.703125" y="-51" x="-104.8515625" style="fill:#4caf50 !important;stroke:#2e7d32 !important;stroke-width:2px !important" class="basic label-container"/><g transform="translate(-74.8515625, -36)" style="" class="label"><rect/><foreignObject height="72" width="149.703125"><div style="display: table-cell; white-space: nowrap; line-height: 1.5; max-width: 200px; text-align: center;" xmlns="http://www.w3.org/1999/xhtml"><span class="nodeLabel"><p>🛠️ Tool Definitions<br />+ parameterSchemas<br />+ executionSafety</p></span></div></foreignObject></g></g><g transform="translate(275.9140625, 1728)" id="flowchart-ZodSchemas-16" class="node default"><rect height="78" width="208.40625" y="-39" x="-104.203125" style="" class="basic label-container"/><g transform="translate(-74.203125, -24)" style="" class="label"><rect/><foreignObject height="48" width="148.40625"><div style="display: table-cell; white-space: nowrap; line-height: 1.5; max-width: 200px; text-align: center;" xmlns="http://www.w3.org/1999/xhtml"><span class="nodeLabel"><p>📝 Zod Schemas<br />Per action validation</p></span></div></foreignObject></g></g><g transform="translate(275.9140625, 1868)" id="flowchart-SafetyLevels-17" class="node default"><rect height="102" width="260" y="-51" x="-130" style="" class="basic label-container"/><g transform="translate(-100, -36)" style="" class="label"><rect/><foreignObject height="72" width="200"><div style="display: table; white-space: break-spaces; line-height: 1.5; max-width: 200px; text-align: center; width: 200px;" xmlns="http://www.w3.org/1999/xhtml"><span class="nodeLabel"><p>🚦 Safety Levels<br />read-only/generative/mutative</p></span></div></foreignObject></g></g><g transform="translate(1711.39453125, 940)" id="flowchart-FunctionVal-18" class="node default newComponent"><rect height="78" width="232.328125" y="-39" x="-116.1640625" style="fill:#ffeb3b !important;stroke:#ff9800 !important;stroke-width:2px !important" class="basic label-container"/><g transform="translate(-86.1640625, -24)" style="" class="label"><rect/><foreignObject height="48" width="172.328125"><div style="display: table-cell; white-space: nowrap; line-height: 1.5; max-width: 200px; text-align: center;" xmlns="http://www.w3.org/1999/xhtml"><span class="nodeLabel"><p>🛡️ Function Validator<br />validateFunctionName()</p></span></div></foreignObject></g></g><g transform="translate(1711.39453125, 1728)" id="flowchart-AuthCheck-19" class="node default existing"><rect height="78" width="190.140625" y="-39" x="-95.0703125" style="fill:#e0e0e0 !important;stroke:#757575 !important;stroke-width:1px !important" class="basic label-container"/><g transform="translate(-65.0703125, -24)" style="" class="label"><rect/><foreignObject height="48" width="130.140625"><div style="display: table-cell; white-space: nowrap; line-height: 1.5; max-width: 200px; text-align: center;" xmlns="http://www.w3.org/1999/xhtml"><span class="nodeLabel"><p>🔐 Authentication<br />validateAuth()</p></span></div></foreignObject></g></g><g transform="translate(1711.39453125, 1868)" id="flowchart-CircuitBreaker-20" class="node default newComponent"><rect height="78" width="192.984375" y="-39" x="-96.4921875" style="fill:#ffeb3b !important;stroke:#ff9800 !important;stroke-width:2px !important" class="basic label-container"/><g transform="translate(-66.4921875, -24)" style="" class="label"><rect/><foreignObject height="48" width="132.984375"><div style="display: table-cell; white-space: nowrap; line-height: 1.5; max-width: 200px; text-align: center;" xmlns="http://www.w3.org/1999/xhtml"><span class="nodeLabel"><p>⚡ Circuit Breaker<br />Rate limiting</p></span></div></foreignObject></g></g><g transform="translate(649.44140625, 2211)" id="flowchart-ToolResults-21" class="node default"><rect height="78" width="197.21875" y="-39" x="-98.609375" style="" class="basic label-container"/><g transform="translate(-68.609375, -24)" style="" class="label"><rect/><foreignObject height="48" width="137.21875"><div style="display: table-cell; white-space: nowrap; line-height: 1.5; max-width: 200px; text-align: center;" xmlns="http://www.w3.org/1999/xhtml"><span class="nodeLabel"><p>📈 Tool Results<br />Direct JSON output</p></span></div></foreignObject></g></g><g transform="translate(153.4140625, 2211)" id="flowchart-ErrorHandler-22" class="node default"><rect height="78" width="181.65625" y="-39" x="-90.828125" style="" class="basic label-container"/><g transform="translate(-60.828125, -24)" style="" class="label"><rect/><foreignObject height="48" width="121.65625"><div style="display: table-cell; white-space: nowrap; line-height: 1.5; max-width: 200px; text-align: center;" xmlns="http://www.w3.org/1999/xhtml"><span class="nodeLabel"><p>❌ Error Handler<br />RFC 9457 format</p></span></div></foreignObject></g></g><g transform="translate(377.22265625, 2339)" id="flowchart-AuditLog-23" class="node default existing"><rect height="78" width="157.90625" y="-39" x="-78.953125" style="fill:#f1f8e9 !important;stroke:#757575 !important;stroke-width:1px !important" class="basic label-container"/><g transform="translate(-48.953125, -24)" style="" class="label"><rect/><foreignObject height="48" width="97.90625"><div style="display: table-cell; white-space: nowrap; line-height: 1.5; max-width: 200px; text-align: center;" xmlns="http://www.w3.org/1999/xhtml"><span class="nodeLabel"><p>📋 Audit Trail<br />ai_calls table</p></span></div></foreignObject></g></g></g></g></g></svg>