<svg aria-roledescription="flowchart-v2" role="graphics-document document" viewBox="0 0 2627.7265625 958" style="max-width: 2627.73px; background-color: transparent;" class="flowchart" xmlns:xlink="http://www.w3.org/1999/xlink" xmlns="http://www.w3.org/2000/svg" width="100%" id="my-svg"><style>#my-svg{font-family:"trebuchet ms",verdana,arial,sans-serif;font-size:16px;fill:#333;}@keyframes edge-animation-frame{from{stroke-dashoffset:0;}}@keyframes dash{to{stroke-dashoffset:0;}}#my-svg .edge-animation-slow{stroke-dasharray:9,5!important;stroke-dashoffset:900;animation:dash 50s linear infinite;stroke-linecap:round;}#my-svg .edge-animation-fast{stroke-dasharray:9,5!important;stroke-dashoffset:900;animation:dash 20s linear infinite;stroke-linecap:round;}#my-svg .error-icon{fill:#552222;}#my-svg .error-text{fill:#552222;stroke:#552222;}#my-svg .edge-thickness-normal{stroke-width:1px;}#my-svg .edge-thickness-thick{stroke-width:3.5px;}#my-svg .edge-pattern-solid{stroke-dasharray:0;}#my-svg .edge-thickness-invisible{stroke-width:0;fill:none;}#my-svg .edge-pattern-dashed{stroke-dasharray:3;}#my-svg .edge-pattern-dotted{stroke-dasharray:2;}#my-svg .marker{fill:#333333;stroke:#333333;}#my-svg .marker.cross{stroke:#333333;}#my-svg svg{font-family:"trebuchet ms",verdana,arial,sans-serif;font-size:16px;}#my-svg p{margin:0;}#my-svg .label{font-family:"trebuchet ms",verdana,arial,sans-serif;color:#333;}#my-svg .cluster-label text{fill:#333;}#my-svg .cluster-label span{color:#333;}#my-svg .cluster-label span p{background-color:transparent;}#my-svg .label text,#my-svg span{fill:#333;color:#333;}#my-svg .node rect,#my-svg .node circle,#my-svg .node ellipse,#my-svg .node polygon,#my-svg .node path{fill:#ECECFF;stroke:#9370DB;stroke-width:1px;}#my-svg .rough-node .label text,#my-svg .node .label text,#my-svg .image-shape .label,#my-svg .icon-shape .label{text-anchor:middle;}#my-svg .node .katex path{fill:#000;stroke:#000;stroke-width:1px;}#my-svg .rough-node .label,#my-svg .node .label,#my-svg .image-shape .label,#my-svg .icon-shape .label{text-align:center;}#my-svg .node.clickable{cursor:pointer;}#my-svg .root .anchor path{fill:#333333!important;stroke-width:0;stroke:#333333;}#my-svg .arrowheadPath{fill:#333333;}#my-svg .edgePath .path{stroke:#333333;stroke-width:2.0px;}#my-svg .flowchart-link{stroke:#333333;fill:none;}#my-svg .edgeLabel{background-color:rgba(232,232,232, 0.8);text-align:center;}#my-svg .edgeLabel p{background-color:rgba(232,232,232, 0.8);}#my-svg .edgeLabel rect{opacity:0.5;background-color:rgba(232,232,232, 0.8);fill:rgba(232,232,232, 0.8);}#my-svg .labelBkg{background-color:rgba(232, 232, 232, 0.5);}#my-svg .cluster rect{fill:#ffffde;stroke:#aaaa33;stroke-width:1px;}#my-svg .cluster text{fill:#333;}#my-svg .cluster span{color:#333;}#my-svg div.mermaidTooltip{position:absolute;text-align:center;max-width:200px;padding:2px;font-family:"trebuchet ms",verdana,arial,sans-serif;font-size:12px;background:hsl(80, 100%, 96.2745098039%);border:1px solid #aaaa33;border-radius:2px;pointer-events:none;z-index:100;}#my-svg .flowchartTitleText{text-anchor:middle;font-size:18px;fill:#333;}#my-svg rect.text{fill:none;stroke-width:0;}#my-svg .icon-shape,#my-svg .image-shape{background-color:rgba(232,232,232, 0.8);text-align:center;}#my-svg .icon-shape p,#my-svg .image-shape p{background-color:rgba(232,232,232, 0.8);padding:2px;}#my-svg .icon-shape rect,#my-svg .image-shape rect{opacity:0.5;background-color:rgba(232,232,232, 0.8);fill:rgba(232,232,232, 0.8);}#my-svg .label-icon{display:inline-block;height:1em;overflow:visible;vertical-align:-0.125em;}#my-svg .node .label-icon path{fill:currentColor;stroke:revert;stroke-width:revert;}#my-svg :root{--mermaid-font-family:"trebuchet ms",verdana,arial,sans-serif;}#my-svg .userAction&gt;*{fill:#e1f5fe!important;stroke:#01579b!important;stroke-width:2px!important;}#my-svg .userAction span{fill:#e1f5fe!important;stroke:#01579b!important;stroke-width:2px!important;}#my-svg .commHub&gt;*{fill:#fff3e0!important;stroke:#e65100!important;stroke-width:3px!important;}#my-svg .commHub span{fill:#fff3e0!important;stroke:#e65100!important;stroke-width:3px!important;}#my-svg .action&gt;*{fill:#f3e5f5!important;stroke:#4a148c!important;stroke-width:2px!important;}#my-svg .action span{fill:#f3e5f5!important;stroke:#4a148c!important;stroke-width:2px!important;}#my-svg .component&gt;*{fill:#e8f5e8!important;stroke:#1b5e20!important;stroke-width:2px!important;}#my-svg .component span{fill:#e8f5e8!important;stroke:#1b5e20!important;stroke-width:2px!important;}#my-svg .effect&gt;*{fill:#fff8e1!important;stroke:#ff8f00!important;stroke-width:2px!important;}#my-svg .effect span{fill:#fff8e1!important;stroke:#ff8f00!important;stroke-width:2px!important;}</style><g><marker orient="auto" markerHeight="8" markerWidth="8" markerUnits="userSpaceOnUse" refY="5" refX="5" viewBox="0 0 10 10" class="marker flowchart-v2" id="my-svg_flowchart-v2-pointEnd"><path style="stroke-width: 1; stroke-dasharray: 1, 0;" class="arrowMarkerPath" d="M 0 0 L 10 5 L 0 10 z"/></marker><marker orient="auto" markerHeight="8" markerWidth="8" markerUnits="userSpaceOnUse" refY="5" refX="4.5" viewBox="0 0 10 10" class="marker flowchart-v2" id="my-svg_flowchart-v2-pointStart"><path style="stroke-width: 1; stroke-dasharray: 1, 0;" class="arrowMarkerPath" d="M 0 5 L 10 10 L 10 0 z"/></marker><marker orient="auto" markerHeight="11" markerWidth="11" markerUnits="userSpaceOnUse" refY="5" refX="11" viewBox="0 0 10 10" class="marker flowchart-v2" id="my-svg_flowchart-v2-circleEnd"><circle style="stroke-width: 1; stroke-dasharray: 1, 0;" class="arrowMarkerPath" r="5" cy="5" cx="5"/></marker><marker orient="auto" markerHeight="11" markerWidth="11" markerUnits="userSpaceOnUse" refY="5" refX="-1" viewBox="0 0 10 10" class="marker flowchart-v2" id="my-svg_flowchart-v2-circleStart"><circle style="stroke-width: 1; stroke-dasharray: 1, 0;" class="arrowMarkerPath" r="5" cy="5" cx="5"/></marker><marker orient="auto" markerHeight="11" markerWidth="11" markerUnits="userSpaceOnUse" refY="5.2" refX="12" viewBox="0 0 11 11" class="marker cross flowchart-v2" id="my-svg_flowchart-v2-crossEnd"><path style="stroke-width: 2; stroke-dasharray: 1, 0;" class="arrowMarkerPath" d="M 1,1 l 9,9 M 10,1 l -9,9"/></marker><marker orient="auto" markerHeight="11" markerWidth="11" markerUnits="userSpaceOnUse" refY="5.2" refX="-1" viewBox="0 0 11 11" class="marker cross flowchart-v2" id="my-svg_flowchart-v2-crossStart"><path style="stroke-width: 2; stroke-dasharray: 1, 0;" class="arrowMarkerPath" d="M 1,1 l 9,9 M 10,1 l -9,9"/></marker><g class="root"><g class="clusters"/><g class="edgePaths"><path marker-end="url(#my-svg_flowchart-v2-pointEnd)" style="" class="edge-thickness-normal edge-pattern-solid edge-thickness-normal edge-pattern-solid flowchart-link" id="L_UserGlossary_CommContext_0" d="M2003.133,54.539L1901.545,63.949C1799.957,73.359,1596.781,92.18,1483.972,105.535C1371.164,118.891,1348.722,126.782,1337.501,130.728L1326.28,134.673"/><path marker-end="url(#my-svg_flowchart-v2-pointEnd)" style="" class="edge-thickness-normal edge-pattern-solid edge-thickness-normal edge-pattern-solid flowchart-link" id="L_UserStructure_CommContext_0" d="M1511.992,62.108L1460.852,70.256C1409.712,78.405,1307.432,94.703,1255.003,106.392C1202.573,118.081,1199.993,125.161,1198.704,128.701L1197.414,132.242"/><path marker-end="url(#my-svg_flowchart-v2-pointEnd)" style="" class="edge-thickness-normal edge-pattern-solid edge-thickness-normal edge-pattern-solid flowchart-link" id="L_UserSearch_CommContext_0" d="M782.145,71.332L804.258,77.943C826.371,84.554,870.598,97.777,910.86,109.64C951.122,121.503,987.419,132.007,1005.568,137.258L1023.716,142.51"/><path marker-end="url(#my-svg_flowchart-v2-pointEnd)" style="" class="edge-thickness-normal edge-pattern-solid edge-thickness-normal edge-pattern-solid flowchart-link" id="L_UserDocGlossary_CommContext_0" d="M959.785,68.586L918.071,75.655C876.357,82.724,792.928,96.862,803.566,112.433C814.203,128.004,918.907,145.009,971.259,153.511L1023.61,162.013"/><path marker-end="url(#my-svg_flowchart-v2-pointEnd)" style="" class="edge-thickness-normal edge-pattern-solid edge-thickness-normal edge-pattern-solid flowchart-link" id="L_UserDocScroll_CommContext_0" d="M302.66,61.858L348.904,70.048C395.147,78.239,487.634,94.619,607.789,112.213C727.944,129.808,875.767,148.615,949.679,158.019L1023.591,167.423"/><path marker-end="url(#my-svg_flowchart-v2-pointEnd)" style="" class="edge-thickness-normal edge-pattern-solid edge-thickness-normal edge-pattern-solid flowchart-link" id="L_CommContext_ScrollAction_0" d="M1254.791,238L1261.108,242.167C1267.425,246.333,1280.06,254.667,1286.378,262.333C1292.695,270,1292.695,277,1292.695,280.5L1292.695,284"/><path marker-end="url(#my-svg_flowchart-v2-pointEnd)" style="" class="edge-thickness-normal edge-pattern-solid edge-thickness-normal edge-pattern-solid flowchart-link" id="L_CommContext_PositionAction_0" d="M1046.764,238L1036.086,242.167C1025.408,246.333,1004.052,254.667,993.373,262.333C982.695,270,982.695,277,982.695,280.5L982.695,284"/><path marker-end="url(#my-svg_flowchart-v2-pointEnd)" style="" class="edge-thickness-normal edge-pattern-solid edge-thickness-normal edge-pattern-solid flowchart-link" id="L_CommContext_HighlightAction_0" d="M1027.559,210.448L971.563,219.207C915.568,227.965,803.577,245.483,747.581,259.741C691.586,274,691.586,285,691.586,290.5L691.586,296"/><path marker-end="url(#my-svg_flowchart-v2-pointEnd)" style="" class="edge-thickness-normal edge-pattern-solid edge-thickness-normal edge-pattern-solid flowchart-link" id="L_CommContext_TabAction_0" d="M1327.371,199.486L1454.46,210.072C1581.549,220.657,1835.728,241.829,1962.817,263.081C2089.906,284.333,2089.906,305.667,2089.906,331C2089.906,356.333,2089.906,385.667,2089.906,417C2089.906,448.333,2089.906,481.667,2089.906,511C2089.906,540.333,2089.906,565.667,2089.906,583.833C2089.906,602,2089.906,613,2089.906,618.5L2089.906,624"/><path marker-end="url(#my-svg_flowchart-v2-pointEnd)" style="" class="edge-thickness-normal edge-pattern-solid edge-thickness-normal edge-pattern-solid flowchart-link" id="L_ScrollAction_Document_0" d="M1292.695,366L1292.695,374.167C1292.695,382.333,1292.695,398.667,1275.857,414.717C1259.019,430.768,1225.343,446.536,1208.505,454.42L1191.667,462.304"/><path marker-end="url(#my-svg_flowchart-v2-pointEnd)" style="" class="edge-thickness-normal edge-pattern-solid edge-thickness-normal edge-pattern-solid flowchart-link" id="L_PositionAction_Document_0" d="M982.695,366L982.695,374.167C982.695,382.333,982.695,398.667,990.107,414.52C997.519,430.374,1012.343,445.747,1019.755,453.434L1027.167,461.121"/><path marker-end="url(#my-svg_flowchart-v2-pointEnd)" style="" class="edge-thickness-normal edge-pattern-solid edge-thickness-normal edge-pattern-solid flowchart-link" id="L_HighlightAction_Document_0" d="M691.586,354L691.586,364.167C691.586,374.333,691.586,394.667,733.863,415.743C776.14,436.818,860.694,458.637,902.971,469.546L945.248,480.455"/><path marker-end="url(#my-svg_flowchart-v2-pointEnd)" style="" class="edge-thickness-normal edge-pattern-solid edge-thickness-normal edge-pattern-solid flowchart-link" id="L_TabAction_GlossaryTab_0" d="M2198.742,678.697L2229.593,685.414C2260.444,692.131,2322.146,705.566,2345.125,716.155C2368.103,726.745,2352.359,734.49,2344.487,738.362L2336.614,742.234"/><path marker-end="url(#my-svg_flowchart-v2-pointEnd)" style="" class="edge-thickness-normal edge-pattern-solid edge-thickness-normal edge-pattern-solid flowchart-link" id="L_TabAction_StructureTab_0" d="M1981.07,662.506L1844.536,671.921C1708.003,681.337,1434.935,700.169,1184.993,718.864C935.05,737.56,708.233,756.12,594.825,765.401L481.416,774.681"/><path marker-end="url(#my-svg_flowchart-v2-pointEnd)" style="" class="edge-thickness-normal edge-pattern-solid edge-thickness-normal edge-pattern-solid flowchart-link" id="L_TabAction_SearchTab_0" d="M1981.07,658.773L1691.497,668.811C1401.923,678.848,822.776,698.924,526.226,712.807C229.677,726.69,215.724,734.379,208.748,738.224L201.772,742.069"/><path marker-end="url(#my-svg_flowchart-v2-pointEnd)" style="" class="edge-thickness-normal edge-pattern-solid edge-thickness-normal edge-pattern-solid flowchart-link" id="L_Document_DocScroll_0" d="M1209.121,532.317L1282.546,542.097C1355.971,551.878,1502.822,571.439,1554.172,587.097C1605.522,602.754,1561.371,614.509,1539.296,620.386L1517.221,626.263"/><path marker-end="url(#my-svg_flowchart-v2-pointEnd)" style="" class="edge-thickness-normal edge-pattern-solid edge-thickness-normal edge-pattern-solid flowchart-link" id="L_Document_DocHighlight_0" d="M1209.121,528.805L1306.739,539.17C1404.357,549.536,1599.592,570.268,1697.21,584.134C1794.828,598,1794.828,605,1794.828,608.5L1794.828,612"/><path marker-end="url(#my-svg_flowchart-v2-pointEnd)" style="" class="edge-thickness-normal edge-pattern-solid edge-thickness-normal edge-pattern-solid flowchart-link" id="L_Document_MarkJS_0" d="M949.121,530.238L862.725,540.365C776.328,550.492,603.535,570.746,517.139,584.373C430.742,598,430.742,605,430.742,608.5L430.742,612"/><path marker-end="url(#my-svg_flowchart-v2-pointEnd)" style="" class="edge-thickness-normal edge-pattern-solid edge-thickness-normal edge-pattern-solid flowchart-link" id="L_Document_PositionSync_0" d="M949.121,527.273L836.622,537.894C724.122,548.516,499.124,569.758,378.334,584.263C257.544,598.768,240.962,606.535,232.672,610.419L224.381,614.303"/><path marker-end="url(#my-svg_flowchart-v2-pointEnd)" style="" class="edge-thickness-normal edge-pattern-solid edge-thickness-normal edge-pattern-solid flowchart-link" id="L_GlossaryTab_TabScroll_0" d="M2149.18,788.987L1980.313,798.656C1811.445,808.325,1473.711,827.662,1152.197,846.923C830.682,866.185,525.388,885.369,372.741,894.961L220.094,904.554"/><path marker-end="url(#my-svg_flowchart-v2-pointEnd)" style="" class="edge-thickness-normal edge-pattern-solid edge-thickness-normal edge-pattern-solid flowchart-link" id="L_GlossaryTab_TabHighlight_0" d="M2253.818,822L2253.826,826.167C2253.835,830.333,2253.851,838.667,2251.974,846.41C2250.097,854.154,2246.327,861.308,2244.441,864.884L2242.556,868.461"/><path marker-end="url(#my-svg_flowchart-v2-pointEnd)" style="" class="edge-thickness-normal edge-pattern-solid edge-thickness-normal edge-pattern-solid flowchart-link" id="L_StructureTab_TabScroll_0" d="M290.707,822L281.194,826.167C271.681,830.333,252.655,838.667,236.166,846.678C219.677,854.69,205.724,862.379,198.748,866.224L191.772,870.069"/><path marker-end="url(#my-svg_flowchart-v2-pointEnd)" style="" class="edge-thickness-normal edge-pattern-solid edge-thickness-normal edge-pattern-solid flowchart-link" id="L_StructureTab_TabHighlight_0" d="M477.43,789.852L613.208,799.377C748.986,808.901,1020.542,827.951,1290.875,846.755C1561.208,865.559,1830.318,884.117,1964.872,893.396L2099.427,902.676"/><path marker-end="url(#my-svg_flowchart-v2-pointEnd)" style="" class="edge-thickness-normal edge-pattern-solid edge-thickness-normal edge-pattern-solid flowchart-link" id="L_SearchTab_TabScroll_0" d="M109.227,822L107.273,826.167C105.32,830.333,101.414,838.667,100.564,846.364C99.714,854.061,101.921,861.121,103.024,864.652L104.127,868.182"/><path marker-end="url(#my-svg_flowchart-v2-pointEnd)" style="" class="edge-thickness-normal edge-pattern-solid edge-thickness-normal edge-pattern-solid flowchart-link" id="L_SearchTab_TabHighlight_0" d="M232.07,789.507L386.055,799.089C540.039,808.671,848.008,827.836,1159.234,846.875C1470.459,865.913,1784.942,884.827,1942.184,894.284L2099.425,903.74"/><path marker-end="url(#my-svg_flowchart-v2-pointEnd)" style="" class="edge-thickness-normal edge-pattern-solid edge-thickness-normal edge-pattern-solid flowchart-link" id="L_PositionSync_StructureTab_0" d="M214.363,694L222.574,698.167C230.785,702.333,247.207,710.667,262.394,718.678C277.581,726.69,291.533,734.379,298.509,738.224L305.486,742.069"/><path marker-end="url(#my-svg_flowchart-v2-pointEnd)" style="" class="edge-thickness-normal edge-pattern-solid edge-thickness-normal edge-pattern-solid flowchart-link" id="L_PositionSync_GlossaryTab_0" d="M267.016,658.723L616.488,668.769C965.96,678.815,1664.904,698.908,2007.784,712.785C2350.664,726.663,2337.48,734.327,2330.888,738.158L2324.296,741.99"/><path marker-end="url(#my-svg_flowchart-v2-pointEnd)" style="" class="edge-thickness-normal edge-pattern-solid edge-thickness-normal edge-pattern-solid flowchart-link" id="L_PositionSync_SearchTab_0" d="M125.32,694L124.018,698.167C122.716,702.333,120.112,710.667,119.358,718.341C118.604,726.016,119.7,733.032,120.248,736.54L120.797,740.048"/><path marker-end="url(#my-svg_flowchart-v2-pointEnd)" style="" class="edge-thickness-normal edge-pattern-solid edge-thickness-normal edge-pattern-solid flowchart-link" id="L_TabAction_URLState_0" d="M2198.742,671.421L2251.298,679.351C2303.854,687.281,2408.966,703.14,2461.522,714.57C2514.078,726,2514.078,733,2514.078,736.5L2514.078,740"/><path marker-end="url(#my-svg_flowchart-v2-pointEnd)" style="" class="edge-thickness-normal edge-pattern-dotted edge-thickness-normal edge-pattern-solid flowchart-link" id="L_UserGlossary_GlossaryTab_0" d="M2165.898,79.711L2178.872,84.926C2191.846,90.141,2217.794,100.57,2230.768,118.452C2243.742,136.333,2243.742,161.667,2243.742,187C2243.742,212.333,2243.742,237.667,2243.742,261C2243.742,284.333,2243.742,305.667,2243.742,331C2243.742,356.333,2243.742,385.667,2243.742,417C2243.742,448.333,2243.742,481.667,2243.742,511C2243.742,540.333,2243.742,565.667,2243.742,589C2243.742,612.333,2243.742,633.667,2243.742,655C2243.742,676.333,2243.742,697.667,2244.29,711.841C2244.838,726.016,2245.935,733.032,2246.483,736.54L2247.031,740.048"/><path marker-end="url(#my-svg_flowchart-v2-pointEnd)" style="" class="edge-thickness-normal edge-pattern-dotted edge-thickness-normal edge-pattern-solid flowchart-link" id="L_UserStructure_DocScroll_0" d="M1550.566,86L1544.558,90.167C1538.549,94.333,1526.532,102.667,1520.524,119.5C1514.516,136.333,1514.516,161.667,1514.516,187C1514.516,212.333,1514.516,237.667,1514.516,261C1514.516,284.333,1514.516,305.667,1514.516,331C1514.516,356.333,1514.516,385.667,1514.516,417C1514.516,448.333,1514.516,481.667,1514.516,511C1514.516,540.333,1514.516,565.667,1508.234,582.154C1501.953,598.64,1489.39,606.281,1483.109,610.101L1476.828,613.921"/><path marker-end="url(#my-svg_flowchart-v2-pointEnd)" style="" class="edge-thickness-normal edge-pattern-dotted edge-thickness-normal edge-pattern-solid flowchart-link" id="L_UserSearch_DocScroll_0" d="M619.379,67.832L591.273,75.027C563.167,82.222,506.954,96.611,478.848,116.472C450.742,136.333,450.742,161.667,450.742,187C450.742,212.333,450.742,237.667,450.742,261C450.742,284.333,450.742,305.667,450.742,331C450.742,356.333,450.742,385.667,450.742,417C450.742,448.333,450.742,481.667,450.742,511C450.742,540.333,450.742,565.667,592.489,587.797C734.236,609.928,1017.73,628.857,1159.477,638.321L1301.224,647.785"/><path marker-end="url(#my-svg_flowchart-v2-pointEnd)" style="" class="edge-thickness-normal edge-pattern-dotted edge-thickness-normal edge-pattern-solid flowchart-link" id="L_UserDocGlossary_GlossaryTab_0" d="M1214.535,56.491L1336.458,65.576C1458.38,74.661,1702.225,92.83,1824.148,114.582C1946.07,136.333,1946.07,161.667,1946.07,187C1946.07,212.333,1946.07,237.667,1946.07,261C1946.07,284.333,1946.07,305.667,1946.07,331C1946.07,356.333,1946.07,385.667,1946.07,417C1946.07,448.333,1946.07,481.667,1946.07,511C1946.07,540.333,1946.07,565.667,1946.07,589C1946.07,612.333,1946.07,633.667,1946.07,655C1946.07,676.333,1946.07,697.667,1979.269,715.239C2012.468,732.812,2078.866,746.623,2112.065,753.529L2145.264,760.435"/><path marker-end="url(#my-svg_flowchart-v2-pointEnd)" style="" class="edge-thickness-normal edge-pattern-dotted edge-thickness-normal edge-pattern-solid flowchart-link" id="L_UserDocScroll_PositionSync_0" d="M163.157,86L157.215,90.167C151.274,94.333,139.391,102.667,133.449,119.5C127.508,136.333,127.508,161.667,127.508,187C127.508,212.333,127.508,237.667,127.508,261C127.508,284.333,127.508,305.667,127.508,331C127.508,356.333,127.508,385.667,127.508,417C127.508,448.333,127.508,481.667,127.508,511C127.508,540.333,127.508,565.667,128.056,581.841C128.604,598.016,129.7,605.032,130.248,608.54L130.797,612.048"/></g><g class="edgeLabels"><g class="edgeLabel"><g transform="translate(0, 0)" class="label"><foreignObject height="0" width="0"><div style="display: table-cell; white-space: nowrap; line-height: 1.5; max-width: 200px; text-align: center;" class="labelBkg" xmlns="http://www.w3.org/1999/xhtml"><span class="edgeLabel"></span></div></foreignObject></g></g><g class="edgeLabel"><g transform="translate(0, 0)" class="label"><foreignObject height="0" width="0"><div style="display: table-cell; white-space: nowrap; line-height: 1.5; max-width: 200px; text-align: center;" class="labelBkg" xmlns="http://www.w3.org/1999/xhtml"><span class="edgeLabel"></span></div></foreignObject></g></g><g class="edgeLabel"><g transform="translate(0, 0)" class="label"><foreignObject height="0" width="0"><div style="display: table-cell; white-space: nowrap; line-height: 1.5; max-width: 200px; text-align: center;" class="labelBkg" xmlns="http://www.w3.org/1999/xhtml"><span class="edgeLabel"></span></div></foreignObject></g></g><g class="edgeLabel"><g transform="translate(0, 0)" class="label"><foreignObject height="0" width="0"><div style="display: table-cell; white-space: nowrap; line-height: 1.5; max-width: 200px; text-align: center;" class="labelBkg" xmlns="http://www.w3.org/1999/xhtml"><span class="edgeLabel"></span></div></foreignObject></g></g><g class="edgeLabel"><g transform="translate(0, 0)" class="label"><foreignObject height="0" width="0"><div style="display: table-cell; white-space: nowrap; line-height: 1.5; max-width: 200px; text-align: center;" class="labelBkg" xmlns="http://www.w3.org/1999/xhtml"><span class="edgeLabel"></span></div></foreignObject></g></g><g class="edgeLabel"><g transform="translate(0, 0)" class="label"><foreignObject height="0" width="0"><div style="display: table-cell; white-space: nowrap; line-height: 1.5; max-width: 200px; text-align: center;" class="labelBkg" xmlns="http://www.w3.org/1999/xhtml"><span class="edgeLabel"></span></div></foreignObject></g></g><g class="edgeLabel"><g transform="translate(0, 0)" class="label"><foreignObject height="0" width="0"><div style="display: table-cell; white-space: nowrap; line-height: 1.5; max-width: 200px; text-align: center;" class="labelBkg" xmlns="http://www.w3.org/1999/xhtml"><span class="edgeLabel"></span></div></foreignObject></g></g><g class="edgeLabel"><g transform="translate(0, 0)" class="label"><foreignObject height="0" width="0"><div style="display: table-cell; white-space: nowrap; line-height: 1.5; max-width: 200px; text-align: center;" class="labelBkg" xmlns="http://www.w3.org/1999/xhtml"><span class="edgeLabel"></span></div></foreignObject></g></g><g class="edgeLabel"><g transform="translate(0, 0)" class="label"><foreignObject height="0" width="0"><div style="display: table-cell; white-space: nowrap; line-height: 1.5; max-width: 200px; text-align: center;" class="labelBkg" xmlns="http://www.w3.org/1999/xhtml"><span class="edgeLabel"></span></div></foreignObject></g></g><g class="edgeLabel"><g transform="translate(0, 0)" class="label"><foreignObject height="0" width="0"><div style="display: table-cell; white-space: nowrap; line-height: 1.5; max-width: 200px; text-align: center;" class="labelBkg" xmlns="http://www.w3.org/1999/xhtml"><span class="edgeLabel"></span></div></foreignObject></g></g><g class="edgeLabel"><g transform="translate(0, 0)" class="label"><foreignObject height="0" width="0"><div style="display: table-cell; white-space: nowrap; line-height: 1.5; max-width: 200px; text-align: center;" class="labelBkg" xmlns="http://www.w3.org/1999/xhtml"><span class="edgeLabel"></span></div></foreignObject></g></g><g class="edgeLabel"><g transform="translate(0, 0)" class="label"><foreignObject height="0" width="0"><div style="display: table-cell; white-space: nowrap; line-height: 1.5; max-width: 200px; text-align: center;" class="labelBkg" xmlns="http://www.w3.org/1999/xhtml"><span class="edgeLabel"></span></div></foreignObject></g></g><g class="edgeLabel"><g transform="translate(0, 0)" class="label"><foreignObject height="0" width="0"><div style="display: table-cell; white-space: nowrap; line-height: 1.5; max-width: 200px; text-align: center;" class="labelBkg" xmlns="http://www.w3.org/1999/xhtml"><span class="edgeLabel"></span></div></foreignObject></g></g><g class="edgeLabel"><g transform="translate(0, 0)" class="label"><foreignObject height="0" width="0"><div style="display: table-cell; white-space: nowrap; line-height: 1.5; max-width: 200px; text-align: center;" class="labelBkg" xmlns="http://www.w3.org/1999/xhtml"><span class="edgeLabel"></span></div></foreignObject></g></g><g class="edgeLabel"><g transform="translate(0, 0)" class="label"><foreignObject height="0" width="0"><div style="display: table-cell; white-space: nowrap; line-height: 1.5; max-width: 200px; text-align: center;" class="labelBkg" xmlns="http://www.w3.org/1999/xhtml"><span class="edgeLabel"></span></div></foreignObject></g></g><g class="edgeLabel"><g transform="translate(0, 0)" class="label"><foreignObject height="0" width="0"><div style="display: table-cell; white-space: nowrap; line-height: 1.5; max-width: 200px; text-align: center;" class="labelBkg" xmlns="http://www.w3.org/1999/xhtml"><span class="edgeLabel"></span></div></foreignObject></g></g><g class="edgeLabel"><g transform="translate(0, 0)" class="label"><foreignObject height="0" width="0"><div style="display: table-cell; white-space: nowrap; line-height: 1.5; max-width: 200px; text-align: center;" class="labelBkg" xmlns="http://www.w3.org/1999/xhtml"><span class="edgeLabel"></span></div></foreignObject></g></g><g class="edgeLabel"><g transform="translate(0, 0)" class="label"><foreignObject height="0" width="0"><div style="display: table-cell; white-space: nowrap; line-height: 1.5; max-width: 200px; text-align: center;" class="labelBkg" xmlns="http://www.w3.org/1999/xhtml"><span class="edgeLabel"></span></div></foreignObject></g></g><g class="edgeLabel"><g transform="translate(0, 0)" class="label"><foreignObject height="0" width="0"><div style="display: table-cell; white-space: nowrap; line-height: 1.5; max-width: 200px; text-align: center;" class="labelBkg" xmlns="http://www.w3.org/1999/xhtml"><span class="edgeLabel"></span></div></foreignObject></g></g><g class="edgeLabel"><g transform="translate(0, 0)" class="label"><foreignObject height="0" width="0"><div style="display: table-cell; white-space: nowrap; line-height: 1.5; max-width: 200px; text-align: center;" class="labelBkg" xmlns="http://www.w3.org/1999/xhtml"><span class="edgeLabel"></span></div></foreignObject></g></g><g class="edgeLabel"><g transform="translate(0, 0)" class="label"><foreignObject height="0" width="0"><div style="display: table-cell; white-space: nowrap; line-height: 1.5; max-width: 200px; text-align: center;" class="labelBkg" xmlns="http://www.w3.org/1999/xhtml"><span class="edgeLabel"></span></div></foreignObject></g></g><g class="edgeLabel"><g transform="translate(0, 0)" class="label"><foreignObject height="0" width="0"><div style="display: table-cell; white-space: nowrap; line-height: 1.5; max-width: 200px; text-align: center;" class="labelBkg" xmlns="http://www.w3.org/1999/xhtml"><span class="edgeLabel"></span></div></foreignObject></g></g><g class="edgeLabel"><g transform="translate(0, 0)" class="label"><foreignObject height="0" width="0"><div style="display: table-cell; white-space: nowrap; line-height: 1.5; max-width: 200px; text-align: center;" class="labelBkg" xmlns="http://www.w3.org/1999/xhtml"><span class="edgeLabel"></span></div></foreignObject></g></g><g class="edgeLabel"><g transform="translate(0, 0)" class="label"><foreignObject height="0" width="0"><div style="display: table-cell; white-space: nowrap; line-height: 1.5; max-width: 200px; text-align: center;" class="labelBkg" xmlns="http://www.w3.org/1999/xhtml"><span class="edgeLabel"></span></div></foreignObject></g></g><g class="edgeLabel"><g transform="translate(0, 0)" class="label"><foreignObject height="0" width="0"><div style="display: table-cell; white-space: nowrap; line-height: 1.5; max-width: 200px; text-align: center;" class="labelBkg" xmlns="http://www.w3.org/1999/xhtml"><span class="edgeLabel"></span></div></foreignObject></g></g><g class="edgeLabel"><g transform="translate(0, 0)" class="label"><foreignObject height="0" width="0"><div style="display: table-cell; white-space: nowrap; line-height: 1.5; max-width: 200px; text-align: center;" class="labelBkg" xmlns="http://www.w3.org/1999/xhtml"><span class="edgeLabel"></span></div></foreignObject></g></g><g class="edgeLabel"><g transform="translate(0, 0)" class="label"><foreignObject height="0" width="0"><div style="display: table-cell; white-space: nowrap; line-height: 1.5; max-width: 200px; text-align: center;" class="labelBkg" xmlns="http://www.w3.org/1999/xhtml"><span class="edgeLabel"></span></div></foreignObject></g></g><g class="edgeLabel"><g transform="translate(0, 0)" class="label"><foreignObject height="0" width="0"><div style="display: table-cell; white-space: nowrap; line-height: 1.5; max-width: 200px; text-align: center;" class="labelBkg" xmlns="http://www.w3.org/1999/xhtml"><span class="edgeLabel"></span></div></foreignObject></g></g><g class="edgeLabel"><g transform="translate(0, 0)" class="label"><foreignObject height="0" width="0"><div style="display: table-cell; white-space: nowrap; line-height: 1.5; max-width: 200px; text-align: center;" class="labelBkg" xmlns="http://www.w3.org/1999/xhtml"><span class="edgeLabel"></span></div></foreignObject></g></g><g transform="translate(2243.7421875, 415)" class="edgeLabel"><g transform="translate(-100, -24)" class="label"><foreignObject height="48" width="200"><div style="display: table; white-space: break-spaces; line-height: 1.5; max-width: 200px; text-align: center; width: 200px;" class="labelBkg" xmlns="http://www.w3.org/1999/xhtml"><span class="edgeLabel"><p>navigateToTab + highlightTerm</p></span></div></foreignObject></g></g><g transform="translate(1514.515625, 327)" class="edgeLabel"><g transform="translate(-56.8203125, -12)" class="label"><foreignObject height="24" width="113.640625"><div style="display: table-cell; white-space: nowrap; line-height: 1.5; max-width: 200px; text-align: center;" class="labelBkg" xmlns="http://www.w3.org/1999/xhtml"><span class="edgeLabel"><p>scrollToElement</p></span></div></foreignObject></g></g><g transform="translate(450.7421875, 327)" class="edgeLabel"><g transform="translate(-56.8203125, -12)" class="label"><foreignObject height="24" width="113.640625"><div style="display: table-cell; white-space: nowrap; line-height: 1.5; max-width: 200px; text-align: center;" class="labelBkg" xmlns="http://www.w3.org/1999/xhtml"><span class="edgeLabel"><p>scrollToElement</p></span></div></foreignObject></g></g><g transform="translate(1946.0703125, 415)" class="edgeLabel"><g transform="translate(-100, -24)" class="label"><foreignObject height="48" width="200"><div style="display: table; white-space: break-spaces; line-height: 1.5; max-width: 200px; text-align: center; width: 200px;" class="labelBkg" xmlns="http://www.w3.org/1999/xhtml"><span class="edgeLabel"><p>navigateToTab + scrollToElement</p></span></div></foreignObject></g></g><g transform="translate(127.5078125, 327)" class="edgeLabel"><g transform="translate(-66.0703125, -12)" class="label"><foreignObject height="24" width="132.140625"><div style="display: table-cell; white-space: nowrap; line-height: 1.5; max-width: 200px; text-align: center;" class="labelBkg" xmlns="http://www.w3.org/1999/xhtml"><span class="edgeLabel"><p>setCurrentPosition</p></span></div></foreignObject></g></g></g><g class="nodes"><g transform="translate(2084.515625, 47)" id="flowchart-UserGlossary-0" class="node default userAction"><rect height="78" width="162.765625" y="-39" x="-81.3828125" style="fill:#e1f5fe !important;stroke:#01579b !important;stroke-width:2px !important" class="basic label-container"/><g transform="translate(-51.3828125, -24)" style="" class="label"><rect/><foreignObject height="48" width="102.765625"><div style="display: table-cell; white-space: nowrap; line-height: 1.5; max-width: 200px; text-align: center;" xmlns="http://www.w3.org/1999/xhtml"><span class="nodeLabel"><p>👤 User Clicks<br />Glossary Entry</p></span></div></foreignObject></g></g><g transform="translate(1606.8046875, 47)" id="flowchart-UserStructure-1" class="node default userAction"><rect height="78" width="189.625" y="-39" x="-94.8125" style="fill:#e1f5fe !important;stroke:#01579b !important;stroke-width:2px !important" class="basic label-container"/><g transform="translate(-64.8125, -24)" style="" class="label"><rect/><foreignObject height="48" width="129.625"><div style="display: table-cell; white-space: nowrap; line-height: 1.5; max-width: 200px; text-align: center;" xmlns="http://www.w3.org/1999/xhtml"><span class="nodeLabel"><p>👤 User Clicks<br />Structure Heading</p></span></div></foreignObject></g></g><g transform="translate(700.76171875, 47)" id="flowchart-UserSearch-2" class="node default userAction"><rect height="78" width="162.765625" y="-39" x="-81.3828125" style="fill:#e1f5fe !important;stroke:#01579b !important;stroke-width:2px !important" class="basic label-container"/><g transform="translate(-51.3828125, -24)" style="" class="label"><rect/><foreignObject height="48" width="102.765625"><div style="display: table-cell; white-space: nowrap; line-height: 1.5; max-width: 200px; text-align: center;" xmlns="http://www.w3.org/1999/xhtml"><span class="nodeLabel"><p>👤 User Clicks<br />Search Result</p></span></div></foreignObject></g></g><g transform="translate(1087.16015625, 47)" id="flowchart-UserDocGlossary-3" class="node default userAction"><rect height="78" width="254.75" y="-39" x="-127.375" style="fill:#e1f5fe !important;stroke:#01579b !important;stroke-width:2px !important" class="basic label-container"/><g transform="translate(-97.375, -24)" style="" class="label"><rect/><foreignObject height="48" width="194.75"><div style="display: table-cell; white-space: nowrap; line-height: 1.5; max-width: 200px; text-align: center;" xmlns="http://www.w3.org/1999/xhtml"><span class="nodeLabel"><p>👤 User Clicks<br />Glossary Term in Document</p></span></div></foreignObject></g></g><g transform="translate(218.76953125, 47)" id="flowchart-UserDocScroll-4" class="node default userAction"><rect height="78" width="167.78125" y="-39" x="-83.890625" style="fill:#e1f5fe !important;stroke:#01579b !important;stroke-width:2px !important" class="basic label-container"/><g transform="translate(-53.890625, -24)" style="" class="label"><rect/><foreignObject height="48" width="107.78125"><div style="display: table-cell; white-space: nowrap; line-height: 1.5; max-width: 200px; text-align: center;" xmlns="http://www.w3.org/1999/xhtml"><span class="nodeLabel"><p>👤 User Scrolls<br />Document</p></span></div></foreignObject></g></g><g transform="translate(1177.46484375, 187)" id="flowchart-CommContext-5" class="node default commHub"><rect height="102" width="299.8125" y="-51" x="-149.90625" style="fill:#fff3e0 !important;stroke:#e65100 !important;stroke-width:3px !important" class="basic label-container"/><g transform="translate(-119.90625, -36)" style="" class="label"><rect/><foreignObject height="72" width="239.8125"><div style="display: table; white-space: break-spaces; line-height: 1.5; max-width: 200px; text-align: center; width: 200px;" xmlns="http://www.w3.org/1999/xhtml"><span class="nodeLabel"><p>🧠 DocumentCommunicationContext<br />Central State Management</p></span></div></foreignObject></g></g><g transform="translate(1292.6953125, 327)" id="flowchart-ScrollAction-6" class="node default action"><rect height="78" width="260" y="-39" x="-130" style="fill:#f3e5f5 !important;stroke:#4a148c !important;stroke-width:2px !important" class="basic label-container"/><g transform="translate(-100, -24)" style="" class="label"><rect/><foreignObject height="48" width="200"><div style="display: table; white-space: break-spaces; line-height: 1.5; max-width: 200px; text-align: center; width: 200px;" xmlns="http://www.w3.org/1999/xhtml"><span class="nodeLabel"><p>📍 scrollToElement elementId</p></span></div></foreignObject></g></g><g transform="translate(982.6953125, 327)" id="flowchart-PositionAction-7" class="node default action"><rect height="78" width="260" y="-39" x="-130" style="fill:#f3e5f5 !important;stroke:#4a148c !important;stroke-width:2px !important" class="basic label-container"/><g transform="translate(-100, -24)" style="" class="label"><rect/><foreignObject height="48" width="200"><div style="display: table; white-space: break-spaces; line-height: 1.5; max-width: 200px; text-align: center; width: 200px;" xmlns="http://www.w3.org/1999/xhtml"><span class="nodeLabel"><p>📌 setCurrentPosition elementId</p></span></div></foreignObject></g></g><g transform="translate(691.5859375, 327)" id="flowchart-HighlightAction-8" class="node default action"><rect height="54" width="222.21875" y="-27" x="-111.109375" style="fill:#f3e5f5 !important;stroke:#4a148c !important;stroke-width:2px !important" class="basic label-container"/><g transform="translate(-81.109375, -12)" style="" class="label"><rect/><foreignObject height="24" width="162.21875"><div style="display: table-cell; white-space: nowrap; line-height: 1.5; max-width: 200px; text-align: center;" xmlns="http://www.w3.org/1999/xhtml"><span class="nodeLabel"><p>✨ highlightTerm term</p></span></div></foreignObject></g></g><g transform="translate(2089.90625, 655)" id="flowchart-TabAction-9" class="node default action"><rect height="54" width="217.671875" y="-27" x="-108.8359375" style="fill:#f3e5f5 !important;stroke:#4a148c !important;stroke-width:2px !important" class="basic label-container"/><g transform="translate(-78.8359375, -12)" style="" class="label"><rect/><foreignObject height="24" width="157.671875"><div style="display: table-cell; white-space: nowrap; line-height: 1.5; max-width: 200px; text-align: center;" xmlns="http://www.w3.org/1999/xhtml"><span class="nodeLabel"><p>🔄 setActiveTab tabId</p></span></div></foreignObject></g></g><g transform="translate(1079.12109375, 515)" id="flowchart-Document-10" class="node default component"><rect height="102" width="260" y="-51" x="-130" style="fill:#e8f5e8 !important;stroke:#1b5e20 !important;stroke-width:2px !important" class="basic label-container"/><g transform="translate(-100, -36)" style="" class="label"><rect/><foreignObject height="72" width="200"><div style="display: table; white-space: break-spaces; line-height: 1.5; max-width: 200px; text-align: center; width: 200px;" xmlns="http://www.w3.org/1999/xhtml"><span class="nodeLabel"><p>📄 Document Viewer<br />simple-document-viewer.tsx</p></span></div></foreignObject></g></g><g transform="translate(430.7421875, 655)" id="flowchart-MarkJS-11" class="node default component"><rect height="78" width="227.453125" y="-39" x="-113.7265625" style="fill:#e8f5e8 !important;stroke:#1b5e20 !important;stroke-width:2px !important" class="basic label-container"/><g transform="translate(-83.7265625, -24)" style="" class="label"><rect/><foreignObject height="48" width="167.453125"><div style="display: table-cell; white-space: nowrap; line-height: 1.5; max-width: 200px; text-align: center;" xmlns="http://www.w3.org/1999/xhtml"><span class="nodeLabel"><p>🎯 Mark.js Highlighting<br />Text + Element Outline</p></span></div></foreignObject></g></g><g transform="translate(2253.7421875, 783)" id="flowchart-GlossaryTab-12" class="node default component"><rect height="78" width="209.125" y="-39" x="-104.5625" style="fill:#e8f5e8 !important;stroke:#1b5e20 !important;stroke-width:2px !important" class="basic label-container"/><g transform="translate(-74.5625, -24)" style="" class="label"><rect/><foreignObject height="48" width="149.125"><div style="display: table-cell; white-space: nowrap; line-height: 1.5; max-width: 200px; text-align: center;" xmlns="http://www.w3.org/1999/xhtml"><span class="nodeLabel"><p>📚 Glossary Tab<br />unified-left-pane.tsx</p></span></div></foreignObject></g></g><g transform="translate(379.75, 783)" id="flowchart-StructureTab-13" class="node default component"><rect height="78" width="195.359375" y="-39" x="-97.6796875" style="fill:#e8f5e8 !important;stroke:#1b5e20 !important;stroke-width:2px !important" class="basic label-container"/><g transform="translate(-67.6796875, -24)" style="" class="label"><rect/><foreignObject height="48" width="135.359375"><div style="display: table-cell; white-space: nowrap; line-height: 1.5; max-width: 200px; text-align: center;" xmlns="http://www.w3.org/1999/xhtml"><span class="nodeLabel"><p>🏗️ Structure Panel<br />StructurePanel.tsx</p></span></div></foreignObject></g></g><g transform="translate(127.5078125, 783)" id="flowchart-SearchTab-14" class="node default component"><rect height="78" width="209.125" y="-39" x="-104.5625" style="fill:#e8f5e8 !important;stroke:#1b5e20 !important;stroke-width:2px !important" class="basic label-container"/><g transform="translate(-74.5625, -24)" style="" class="label"><rect/><foreignObject height="48" width="149.125"><div style="display: table-cell; white-space: nowrap; line-height: 1.5; max-width: 200px; text-align: center;" xmlns="http://www.w3.org/1999/xhtml"><span class="nodeLabel"><p>🔍 Search Panel<br />unified-left-pane.tsx</p></span></div></foreignObject></g></g><g transform="translate(1409.28515625, 655)" id="flowchart-DocScroll-15" class="node default effect"><rect height="78" width="208.140625" y="-39" x="-104.0703125" style="fill:#fff8e1 !important;stroke:#ff8f00 !important;stroke-width:2px !important" class="basic label-container"/><g transform="translate(-74.0703125, -24)" style="" class="label"><rect/><foreignObject height="48" width="148.140625"><div style="display: table-cell; white-space: nowrap; line-height: 1.5; max-width: 200px; text-align: center;" xmlns="http://www.w3.org/1999/xhtml"><span class="nodeLabel"><p>📜 Document Scrolls<br />Smooth Animation</p></span></div></foreignObject></g></g><g transform="translate(1794.828125, 655)" id="flowchart-DocHighlight-16" class="node default effect"><rect height="78" width="232.484375" y="-39" x="-116.2421875" style="fill:#fff8e1 !important;stroke:#ff8f00 !important;stroke-width:2px !important" class="basic label-container"/><g transform="translate(-86.2421875, -24)" style="" class="label"><rect/><foreignObject height="48" width="172.484375"><div style="display: table-cell; white-space: nowrap; line-height: 1.5; max-width: 200px; text-align: center;" xmlns="http://www.w3.org/1999/xhtml"><span class="nodeLabel"><p>🌟 Document Highlights<br />Temporary Effect</p></span></div></foreignObject></g></g><g transform="translate(117.5078125, 911)" id="flowchart-TabScroll-17" class="node default effect"><rect height="78" width="197.1875" y="-39" x="-98.59375" style="fill:#fff8e1 !important;stroke:#ff8f00 !important;stroke-width:2px !important" class="basic label-container"/><g transform="translate(-68.59375, -24)" style="" class="label"><rect/><foreignObject height="48" width="137.1875"><div style="display: table-cell; white-space: nowrap; line-height: 1.5; max-width: 200px; text-align: center;" xmlns="http://www.w3.org/1999/xhtml"><span class="nodeLabel"><p>📋 Tab Auto-scrolls<br />to Relevant Item</p></span></div></foreignObject></g></g><g transform="translate(2220.13671875, 911)" id="flowchart-TabHighlight-18" class="node default effect"><rect height="78" width="233.4375" y="-39" x="-116.71875" style="fill:#fff8e1 !important;stroke:#ff8f00 !important;stroke-width:2px !important" class="basic label-container"/><g transform="translate(-86.71875, -24)" style="" class="label"><rect/><foreignObject height="48" width="173.4375"><div style="display: table-cell; white-space: nowrap; line-height: 1.5; max-width: 200px; text-align: center;" xmlns="http://www.w3.org/1999/xhtml"><span class="nodeLabel"><p>💡 Tab Item Highlighted<br />Visual Emphasis</p></span></div></foreignObject></g></g><g transform="translate(137.5078125, 655)" id="flowchart-PositionSync-19" class="node default effect"><rect height="78" width="259.015625" y="-39" x="-129.5078125" style="fill:#fff8e1 !important;stroke:#ff8f00 !important;stroke-width:2px !important" class="basic label-container"/><g transform="translate(-99.5078125, -24)" style="" class="label"><rect/><foreignObject height="48" width="199.015625"><div style="display: table-cell; white-space: nowrap; line-height: 1.5; max-width: 200px; text-align: center;" xmlns="http://www.w3.org/1999/xhtml"><span class="nodeLabel"><p>🔄 Position Synchronization<br />Cross-tab State</p></span></div></foreignObject></g></g><g transform="translate(2514.078125, 783)" id="flowchart-URLState-20" class="node default effect"><rect height="78" width="211.296875" y="-39" x="-105.6484375" style="fill:#fff8e1 !important;stroke:#ff8f00 !important;stroke-width:2px !important" class="basic label-container"/><g transform="translate(-75.6484375, -24)" style="" class="label"><rect/><foreignObject height="48" width="151.296875"><div style="display: table-cell; white-space: nowrap; line-height: 1.5; max-width: 200px; text-align: center;" xmlns="http://www.w3.org/1999/xhtml"><span class="nodeLabel"><p>🔗 URL State Update<br />Persistent Navigation</p></span></div></foreignObject></g></g></g></g></g></svg>